SolveigText.ufo
<glyph name="exclam" format="1">
  <advance width="198"/>
  <unicode hex="0021"/>
  <outline>
    <contour>
      <point x="117" y="147" type="curve"/>
      <point x="86" y="143" type="line"/>
      <point x="84" y="283"/>
      <point x="72" y="530"/>
      <point x="66" y="578" type="curve"/>
      <point x="92" y="580"/>
      <point x="118" y="583"/>
      <point x="148" y="588" type="curve"/>
      <point x="136" y="505"/>
      <point x="119" y="218"/>
    </contour>
    <contour>
      <point x="103" y="66" type="curve" smooth="yes"/>
      <point x="132" y="66"/>
      <point x="146" y="53"/>
      <point x="146" y="33" type="curve" smooth="yes"/>
      <point x="146" y="8"/>
      <point x="115" y="-7"/>
      <point x="87" y="-7" type="curve" smooth="yes"/>
      <point x="67" y="-7"/>
      <point x="50" y="5"/>
      <point x="50" y="23" type="curve" smooth="yes"/>
      <point x="50" y="45"/>
      <point x="76" y="66"/>
    </contour>
  </outline>
</glyph>
<glyph name="quotedbl" format="1">
  <advance width="299"/>
  <unicode hex="0022"/>
  <outline>
    <contour>
      <point x="101" y="350" type="curve"/>
      <point x="71" y="348" type="line"/>
      <point x="69" y="424"/>
      <point x="57" y="551"/>
      <point x="50" y="578" type="curve"/>
      <point x="77" y="578"/>
      <point x="102" y="583"/>
      <point x="132" y="588" type="curve"/>
      <point x="121" y="543"/>
      <point x="104" y="389"/>
    </contour>
    <contour>
      <point x="230" y="350" type="curve"/>
      <point x="201" y="348" type="line"/>
      <point x="199" y="424"/>
      <point x="186" y="551"/>
      <point x="180" y="578" type="curve"/>
      <point x="206" y="578"/>
      <point x="232" y="583"/>
      <point x="262" y="588" type="curve"/>
      <point x="251" y="543"/>
      <point x="232" y="389"/>
    </contour>
  </outline>
</glyph>
<glyph name="numbersign" format="1">
  <advance width="416"/>
  <unicode hex="0023"/>
  <outline>
    <contour>
      <point x="285" y="582" type="curve"/>
      <point x="284" y="524"/>
      <point x="283" y="476"/>
      <point x="283" y="427" type="curve"/>
      <point x="308" y="427"/>
      <point x="335" y="428"/>
      <point x="354" y="428" type="curve"/>
      <point x="355" y="417"/>
      <point x="353" y="398"/>
      <point x="348" y="388" type="curve"/>
      <point x="326" y="388"/>
      <point x="305" y="389"/>
      <point x="283" y="390" type="curve"/>
      <point x="282" y="327"/>
      <point x="282" y="270"/>
      <point x="282" y="207" type="curve"/>
      <point x="307" y="207"/>
      <point x="335" y="208"/>
      <point x="354" y="208" type="curve"/>
      <point x="355" y="197"/>
      <point x="353" y="179"/>
      <point x="348" y="169" type="curve"/>
      <point x="325" y="169"/>
      <point x="304" y="170"/>
      <point x="282" y="171" type="curve"/>
      <point x="282" y="117"/>
      <point x="282" y="67"/>
      <point x="283" y="2" type="curve"/>
      <point x="272" y="-2"/>
      <point x="256" y="-6"/>
      <point x="244" y="-3" type="curve"/>
      <point x="244" y="62"/>
      <point x="245" y="117"/>
      <point x="246" y="171" type="curve"/>
      <point x="137" y="171" type="line"/>
      <point x="137" y="117"/>
      <point x="137" y="67"/>
      <point x="138" y="2" type="curve"/>
      <point x="127" y="-2"/>
      <point x="112" y="-6"/>
      <point x="101" y="-3" type="curve"/>
      <point x="101" y="62"/>
      <point x="102" y="117"/>
      <point x="102" y="171" type="curve"/>
      <point x="35" y="171" type="line"/>
      <point x="32" y="180"/>
      <point x="36" y="204"/>
      <point x="38" y="210" type="curve"/>
      <point x="102" y="208" type="line"/>
      <point x="102" y="272"/>
      <point x="103" y="327"/>
      <point x="103" y="391" type="curve"/>
      <point x="35" y="391" type="line"/>
      <point x="32" y="399"/>
      <point x="36" y="424"/>
      <point x="38" y="430" type="curve"/>
      <point x="103" y="428" type="line"/>
      <point x="103" y="581" type="line"/>
      <point x="112" y="584"/>
      <point x="134" y="584"/>
      <point x="140" y="582" type="curve"/>
      <point x="139" y="524"/>
      <point x="138" y="476"/>
      <point x="138" y="428" type="curve"/>
      <point x="181" y="427"/>
      <point x="208" y="427"/>
      <point x="247" y="427" type="curve"/>
      <point x="247" y="581" type="line"/>
      <point x="255" y="584"/>
      <point x="279" y="584"/>
    </contour>
    <contour>
      <point x="137" y="208" type="curve"/>
      <point x="180" y="207"/>
      <point x="206" y="207"/>
      <point x="246" y="207" type="curve"/>
      <point x="246" y="271"/>
      <point x="247" y="326"/>
      <point x="247" y="390" type="curve"/>
      <point x="209" y="391"/>
      <point x="181" y="391"/>
      <point x="138" y="391" type="curve"/>
      <point x="137" y="328"/>
      <point x="137" y="270"/>
    </contour>
  </outline>
</glyph>
<glyph name="dollar" format="1">
  <advance width="338"/>
  <unicode hex="0024"/>
  <outline>
    <contour>
      <point x="151" y="-16" type="curve"/>
      <point x="151" y="20"/>
      <point x="149" y="60"/>
      <point x="148" y="71" type="curve"/>
      <point x="116" y="72"/>
      <point x="62" y="74"/>
      <point x="38" y="82" type="curve"/>
      <point x="37" y="92"/>
      <point x="39" y="108"/>
      <point x="42" y="115" type="curve"/>
      <point x="136" y="102"/>
      <point x="232" y="107"/>
      <point x="235" y="175" type="curve" smooth="yes"/>
      <point x="236" y="218"/>
      <point x="177" y="255"/>
      <point x="136" y="283" type="curve"/>
      <point x="78" y="320"/>
      <point x="44" y="349"/>
      <point x="44" y="387" type="curve" smooth="yes"/>
      <point x="44" y="444"/>
      <point x="78" y="484"/>
      <point x="151" y="510" type="curve"/>
      <point x="152" y="536"/>
      <point x="153" y="574"/>
      <point x="153" y="593" type="curve"/>
      <point x="163" y="597"/>
      <point x="178" y="596"/>
      <point x="185" y="595" type="curve"/>
      <point x="184" y="575"/>
      <point x="187" y="531"/>
      <point x="188" y="517" type="curve"/>
      <point x="203" y="519"/>
      <point x="242" y="521"/>
      <point x="269" y="521" type="curve"/>
      <point x="270" y="511"/>
      <point x="270" y="499"/>
      <point x="269" y="489" type="curve"/>
      <point x="201" y="492"/>
      <point x="104" y="471"/>
      <point x="104" y="409" type="curve" smooth="yes"/>
      <point x="104" y="382"/>
      <point x="145" y="355"/>
      <point x="191" y="330" type="curve" smooth="yes"/>
      <point x="247" y="300"/>
      <point x="300" y="262"/>
      <point x="300" y="208" type="curve" smooth="yes"/>
      <point x="300" y="163"/>
      <point x="270" y="99"/>
      <point x="186" y="77" type="curve"/>
      <point x="183" y="65"/>
      <point x="181" y="3"/>
      <point x="181" y="-16" type="curve"/>
      <point x="175" y="-18"/>
      <point x="160" y="-18"/>
    </contour>
  </outline>
</glyph>
<glyph name="percent" format="1">
  <advance width="794"/>
  <unicode hex="0025"/>
  <outline>
    <contour>
      <point x="655" y="583" type="curve"/>
      <point x="514" y="407"/>
      <point x="320" y="167"/>
      <point x="183" y="-10" type="curve"/>
      <point x="173" y="-7"/>
      <point x="155" y="-3"/>
      <point x="146" y="6" type="curve"/>
      <point x="287" y="183"/>
      <point x="482" y="422"/>
      <point x="620" y="599" type="curve"/>
      <point x="629" y="596"/>
      <point x="649" y="589"/>
    </contour>
    <contour>
      <point x="217" y="593" type="curve" smooth="yes"/>
      <point x="320" y="593"/>
      <point x="364" y="524"/>
      <point x="364" y="437" type="curve" smooth="yes"/>
      <point x="364" y="392"/>
      <point x="341" y="333"/>
      <point x="301" y="301" type="curve" smooth="yes"/>
      <point x="281" y="285"/>
      <point x="225" y="263"/>
      <point x="184" y="263" type="curve" smooth="yes"/>
      <point x="80" y="263"/>
      <point x="41" y="353"/>
      <point x="42" y="417" type="curve" smooth="yes"/>
      <point x="42" y="475"/>
      <point x="72" y="530"/>
      <point x="112" y="557" type="curve"/>
      <point x="139" y="574"/>
      <point x="190" y="593"/>
    </contour>
    <contour>
      <point x="206" y="553" type="curve" smooth="yes"/>
      <point x="135" y="553"/>
      <point x="111" y="495"/>
      <point x="111" y="418" type="curve" smooth="yes"/>
      <point x="111" y="368"/>
      <point x="135" y="302"/>
      <point x="194" y="302" type="curve" smooth="yes"/>
      <point x="269" y="302"/>
      <point x="301" y="362"/>
      <point x="299" y="435" type="curve" smooth="yes"/>
      <point x="297" y="507"/>
      <point x="260" y="553"/>
    </contour>
    <contour>
      <point x="606" y="323" type="curve" smooth="yes"/>
      <point x="709" y="323"/>
      <point x="753" y="253"/>
      <point x="753" y="167" type="curve" smooth="yes"/>
      <point x="753" y="122"/>
      <point x="730" y="63"/>
      <point x="690" y="31" type="curve" smooth="yes"/>
      <point x="670" y="15"/>
      <point x="614" y="-7"/>
      <point x="573" y="-7" type="curve" smooth="yes"/>
      <point x="469" y="-7"/>
      <point x="430" y="83"/>
      <point x="431" y="147" type="curve" smooth="yes"/>
      <point x="431" y="205"/>
      <point x="461" y="260"/>
      <point x="501" y="287" type="curve"/>
      <point x="528" y="304"/>
      <point x="579" y="323"/>
    </contour>
    <contour>
      <point x="596" y="283" type="curve" smooth="yes"/>
      <point x="524" y="283"/>
      <point x="500" y="225"/>
      <point x="500" y="148" type="curve" smooth="yes"/>
      <point x="500" y="98"/>
      <point x="524" y="32"/>
      <point x="583" y="32" type="curve" smooth="yes"/>
      <point x="658" y="32"/>
      <point x="690" y="92"/>
      <point x="688" y="165" type="curve" smooth="yes"/>
      <point x="686" y="237"/>
      <point x="649" y="283"/>
    </contour>
  </outline>
</glyph>
<glyph name="ampersand" format="1">
  <advance width="638"/>
  <unicode hex="0026"/>
  <outline>
    <contour>
      <point x="367" y="568" type="curve"/>
      <point x="362" y="559"/>
      <point x="359" y="546"/>
      <point x="351" y="541" type="curve"/>
      <point x="330" y="553"/>
      <point x="292" y="555"/>
      <point x="276" y="549" type="curve" smooth="yes"/>
      <point x="236" y="535"/>
      <point x="208" y="506"/>
      <point x="208" y="476" type="curve" smooth="yes"/>
      <point x="208" y="459"/>
      <point x="219" y="430"/>
      <point x="244" y="395" type="curve" smooth="yes"/>
      <point x="252" y="383"/>
      <point x="363" y="238"/>
      <point x="428" y="173" type="curve"/>
      <point x="448" y="190"/>
      <point x="484" y="239"/>
      <point x="493" y="277" type="curve"/>
      <point x="525" y="282"/>
      <point x="556" y="294"/>
      <point x="599" y="311" type="curve"/>
      <point x="567" y="270"/>
      <point x="513" y="200"/>
      <point x="453" y="143" type="curve"/>
      <point x="495" y="92"/>
      <point x="558" y="30"/>
      <point x="603" y="0" type="curve"/>
      <point x="556" y="4"/>
      <point x="503" y="0"/>
      <point x="484" y="-4" type="curve"/>
      <point x="472" y="10"/>
      <point x="469" y="17"/>
      <point x="403" y="96" type="curve"/>
      <point x="326" y="37"/>
      <point x="242" y="-12"/>
      <point x="172" y="-12" type="curve" smooth="yes"/>
      <point x="81" y="-12"/>
      <point x="35" y="60"/>
      <point x="35" y="126" type="curve" smooth="yes"/>
      <point x="35" y="217"/>
      <point x="107" y="280"/>
      <point x="195" y="345" type="curve"/>
      <point x="171" y="371"/>
      <point x="141" y="434"/>
      <point x="141" y="458" type="curve" smooth="yes"/>
      <point x="141" y="530"/>
      <point x="234" y="592"/>
      <point x="305" y="592" type="curve" smooth="yes"/>
      <point x="321" y="592"/>
      <point x="355" y="578"/>
    </contour>
    <contour>
      <point x="218" y="317" type="curve"/>
      <point x="170" y="283"/>
      <point x="117" y="232"/>
      <point x="106" y="182" type="curve" smooth="yes"/>
      <point x="90" y="112"/>
      <point x="122" y="51"/>
      <point x="211" y="51" type="curve" smooth="yes"/>
      <point x="264" y="51"/>
      <point x="336" y="95"/>
      <point x="377" y="127" type="curve"/>
      <point x="315" y="197"/>
      <point x="255" y="270"/>
    </contour>
  </outline>
</glyph>
<glyph name="quotesingle" format="1">
  <advance width="169"/>
  <unicode hex="0027"/>
  <outline>
    <contour>
      <point x="101" y="350" type="curve"/>
      <point x="71" y="348" type="line"/>
      <point x="69" y="424"/>
      <point x="57" y="551"/>
      <point x="50" y="578" type="curve"/>
      <point x="77" y="578"/>
      <point x="102" y="583"/>
      <point x="132" y="588" type="curve"/>
      <point x="121" y="543"/>
      <point x="103" y="389"/>
    </contour>
  </outline>
</glyph>
<glyph name="parenleft" format="1">
  <advance width="227"/>
  <unicode hex="0028"/>
  <outline>
    <contour>
      <point x="164" y="-88" type="curve"/>
      <point x="107" y="23"/>
      <point x="55" y="127"/>
      <point x="56" y="266" type="curve" smooth="yes"/>
      <point x="57" y="395"/>
      <point x="121" y="516"/>
      <point x="170" y="603" type="curve"/>
      <point x="179" y="603"/>
      <point x="189" y="599"/>
      <point x="197" y="594" type="curve"/>
      <point x="165" y="524"/>
      <point x="123" y="405"/>
      <point x="123" y="268" type="curve" smooth="yes"/>
      <point x="123" y="158"/>
      <point x="139" y="42"/>
      <point x="195" y="-80" type="curve"/>
      <point x="184" y="-86"/>
      <point x="174" y="-87"/>
    </contour>
  </outline>
</glyph>
<glyph name="parenright" format="1">
  <advance width="227"/>
  <unicode hex="0029"/>
  <outline>
    <contour>
      <point x="34" y="594" type="curve"/>
      <point x="62" y="603" type="line"/>
      <point x="121" y="491"/>
      <point x="172" y="408"/>
      <point x="171" y="269" type="curve" smooth="yes"/>
      <point x="171" y="141"/>
      <point x="108" y="-2"/>
      <point x="59" y="-89" type="curve"/>
      <point x="52" y="-87"/>
      <point x="37" y="-84"/>
      <point x="30" y="-80" type="curve"/>
      <point x="63" y="-9"/>
      <point x="104" y="130"/>
      <point x="104" y="267" type="curve" smooth="yes"/>
      <point x="104" y="377"/>
      <point x="86" y="472"/>
    </contour>
  </outline>
</glyph>
<glyph name="comma" format="1">
  <advance width="181"/>
  <unicode hex="002C"/>
  <outline>
    <contour>
      <point x="94" y="96" type="curve" smooth="yes"/>
      <point x="117" y="96"/>
      <point x="139" y="73"/>
      <point x="139" y="29" type="curve" smooth="yes"/>
      <point x="139" y="-19"/>
      <point x="90" y="-109"/>
      <point x="49" y="-184" type="curve"/>
      <point x="40" y="-181"/>
      <point x="32" y="-176"/>
      <point x="25" y="-171" type="curve"/>
      <point x="53" y="-112"/>
      <point x="67" y="-68"/>
      <point x="67" y="-28" type="curve" smooth="yes"/>
      <point x="67" y="6"/>
      <point x="50" y="21"/>
      <point x="50" y="50" type="curve" smooth="yes"/>
      <point x="50" y="67"/>
      <point x="68" y="96"/>
    </contour>
  </outline>
</glyph>
<glyph name="hyphen" format="1">
  <advance width="266"/>
  <unicode hex="002D"/>
  <outline>
    <contour>
      <point x="47" y="271" type="curve"/>
      <point x="77" y="274"/>
      <point x="195" y="293"/>
      <point x="216" y="298" type="curve"/>
      <point x="219" y="286"/>
      <point x="222" y="266"/>
      <point x="216" y="247" type="curve"/>
      <point x="192" y="246"/>
      <point x="77" y="229"/>
      <point x="49" y="223" type="curve"/>
      <point x="46" y="233"/>
      <point x="46" y="260"/>
    </contour>
  </outline>
</glyph>
<glyph name="period" format="1">
  <advance width="180"/>
  <unicode hex="002E"/>
  <outline>
    <contour>
      <point x="94" y="67" type="curve" smooth="yes"/>
      <point x="123" y="67"/>
      <point x="138" y="53"/>
      <point x="138" y="33" type="curve" smooth="yes"/>
      <point x="138" y="8"/>
      <point x="107" y="-7"/>
      <point x="79" y="-7" type="curve" smooth="yes"/>
      <point x="58" y="-7"/>
      <point x="42" y="5"/>
      <point x="42" y="23" type="curve" smooth="yes"/>
      <point x="42" y="45"/>
      <point x="68" y="67"/>
    </contour>
  </outline>
</glyph>
<glyph name="slash" format="1">
  <advance width="299"/>
  <unicode hex="002F"/>
  <outline>
    <contour>
      <point x="277" y="600" type="curve"/>
      <point x="204" y="386"/>
      <point x="130" y="168"/>
      <point x="61" y="-46" type="curve"/>
      <point x="50" y="-46"/>
      <point x="31" y="-47"/>
      <point x="20" y="-42" type="curve"/>
      <point x="92" y="172"/>
      <point x="169" y="391"/>
      <point x="238" y="605" type="curve"/>
      <point x="248" y="606"/>
      <point x="272" y="604"/>
    </contour>
  </outline>
</glyph>
<glyph name="zero" format="1">
  <advance width="444"/>
  <unicode hex="0030"/>
  <outline>
    <contour>
      <point x="203" y="-15" type="curve" smooth="yes"/>
      <point x="86" y="-15"/>
      <point x="37" y="135"/>
      <point x="37" y="296" type="curve" smooth="yes"/>
      <point x="37" y="365"/>
      <point x="54" y="445"/>
      <point x="87" y="498" type="curve"/>
      <point x="115" y="541"/>
      <point x="186" y="595"/>
      <point x="236" y="595" type="curve" smooth="yes"/>
      <point x="375" y="595"/>
      <point x="408" y="470"/>
      <point x="406" y="314" type="curve"/>
      <point x="406" y="227"/>
      <point x="376" y="99"/>
      <point x="315" y="34" type="curve" smooth="yes"/>
      <point x="291" y="8"/>
      <point x="246" y="-15"/>
    </contour>
    <contour>
      <point x="226" y="548" type="curve" smooth="yes"/>
      <point x="144" y="548"/>
      <point x="104" y="414"/>
      <point x="104" y="322" type="curve"/>
      <point x="102" y="213"/>
      <point x="133" y="32"/>
      <point x="227" y="32" type="curve" smooth="yes"/>
      <point x="290" y="32"/>
      <point x="338" y="160"/>
      <point x="338" y="286" type="curve" smooth="yes"/>
      <point x="338" y="470"/>
      <point x="302" y="548"/>
    </contour>
  </outline>
</glyph>
<glyph name="one" format="1">
  <advance width="340"/>
  <unicode hex="0031"/>
  <outline>
    <contour>
      <point x="222" y="588" type="curve"/>
      <point x="229" y="584"/>
      <point x="233" y="583"/>
      <point x="239" y="578" type="curve"/>
      <point x="223" y="503"/>
      <point x="229" y="102"/>
      <point x="238" y="-3" type="curve"/>
      <point x="211" y="2"/>
      <point x="179" y="2"/>
      <point x="148" y="-2" type="curve"/>
      <point x="164" y="91"/>
      <point x="170" y="428"/>
      <point x="161" y="509" type="curve"/>
      <point x="117" y="508"/>
      <point x="82" y="502"/>
      <point x="38" y="496" type="curve"/>
      <point x="35" y="502"/>
      <point x="34" y="518"/>
      <point x="33" y="525" type="curve"/>
      <point x="108" y="545"/>
      <point x="164" y="563"/>
    </contour>
  </outline>
</glyph>
<glyph name="two" format="1">
  <advance width="422"/>
  <unicode hex="0032"/>
  <outline>
    <contour>
      <point x="62" y="529" type="curve"/>
      <point x="123" y="559"/>
      <point x="187" y="591"/>
      <point x="263" y="591" type="curve" smooth="yes"/>
      <point x="343" y="591"/>
      <point x="358" y="527"/>
      <point x="358" y="468" type="curve" smooth="yes"/>
      <point x="358" y="393"/>
      <point x="300" y="300"/>
      <point x="261" y="245" type="curve" smooth="yes"/>
      <point x="254" y="236"/>
      <point x="170" y="122"/>
      <point x="127" y="70" type="curve"/>
      <point x="181" y="59"/>
      <point x="379" y="75"/>
      <point x="394" y="79" type="curve"/>
      <point x="382" y="43"/>
      <point x="373" y="14"/>
      <point x="368" y="-17" type="curve"/>
      <point x="301" y="7"/>
      <point x="147" y="5"/>
      <point x="37" y="-3" type="curve"/>
      <point x="31" y="6"/>
      <point x="30" y="14"/>
      <point x="28" y="22" type="curve"/>
      <point x="125" y="113"/>
      <point x="293" y="330"/>
      <point x="293" y="449" type="curve" smooth="yes"/>
      <point x="293" y="509"/>
      <point x="268" y="532"/>
      <point x="208" y="532" type="curve" smooth="yes"/>
      <point x="179" y="532"/>
      <point x="107" y="514"/>
      <point x="78" y="501" type="curve"/>
      <point x="69" y="509"/>
      <point x="64" y="519"/>
    </contour>
  </outline>
</glyph>
<glyph name="three" format="1">
  <advance width="370"/>
  <unicode hex="0033"/>
  <outline>
    <contour>
      <point x="39" y="553" type="curve"/>
      <point x="60" y="566"/>
      <point x="137" y="593"/>
      <point x="183" y="593" type="curve" smooth="yes"/>
      <point x="240" y="593"/>
      <point x="280" y="543"/>
      <point x="280" y="493" type="curve" smooth="yes"/>
      <point x="280" y="450"/>
      <point x="243" y="396"/>
      <point x="191" y="364" type="curve"/>
      <point x="272" y="365"/>
      <point x="333" y="310"/>
      <point x="333" y="226" type="curve" smooth="yes"/>
      <point x="333" y="57"/>
      <point x="132" y="-14"/>
      <point x="15" y="-8" type="curve"/>
      <point x="14" y="0"/>
      <point x="14" y="20"/>
      <point x="17" y="30" type="curve"/>
      <point x="126" y="26"/>
      <point x="261" y="93"/>
      <point x="261" y="223" type="curve" smooth="yes"/>
      <point x="261" y="287"/>
      <point x="216" y="328"/>
      <point x="156" y="328" type="curve" smooth="yes"/>
      <point x="141" y="328"/>
      <point x="116" y="324"/>
      <point x="104" y="319" type="curve"/>
      <point x="95" y="328"/>
      <point x="92" y="342"/>
      <point x="90" y="351" type="curve"/>
      <point x="156" y="373"/>
      <point x="211" y="408"/>
      <point x="211" y="471" type="curve" smooth="yes"/>
      <point x="211" y="509"/>
      <point x="188" y="541"/>
      <point x="141" y="541" type="curve" smooth="yes"/>
      <point x="116" y="541"/>
      <point x="70" y="531"/>
      <point x="52" y="525" type="curve"/>
      <point x="47" y="530"/>
      <point x="41" y="543"/>
    </contour>
  </outline>
</glyph>
<glyph name="four" format="1">
  <advance width="416"/>
  <unicode hex="0034"/>
  <outline>
    <contour>
      <point x="261" y="-2" type="curve"/>
      <point x="271" y="43"/>
      <point x="272" y="105"/>
      <point x="271" y="176" type="curve"/>
      <point x="269" y="176"/>
      <point x="94" y="179"/>
      <point x="37" y="176" type="curve"/>
      <point x="30" y="181"/>
      <point x="27" y="186"/>
      <point x="22" y="193" type="curve"/>
      <point x="95" y="297"/>
      <point x="248" y="519"/>
      <point x="303" y="601" type="curve"/>
      <point x="308" y="598"/>
      <point x="323" y="585"/>
      <point x="329" y="579" type="curve"/>
      <point x="260" y="476"/>
      <point x="158" y="325"/>
      <point x="95" y="217" type="curve"/>
      <point x="158" y="214"/>
      <point x="221" y="216"/>
      <point x="271" y="216" type="curve"/>
      <point x="272" y="243"/>
      <point x="272" y="325"/>
      <point x="270" y="408" type="curve"/>
      <point x="295" y="414"/>
      <point x="321" y="420"/>
      <point x="347" y="434" type="curve"/>
      <point x="338" y="367"/>
      <point x="335" y="316"/>
      <point x="335" y="216" type="curve"/>
      <point x="350" y="216"/>
      <point x="360" y="216"/>
      <point x="377" y="218" type="curve"/>
      <point x="380" y="202"/>
      <point x="380" y="188"/>
      <point x="376" y="174" type="curve"/>
      <point x="352" y="175"/>
      <point x="344" y="176"/>
      <point x="335" y="175" type="curve"/>
      <point x="334" y="141"/>
      <point x="337" y="50"/>
      <point x="345" y="-1" type="curve"/>
      <point x="320" y="2"/>
      <point x="290" y="6"/>
    </contour>
  </outline>
</glyph>
<glyph name="five" format="1">
  <advance width="350"/>
  <unicode hex="0035"/>
  <outline>
    <contour>
      <point x="296" y="586" type="curve"/>
      <point x="282" y="557"/>
      <point x="271" y="530"/>
      <point x="265" y="511" type="curve"/>
      <point x="231" y="521"/>
      <point x="159" y="520"/>
      <point x="125" y="516" type="curve"/>
      <point x="115" y="497"/>
      <point x="100" y="455"/>
      <point x="91" y="419" type="curve"/>
      <point x="215" y="430"/>
      <point x="311" y="398"/>
      <point x="311" y="261" type="curve" smooth="yes"/>
      <point x="311" y="166"/>
      <point x="220" y="56"/>
      <point x="114" y="-22" type="curve"/>
      <point x="107" y="-17"/>
      <point x="97" y="-8"/>
      <point x="94" y="5" type="curve"/>
      <point x="162" y="64"/>
      <point x="251" y="148"/>
      <point x="251" y="241" type="curve"/>
      <point x="250" y="325"/>
      <point x="170" y="374"/>
      <point x="49" y="364" type="curve"/>
      <point x="44" y="365"/>
      <point x="37" y="371"/>
      <point x="37" y="371" type="curve"/>
      <point x="59" y="432"/>
      <point x="89" y="533"/>
      <point x="104" y="584" type="curve"/>
      <point x="154" y="580"/>
      <point x="249" y="578"/>
    </contour>
  </outline>
</glyph>
<glyph name="six" format="1">
  <advance width="438"/>
  <unicode hex="0036"/>
  <outline>
    <contour>
      <point x="258" y="602" type="curve"/>
      <point x="268" y="600"/>
      <point x="281" y="593"/>
      <point x="288" y="585" type="curve"/>
      <point x="199" y="471"/>
      <point x="106" y="344"/>
      <point x="106" y="214" type="curve" smooth="yes"/>
      <point x="106" y="82"/>
      <point x="154" y="30"/>
      <point x="211" y="30" type="curve" smooth="yes"/>
      <point x="290" y="30"/>
      <point x="331" y="82"/>
      <point x="331" y="139" type="curve" smooth="yes"/>
      <point x="331" y="192"/>
      <point x="312" y="240"/>
      <point x="246" y="240" type="curve" smooth="yes"/>
      <point x="220" y="240"/>
      <point x="181" y="231"/>
      <point x="157" y="220" type="curve"/>
      <point x="147" y="228"/>
      <point x="147" y="242"/>
      <point x="147" y="249" type="curve"/>
      <point x="176" y="267"/>
      <point x="227" y="289"/>
      <point x="275" y="289" type="curve" smooth="yes"/>
      <point x="337" y="289"/>
      <point x="401" y="256"/>
      <point x="401" y="152" type="curve" smooth="yes"/>
      <point x="401" y="93"/>
      <point x="324" y="-16"/>
      <point x="191" y="-16" type="curve" smooth="yes"/>
      <point x="60" y="-16"/>
      <point x="37" y="107"/>
      <point x="37" y="183" type="curve" smooth="yes"/>
      <point x="37" y="317"/>
      <point x="138" y="466"/>
    </contour>
  </outline>
</glyph>
<glyph name="seven" format="1">
  <advance width="419"/>
  <unicode hex="0037"/>
  <outline>
    <contour>
      <point x="62" y="-32" type="curve"/>
      <point x="115" y="118"/>
      <point x="215" y="345"/>
      <point x="332" y="512" type="curve"/>
      <point x="255" y="519"/>
      <point x="92" y="512"/>
      <point x="39" y="504" type="curve"/>
      <point x="53" y="539"/>
      <point x="60" y="566"/>
      <point x="65" y="591" type="curve"/>
      <point x="139" y="578"/>
      <point x="334" y="578"/>
      <point x="403" y="583" type="curve"/>
      <point x="410" y="578"/>
      <point x="414" y="573"/>
      <point x="417" y="564" type="curve"/>
      <point x="280" y="395"/>
      <point x="161" y="114"/>
      <point x="154" y="7" type="curve"/>
      <point x="128" y="-2"/>
      <point x="95" y="-15"/>
    </contour>
  </outline>
</glyph>
<glyph name="eight" format="1">
  <advance width="415"/>
  <unicode hex="0038"/>
  <outline>
    <contour>
      <point x="275" y="578" type="curve"/>
      <point x="274" y="569"/>
      <point x="270" y="556"/>
      <point x="263" y="550" type="curve"/>
      <point x="254" y="554"/>
      <point x="237" y="558"/>
      <point x="217" y="558" type="curve" smooth="yes"/>
      <point x="187" y="558"/>
      <point x="149" y="538"/>
      <point x="149" y="493" type="curve" smooth="yes"/>
      <point x="149" y="452"/>
      <point x="186" y="425"/>
      <point x="220" y="400" type="curve"/>
      <point x="272" y="451"/>
      <point x="317" y="514"/>
      <point x="344" y="600" type="curve"/>
      <point x="352" y="602"/>
      <point x="366" y="600"/>
      <point x="373" y="597" type="curve"/>
      <point x="355" y="504"/>
      <point x="332" y="450"/>
      <point x="252" y="378" type="curve"/>
      <point x="265" y="369"/>
      <point x="274" y="363"/>
      <point x="285" y="353" type="curve" smooth="yes"/>
      <point x="345" y="303"/>
      <point x="380" y="246"/>
      <point x="380" y="182" type="curve" smooth="yes"/>
      <point x="379" y="75"/>
      <point x="275" y="-13"/>
      <point x="176" y="-13" type="curve" smooth="yes"/>
      <point x="92" y="-13"/>
      <point x="33" y="32"/>
      <point x="33" y="132" type="curve" smooth="yes"/>
      <point x="33" y="223"/>
      <point x="86" y="288"/>
      <point x="164" y="354" type="curve"/>
      <point x="139" y="376"/>
      <point x="124" y="388"/>
      <point x="109" y="406" type="curve" smooth="yes"/>
      <point x="72" y="449"/>
      <point x="63" y="493"/>
      <point x="116" y="550" type="curve" smooth="yes"/>
      <point x="140" y="576"/>
      <point x="168" y="593"/>
      <point x="220" y="593" type="curve" smooth="yes"/>
      <point x="239" y="593"/>
      <point x="261" y="590"/>
    </contour>
    <contour>
      <point x="199" y="333" type="curve"/>
      <point x="137" y="283"/>
      <point x="97" y="212"/>
      <point x="97" y="158" type="curve" smooth="yes"/>
      <point x="97" y="98"/>
      <point x="133" y="40"/>
      <point x="195" y="40" type="curve" smooth="yes"/>
      <point x="278" y="40"/>
      <point x="313" y="96"/>
      <point x="313" y="137" type="curve" smooth="yes"/>
      <point x="313" y="222"/>
      <point x="280" y="275"/>
    </contour>
  </outline>
</glyph>
<glyph name="nine" format="1">
  <advance width="424"/>
  <unicode hex="0039"/>
  <outline>
    <contour>
      <point x="169" y="-20" type="curve"/>
      <point x="157" y="-20"/>
      <point x="144" y="-11"/>
      <point x="137" y="-2" type="curve"/>
      <point x="234" y="123"/>
      <point x="315" y="237"/>
      <point x="315" y="367" type="curve" smooth="yes"/>
      <point x="315" y="519"/>
      <point x="262" y="556"/>
      <point x="212" y="556" type="curve" smooth="yes"/>
      <point x="152" y="556"/>
      <point x="107" y="518"/>
      <point x="107" y="447" type="curve" smooth="yes"/>
      <point x="107" y="394"/>
      <point x="124" y="345"/>
      <point x="190" y="345" type="curve" smooth="yes"/>
      <point x="216" y="345"/>
      <point x="238" y="350"/>
      <point x="258" y="357" type="curve"/>
      <point x="266" y="349"/>
      <point x="266" y="337"/>
      <point x="267" y="331" type="curve"/>
      <point x="238" y="313"/>
      <point x="209" y="300"/>
      <point x="161" y="300" type="curve" smooth="yes"/>
      <point x="98" y="300"/>
      <point x="37" y="342"/>
      <point x="37" y="434" type="curve" smooth="yes"/>
      <point x="37" y="493"/>
      <point x="101" y="599"/>
      <point x="234" y="599" type="curve" smooth="yes"/>
      <point x="365" y="599"/>
      <point x="386" y="479"/>
      <point x="386" y="403" type="curve" smooth="yes"/>
      <point x="386" y="269"/>
      <point x="273" y="107"/>
    </contour>
  </outline>
</glyph>
<glyph name="colon" format="1">
  <advance width="180"/>
  <unicode hex="003A"/>
  <outline>
    <contour>
      <point x="94" y="67" type="curve" smooth="yes"/>
      <point x="123" y="67"/>
      <point x="138" y="53"/>
      <point x="138" y="33" type="curve" smooth="yes"/>
      <point x="138" y="8"/>
      <point x="107" y="-7"/>
      <point x="79" y="-7" type="curve" smooth="yes"/>
      <point x="58" y="-7"/>
      <point x="42" y="5"/>
      <point x="42" y="23" type="curve" smooth="yes"/>
      <point x="42" y="45"/>
      <point x="68" y="67"/>
    </contour>
    <contour>
      <point x="94" y="350" type="curve" smooth="yes"/>
      <point x="123" y="350"/>
      <point x="138" y="336"/>
      <point x="138" y="316" type="curve" smooth="yes"/>
      <point x="138" y="291"/>
      <point x="107" y="276"/>
      <point x="79" y="276" type="curve" smooth="yes"/>
      <point x="58" y="276"/>
      <point x="42" y="288"/>
      <point x="42" y="306" type="curve" smooth="yes"/>
      <point x="42" y="328"/>
      <point x="68" y="350"/>
    </contour>
  </outline>
</glyph>
<glyph name="semicolon" format="1">
  <advance width="184"/>
  <unicode hex="003B"/>
  <outline>
    <contour>
      <point x="92" y="346" type="curve" smooth="yes"/>
      <point x="120" y="346"/>
      <point x="134" y="334"/>
      <point x="134" y="315" type="curve" smooth="yes"/>
      <point x="134" y="290"/>
      <point x="104" y="276"/>
      <point x="77" y="276" type="curve" smooth="yes"/>
      <point x="57" y="276"/>
      <point x="42" y="287"/>
      <point x="42" y="305" type="curve" smooth="yes"/>
      <point x="42" y="326"/>
      <point x="67" y="346"/>
    </contour>
    <contour>
      <point x="94" y="96" type="curve" smooth="yes"/>
      <point x="117" y="96"/>
      <point x="135" y="68"/>
      <point x="135" y="29" type="curve" smooth="yes"/>
      <point x="135" y="-19"/>
      <point x="89" y="-108"/>
      <point x="48" y="-183" type="curve"/>
      <point x="39" y="-180"/>
      <point x="32" y="-176"/>
      <point x="25" y="-171" type="curve"/>
      <point x="53" y="-112"/>
      <point x="67" y="-68"/>
      <point x="67" y="-28" type="curve" smooth="yes"/>
      <point x="67" y="6"/>
      <point x="50" y="22"/>
      <point x="50" y="51" type="curve" smooth="yes"/>
      <point x="50" y="68"/>
      <point x="68" y="96"/>
    </contour>
  </outline>
</glyph>
<glyph name="less" format="1">
  <advance width="416"/>
  <unicode hex="003C"/>
  <outline>
    <contour>
      <point x="52" y="210" type="curve"/>
      <point x="160" y="266"/>
      <point x="304" y="347"/>
      <point x="347" y="375" type="curve"/>
      <point x="357" y="366"/>
      <point x="361" y="350"/>
      <point x="365" y="340" type="curve"/>
      <point x="303" y="306"/>
      <point x="176" y="238"/>
      <point x="114" y="202" type="curve"/>
      <point x="179" y="164"/>
      <point x="293" y="92"/>
      <point x="360" y="54" type="curve"/>
      <point x="356" y="42"/>
      <point x="352" y="27"/>
      <point x="340" y="20" type="curve"/>
      <point x="280" y="58"/>
      <point x="153" y="136"/>
      <point x="52" y="193" type="curve"/>
      <point x="51" y="199"/>
      <point x="51" y="205"/>
    </contour>
  </outline>
</glyph>
<glyph name="equal" format="1">
  <advance width="416"/>
  <unicode hex="003D"/>
  <outline>
    <contour>
      <point x="52" y="298" type="curve"/>
      <point x="153" y="295"/>
      <point x="293" y="295"/>
      <point x="368" y="296" type="curve"/>
      <point x="369" y="285"/>
      <point x="367" y="269"/>
      <point x="362" y="259" type="curve"/>
      <point x="266" y="262"/>
      <point x="174" y="263"/>
      <point x="49" y="262" type="curve"/>
      <point x="46" y="270"/>
      <point x="50" y="292"/>
    </contour>
    <contour>
      <point x="52" y="185" type="curve"/>
      <point x="153" y="183"/>
      <point x="293" y="183"/>
      <point x="368" y="184" type="curve"/>
      <point x="369" y="173"/>
      <point x="367" y="157"/>
      <point x="362" y="147" type="curve"/>
      <point x="266" y="149"/>
      <point x="174" y="150"/>
      <point x="49" y="149" type="curve"/>
      <point x="46" y="158"/>
      <point x="50" y="179"/>
    </contour>
  </outline>
</glyph>
<glyph name="greater" format="1">
  <advance width="416"/>
  <unicode hex="003E"/>
  <outline>
    <contour>
      <point x="364" y="185" type="curve"/>
      <point x="256" y="129"/>
      <point x="112" y="48"/>
      <point x="69" y="20" type="curve"/>
      <point x="59" y="29"/>
      <point x="55" y="45"/>
      <point x="52" y="56" type="curve"/>
      <point x="113" y="89"/>
      <point x="241" y="157"/>
      <point x="302" y="193" type="curve"/>
      <point x="238" y="232"/>
      <point x="123" y="303"/>
      <point x="56" y="342" type="curve"/>
      <point x="60" y="353"/>
      <point x="64" y="368"/>
      <point x="77" y="375" type="curve"/>
      <point x="136" y="337"/>
      <point x="263" y="259"/>
      <point x="364" y="203" type="curve"/>
      <point x="365" y="197"/>
      <point x="365" y="191"/>
    </contour>
  </outline>
</glyph>
<glyph name="question" format="1">
  <advance width="262"/>
  <unicode hex="003F"/>
  <outline>
    <contour>
      <point x="98" y="151" type="curve"/>
      <point x="84" y="194"/>
      <point x="77" y="228"/>
      <point x="77" y="265" type="curve"/>
      <point x="79" y="334"/>
      <point x="156" y="374"/>
      <point x="156" y="445" type="curve" smooth="yes"/>
      <point x="156" y="495"/>
      <point x="109" y="539"/>
      <point x="66" y="574" type="curve"/>
      <point x="72" y="583"/>
      <point x="78" y="593"/>
      <point x="87" y="601" type="curve"/>
      <point x="161" y="545"/>
      <point x="216" y="477"/>
      <point x="216" y="429" type="curve" smooth="yes"/>
      <point x="216" y="344"/>
      <point x="125" y="295"/>
      <point x="122" y="218" type="curve" smooth="yes"/>
      <point x="121" y="205"/>
      <point x="124" y="179"/>
      <point x="132" y="159" type="curve"/>
      <point x="122" y="155"/>
      <point x="109" y="153"/>
    </contour>
    <contour>
      <point x="122" y="67" type="curve" smooth="yes"/>
      <point x="151" y="67"/>
      <point x="166" y="53"/>
      <point x="166" y="33" type="curve" smooth="yes"/>
      <point x="166" y="8"/>
      <point x="135" y="-7"/>
      <point x="107" y="-7" type="curve" smooth="yes"/>
      <point x="86" y="-7"/>
      <point x="69" y="5"/>
      <point x="69" y="23" type="curve" smooth="yes"/>
      <point x="69" y="45"/>
      <point x="96" y="67"/>
    </contour>
  </outline>
</glyph>
<glyph name="at" format="1">
  <advance width="741"/>
  <unicode hex="0040"/>
  <outline>
    <contour>
      <point x="446" y="-113" type="curve"/>
      <point x="458" y="-146" type="line"/>
      <point x="422" y="-158"/>
      <point x="344" y="-180"/>
      <point x="306" y="-180" type="curve" smooth="yes"/>
      <point x="124" y="-180"/>
      <point x="38" y="-63"/>
      <point x="38" y="113" type="curve" smooth="yes"/>
      <point x="38" y="382"/>
      <point x="272" y="558"/>
      <point x="480" y="558" type="curve" smooth="yes"/>
      <point x="588" y="558"/>
      <point x="704" y="505"/>
      <point x="704" y="344" type="curve" smooth="yes"/>
      <point x="704" y="206"/>
      <point x="624" y="109"/>
      <point x="454" y="-12" type="curve"/>
      <point x="434" y="2"/>
      <point x="416" y="47"/>
      <point x="416" y="95" type="curve" smooth="yes"/>
      <point x="416" y="113"/>
      <point x="417" y="131"/>
      <point x="420" y="149" type="curve"/>
      <point x="365" y="109"/>
      <point x="285" y="39"/>
      <point x="230" y="-12" type="curve"/>
      <point x="209" y="2"/>
      <point x="193" y="47"/>
      <point x="193" y="95" type="curve" smooth="yes"/>
      <point x="193" y="185"/>
      <point x="245" y="286"/>
      <point x="309" y="337" type="curve" smooth="yes"/>
      <point x="354" y="373"/>
      <point x="412" y="384"/>
      <point x="437" y="385" type="curve"/>
      <point x="480" y="385"/>
      <point x="516" y="385"/>
      <point x="550" y="384" type="curve"/>
      <point x="530" y="357"/>
      <point x="501" y="262"/>
      <point x="487" y="168" type="curve" smooth="yes"/>
      <point x="482" y="133"/>
      <point x="480" y="97"/>
      <point x="498" y="68" type="curve"/>
      <point x="583" y="130"/>
      <point x="660" y="211"/>
      <point x="660" y="344" type="curve" smooth="yes"/>
      <point x="660" y="477"/>
      <point x="569" y="521"/>
      <point x="474" y="521" type="curve" smooth="yes"/>
      <point x="280" y="521"/>
      <point x="84" y="358"/>
      <point x="84" y="117" type="curve" smooth="yes"/>
      <point x="84" y="-49"/>
      <point x="163" y="-140"/>
      <point x="313" y="-140" type="curve" smooth="yes"/>
      <point x="351" y="-140"/>
      <point x="422" y="-121"/>
    </contour>
    <contour>
      <point x="462" y="347" type="curve"/>
      <point x="419" y="352"/>
      <point x="376" y="341"/>
      <point x="341" y="312" type="curve"/>
      <point x="287" y="265"/>
      <point x="263" y="199"/>
      <point x="262" y="147" type="curve" smooth="yes"/>
      <point x="261" y="117"/>
      <point x="262" y="103"/>
      <point x="274" y="78" type="curve"/>
      <point x="304" y="99"/>
      <point x="411" y="183"/>
      <point x="430" y="202" type="curve"/>
      <point x="438" y="228"/>
      <point x="460" y="316"/>
    </contour>
  </outline>
</glyph>
<glyph name="B" format="1">
  <advance width="459"/>
  <unicode hex="0042"/>
  <outline>
    <contour>
      <point x="55" y="582" type="curve"/>
      <point x="91" y="578"/>
      <point x="151" y="583"/>
      <point x="196" y="583" type="curve" smooth="yes"/>
      <point x="284" y="584"/>
      <point x="386" y="573"/>
      <point x="386" y="477" type="curve" smooth="yes"/>
      <point x="386" y="435"/>
      <point x="351" y="376"/>
      <point x="293" y="349" type="curve"/>
      <point x="294" y="346" type="line"/>
      <point x="376" y="348"/>
      <point x="434" y="308"/>
      <point x="434" y="217" type="curve" smooth="yes"/>
      <point x="434" y="100"/>
      <point x="297" y="0"/>
      <point x="155" y="-2" type="curve" smooth="yes"/>
      <point x="120" y="-2"/>
      <point x="87" y="-4"/>
      <point x="48" y="-1" type="curve"/>
      <point x="57" y="204"/>
      <point x="59" y="470"/>
    </contour>
    <contour>
      <point x="127" y="546" type="curve"/>
      <point x="122" y="340"/>
      <point x="121" y="227"/>
      <point x="127" y="40" type="curve"/>
      <point x="137" y="38"/>
      <point x="147" y="37"/>
      <point x="159" y="37" type="curve" smooth="yes"/>
      <point x="252" y="38"/>
      <point x="367" y="105"/>
      <point x="364" y="214" type="curve" smooth="yes"/>
      <point x="362" y="282"/>
      <point x="324" y="315"/>
      <point x="252" y="315" type="curve" smooth="yes"/>
      <point x="241" y="315"/>
      <point x="220" y="313"/>
      <point x="205" y="310" type="curve"/>
      <point x="202" y="315"/>
      <point x="199" y="329"/>
      <point x="199" y="336" type="curve"/>
      <point x="257" y="354"/>
      <point x="315" y="403"/>
      <point x="315" y="470" type="curve" smooth="yes"/>
      <point x="315" y="515"/>
      <point x="275" y="544"/>
      <point x="203" y="548" type="curve" smooth="yes"/>
      <point x="182" y="549"/>
      <point x="152" y="548"/>
    </contour>
  </outline>
</glyph>
<glyph name="D" format="1">
  <advance width="557"/>
  <unicode hex="0044"/>
  <outline>
    <contour>
      <point x="253" y="582" type="curve" smooth="yes"/>
      <point x="388" y="580"/>
      <point x="529" y="518"/>
      <point x="529" y="379" type="curve" smooth="yes"/>
      <point x="529" y="158"/>
      <point x="331" y="5"/>
      <point x="167" y="1" type="curve" smooth="yes"/>
      <point x="129" y="0"/>
      <point x="99" y="-1"/>
      <point x="48" y="3" type="curve"/>
      <point x="62" y="61"/>
      <point x="71" y="395"/>
      <point x="64" y="583" type="curve"/>
      <point x="106" y="581"/>
      <point x="226" y="582"/>
    </contour>
    <contour>
      <point x="138" y="546" type="curve"/>
      <point x="132" y="395"/>
      <point x="130" y="204"/>
      <point x="135" y="43" type="curve"/>
      <point x="147" y="42"/>
      <point x="158" y="42"/>
      <point x="172" y="42" type="curve" smooth="yes"/>
      <point x="306" y="42"/>
      <point x="453" y="186"/>
      <point x="453" y="335" type="curve" smooth="yes"/>
      <point x="453" y="485"/>
      <point x="356" y="539"/>
      <point x="236" y="545" type="curve" smooth="yes"/>
      <point x="201" y="547"/>
      <point x="161" y="547"/>
    </contour>
  </outline>
</glyph>
<glyph name="E" format="1">
  <advance width="426"/>
  <unicode hex="0045"/>
  <outline>
    <contour>
      <point x="55" y="583" type="curve"/>
      <point x="140" y="580"/>
      <point x="277" y="581"/>
      <point x="392" y="583" type="curve"/>
      <point x="390" y="551" type="line"/>
      <point x="289" y="549"/>
      <point x="228" y="546"/>
      <point x="136" y="539" type="curve"/>
      <point x="132" y="500"/>
      <point x="131" y="372"/>
      <point x="131" y="349" type="curve"/>
      <point x="208" y="347"/>
      <point x="276" y="347"/>
      <point x="353" y="350" type="curve"/>
      <point x="355" y="317" type="line"/>
      <point x="291" y="315"/>
      <point x="196" y="310"/>
      <point x="130" y="304" type="curve"/>
      <point x="129" y="245"/>
      <point x="131" y="111"/>
      <point x="133" y="47" type="curve"/>
      <point x="208" y="37"/>
      <point x="292" y="35"/>
      <point x="409" y="32" type="curve"/>
      <point x="412" y="-2" type="line"/>
      <point x="178" y="1"/>
      <point x="162" y="1"/>
      <point x="48" y="-2" type="curve"/>
      <point x="61" y="83"/>
      <point x="64" y="531"/>
    </contour>
  </outline>
</glyph>
<glyph name="F" format="1">
  <advance width="410"/>
  <unicode hex="0046"/>
  <outline>
    <contour>
      <point x="407" y="582" type="curve"/>
      <point x="403" y="549" type="line"/>
      <point x="303" y="546"/>
      <point x="230" y="543"/>
      <point x="137" y="536" type="curve"/>
      <point x="135" y="512"/>
      <point x="130" y="421"/>
      <point x="132" y="347" type="curve"/>
      <point x="211" y="347"/>
      <point x="274" y="350"/>
      <point x="350" y="354" type="curve"/>
      <point x="350" y="322" type="line"/>
      <point x="326" y="321"/>
      <point x="197" y="313"/>
      <point x="130" y="303" type="curve"/>
      <point x="128" y="245"/>
      <point x="128" y="52"/>
      <point x="137" y="-2" type="curve"/>
      <point x="112" y="2"/>
      <point x="72" y="3"/>
      <point x="48" y="0" type="curve"/>
      <point x="60" y="117"/>
      <point x="62" y="424"/>
      <point x="57" y="583" type="curve"/>
      <point x="141" y="579"/>
      <point x="292" y="579"/>
    </contour>
  </outline>
</glyph>
<glyph name="I" format="1">
  <advance width="184"/>
  <unicode hex="0049"/>
  <outline>
    <contour>
      <point x="55" y="583" type="curve"/>
      <point x="72" y="579"/>
      <point x="114" y="581"/>
      <point x="136" y="583" type="curve"/>
      <point x="121" y="387"/>
      <point x="122" y="146"/>
      <point x="130" y="-2" type="curve"/>
      <point x="104" y="1"/>
      <point x="72" y="3"/>
      <point x="48" y="0" type="curve"/>
      <point x="61" y="133"/>
      <point x="62" y="424"/>
    </contour>
  </outline>
</glyph>
<glyph name="K" format="1">
  <advance width="567"/>
  <unicode hex="004B"/>
  <outline>
    <contour>
      <point x="136" y="583" type="curve"/>
      <point x="132" y="517"/>
      <point x="128" y="443"/>
      <point x="128" y="391" type="curve"/>
      <point x="243" y="442"/>
      <point x="414" y="531"/>
      <point x="519" y="601" type="curve"/>
      <point x="504" y="567"/>
      <point x="491" y="533"/>
      <point x="485" y="506" type="curve"/>
      <point x="423" y="483"/>
      <point x="340" y="447"/>
      <point x="303" y="429" type="curve"/>
      <point x="375" y="292"/>
      <point x="481" y="102"/>
      <point x="561" y="-1" type="curve"/>
      <point x="519" y="2"/>
      <point x="486" y="3"/>
      <point x="453" y="-2" type="curve"/>
      <point x="400" y="122"/>
      <point x="300" y="303"/>
      <point x="241" y="402" type="curve"/>
      <point x="204" y="385"/>
      <point x="173" y="373"/>
      <point x="126" y="350" type="curve"/>
      <point x="123" y="218"/>
      <point x="126" y="91"/>
      <point x="131" y="-2" type="curve"/>
      <point x="105" y="1"/>
      <point x="72" y="3"/>
      <point x="48" y="0" type="curve"/>
      <point x="61" y="133"/>
      <point x="62" y="424"/>
      <point x="55" y="583" type="curve"/>
      <point x="72" y="579"/>
      <point x="115" y="581"/>
    </contour>
  </outline>
</glyph>
<glyph name="L" format="1">
  <advance width="406"/>
  <unicode hex="004C"/>
  <outline>
    <contour>
      <point x="57" y="583" type="curve"/>
      <point x="75" y="579"/>
      <point x="115" y="581"/>
      <point x="136" y="583" type="curve"/>
      <point x="125" y="410"/>
      <point x="124" y="223"/>
      <point x="129" y="47" type="curve"/>
      <point x="204" y="37"/>
      <point x="282" y="34"/>
      <point x="400" y="31" type="curve"/>
      <point x="395" y="-2" type="line"/>
      <point x="161" y="1"/>
      <point x="162" y="1"/>
      <point x="48" y="-2" type="curve"/>
      <point x="60" y="104"/>
      <point x="65" y="451"/>
    </contour>
  </outline>
</glyph>
<glyph name="M" format="1">
  <advance width="808"/>
  <unicode hex="004D"/>
  <outline>
    <contour>
      <point x="10" y="-3" type="curve"/>
      <point x="79" y="138"/>
      <point x="134" y="310"/>
      <point x="179" y="452" type="curve" smooth="yes"/>
      <point x="189" y="483"/>
      <point x="205" y="554"/>
      <point x="205" y="583" type="curve"/>
      <point x="215" y="586"/>
      <point x="223" y="586"/>
      <point x="236" y="592" type="curve"/>
      <point x="259" y="507"/>
      <point x="365" y="224"/>
      <point x="411" y="113" type="curve"/>
      <point x="459" y="205"/>
      <point x="553" y="414"/>
      <point x="568" y="454" type="curve" smooth="yes"/>
      <point x="592" y="515"/>
      <point x="599" y="537"/>
      <point x="609" y="582" type="curve"/>
      <point x="621" y="583"/>
      <point x="630" y="586"/>
      <point x="640" y="589" type="curve"/>
      <point x="671" y="439"/>
      <point x="765" y="56"/>
      <point x="788" y="-2" type="curve"/>
      <point x="761" y="3"/>
      <point x="710" y="1"/>
      <point x="690" y="-2" type="curve"/>
      <point x="681" y="109"/>
      <point x="632" y="329"/>
      <point x="607" y="443" type="curve"/>
      <point x="546" y="299"/>
      <point x="459" y="127"/>
      <point x="416" y="3" type="curve"/>
      <point x="408" y="-2"/>
      <point x="387" y="-9"/>
      <point x="373" y="-17" type="curve"/>
      <point x="300" y="205"/>
      <point x="270" y="293"/>
      <point x="216" y="441" type="curve"/>
      <point x="171" y="293"/>
      <point x="123" y="124"/>
      <point x="97" y="3" type="curve"/>
      <point x="70" y="3"/>
      <point x="41" y="0"/>
    </contour>
  </outline>
</glyph>
<glyph name="N" format="1">
  <advance width="608"/>
  <unicode hex="004E"/>
  <outline>
    <contour>
      <point x="548" y="3" type="curve"/>
      <point x="524" y="-7" type="line"/>
      <point x="390" y="157"/>
      <point x="180" y="376"/>
      <point x="104" y="459" type="curve"/>
      <point x="102" y="325"/>
      <point x="123" y="42"/>
      <point x="129" y="9" type="curve"/>
      <point x="103" y="5"/>
      <point x="79" y="2"/>
      <point x="47" y="-14" type="curve"/>
      <point x="63" y="98"/>
      <point x="67" y="400"/>
      <point x="65" y="582" type="curve"/>
      <point x="88" y="593" type="line"/>
      <point x="197" y="451"/>
      <point x="372" y="278"/>
      <point x="501" y="144" type="curve"/>
      <point x="501" y="316"/>
      <point x="494" y="475"/>
      <point x="482" y="575" type="curve"/>
      <point x="503" y="579"/>
      <point x="539" y="587"/>
      <point x="560" y="596" type="curve"/>
      <point x="546" y="558"/>
      <point x="538" y="313"/>
      <point x="540" y="103" type="curve" smooth="yes"/>
      <point x="540" y="76"/>
      <point x="543" y="36"/>
    </contour>
  </outline>
</glyph>
<glyph name="O" format="1">
  <advance width="662"/>
  <unicode hex="004F"/>
  <outline>
    <contour>
      <point x="357" y="594" type="curve" smooth="yes"/>
      <point x="511" y="594"/>
      <point x="625" y="482"/>
      <point x="626" y="315" type="curve" smooth="yes"/>
      <point x="626" y="211"/>
      <point x="573" y="108"/>
      <point x="489" y="43" type="curve" smooth="yes"/>
      <point x="449" y="12"/>
      <point x="360" y="-17"/>
      <point x="297" y="-17" type="curve" smooth="yes"/>
      <point x="96" y="-17"/>
      <point x="35" y="160"/>
      <point x="35" y="276" type="curve"/>
      <point x="37" y="359"/>
      <point x="79" y="478"/>
      <point x="181" y="542" type="curve" smooth="yes"/>
      <point x="221" y="568"/>
      <point x="300" y="594"/>
    </contour>
    <contour>
      <point x="343" y="549" type="curve" smooth="yes"/>
      <point x="224" y="549"/>
      <point x="112" y="462"/>
      <point x="112" y="278" type="curve" smooth="yes"/>
      <point x="112" y="139"/>
      <point x="206" y="30"/>
      <point x="320" y="30" type="curve" smooth="yes"/>
      <point x="443" y="30"/>
      <point x="551" y="136"/>
      <point x="551" y="311" type="curve" smooth="yes"/>
      <point x="551" y="499"/>
      <point x="414" y="549"/>
    </contour>
  </outline>
</glyph>
<glyph name="P" format="1">
  <advance width="449"/>
  <unicode hex="0050"/>
  <outline>
    <contour>
      <point x="48" y="-1" type="curve"/>
      <point x="62" y="83"/>
      <point x="61" y="505"/>
      <point x="52" y="583" type="curve"/>
      <point x="90" y="579"/>
      <point x="136" y="583"/>
      <point x="216" y="583" type="curve" smooth="yes"/>
      <point x="339" y="583"/>
      <point x="424" y="566"/>
      <point x="424" y="452" type="curve" smooth="yes"/>
      <point x="424" y="386"/>
      <point x="337" y="313"/>
      <point x="192" y="277" type="curve" smooth="yes"/>
      <point x="189" y="277"/>
      <point x="182" y="305"/>
      <point x="182" y="309" type="curve"/>
      <point x="274" y="337"/>
      <point x="348" y="374"/>
      <point x="348" y="456" type="curve" smooth="yes"/>
      <point x="348" y="521"/>
      <point x="290" y="543"/>
      <point x="221" y="546" type="curve" smooth="yes"/>
      <point x="174" y="548"/>
      <point x="142" y="545"/>
      <point x="125" y="543" type="curve"/>
      <point x="117" y="432"/>
      <point x="131" y="54"/>
      <point x="135" y="-1" type="curve"/>
      <point x="116" y="2"/>
      <point x="72" y="2"/>
    </contour>
  </outline>
</glyph>
<glyph name="Q" format="1">
  <advance width="672"/>
  <unicode hex="0051"/>
  <outline>
    <contour>
      <point x="357" y="594" type="curve" smooth="yes"/>
      <point x="515" y="594"/>
      <point x="626" y="480"/>
      <point x="626" y="317" type="curve" smooth="yes"/>
      <point x="626" y="212"/>
      <point x="575" y="111"/>
      <point x="490" y="47" type="curve" smooth="yes"/>
      <point x="463" y="26"/>
      <point x="415" y="5"/>
      <point x="370" y="-5" type="curve"/>
      <point x="457" y="-57"/>
      <point x="587" y="-111"/>
      <point x="675" y="-131" type="curve"/>
      <point x="625" y="-151"/>
      <point x="589" y="-170"/>
      <point x="559" y="-188" type="curve"/>
      <point x="471" y="-119"/>
      <point x="402" y="-69"/>
      <point x="314" y="-13" type="curve"/>
      <point x="108" y="-21"/>
      <point x="32" y="157"/>
      <point x="35" y="278" type="curve" smooth="yes"/>
      <point x="37" y="360"/>
      <point x="79" y="479"/>
      <point x="181" y="542" type="curve" smooth="yes"/>
      <point x="222" y="567"/>
      <point x="306" y="594"/>
    </contour>
    <contour>
      <point x="343" y="549" type="curve" smooth="yes"/>
      <point x="224" y="549"/>
      <point x="112" y="462"/>
      <point x="112" y="278" type="curve" smooth="yes"/>
      <point x="112" y="139"/>
      <point x="206" y="30"/>
      <point x="320" y="30" type="curve" smooth="yes"/>
      <point x="443" y="30"/>
      <point x="551" y="136"/>
      <point x="551" y="311" type="curve" smooth="yes"/>
      <point x="551" y="499"/>
      <point x="414" y="549"/>
    </contour>
  </outline>
</glyph>
<glyph name="T" format="1">
  <advance width="441"/>
  <unicode hex="0054"/>
  <outline>
    <contour>
      <point x="6" y="583" type="curve"/>
      <point x="198" y="578"/>
      <point x="264" y="579"/>
      <point x="436" y="583" type="curve"/>
      <point x="439" y="575"/>
      <point x="438" y="562"/>
      <point x="437" y="551" type="curve"/>
      <point x="369" y="544"/>
      <point x="305" y="542"/>
      <point x="256" y="535" type="curve"/>
      <point x="252" y="442"/>
      <point x="251" y="201"/>
      <point x="262" y="-2" type="curve"/>
      <point x="236" y="2"/>
      <point x="214" y="2"/>
      <point x="177" y="-1" type="curve"/>
      <point x="185" y="46"/>
      <point x="190" y="482"/>
      <point x="186" y="534" type="curve"/>
      <point x="139" y="542"/>
      <point x="87" y="543"/>
      <point x="5" y="549" type="curve"/>
      <point x="3" y="557"/>
      <point x="2" y="571"/>
    </contour>
  </outline>
</glyph>
<glyph name="U" format="1">
  <advance width="579"/>
  <unicode hex="0055"/>
  <outline>
    <contour>
      <point x="35" y="582" type="curve"/>
      <point x="72" y="580"/>
      <point x="95" y="580"/>
      <point x="124" y="584" type="curve"/>
      <point x="119" y="454"/>
      <point x="131" y="305"/>
      <point x="149" y="182" type="curve" smooth="yes"/>
      <point x="161" y="102"/>
      <point x="209" y="33"/>
      <point x="293" y="33" type="curve" smooth="yes"/>
      <point x="388" y="33"/>
      <point x="440" y="98"/>
      <point x="457" y="192" type="curve" smooth="yes"/>
      <point x="476" y="303"/>
      <point x="480" y="494"/>
      <point x="472" y="573" type="curve"/>
      <point x="499" y="578"/>
      <point x="529" y="588"/>
      <point x="554" y="601" type="curve"/>
      <point x="538" y="487"/>
      <point x="522" y="328"/>
      <point x="504" y="215" type="curve" smooth="yes"/>
      <point x="484" y="86"/>
      <point x="422" y="-14"/>
      <point x="284" y="-14" type="curve" smooth="yes"/>
      <point x="154" y="-14"/>
      <point x="94" y="48"/>
      <point x="72" y="204" type="curve"/>
      <point x="55" y="337"/>
      <point x="52" y="468"/>
    </contour>
  </outline>
</glyph>
<glyph name="W" format="1">
  <advance width="862"/>
  <unicode hex="0057"/>
  <outline>
    <contour>
      <point x="26" y="584" type="curve"/>
      <point x="64" y="579"/>
      <point x="84" y="580"/>
      <point x="123" y="585" type="curve"/>
      <point x="146" y="443"/>
      <point x="185" y="283"/>
      <point x="234" y="118" type="curve"/>
      <point x="292" y="243"/>
      <point x="396" y="457"/>
      <point x="433" y="576" type="curve"/>
      <point x="444" y="583"/>
      <point x="461" y="590"/>
      <point x="480" y="595" type="curve"/>
      <point x="508" y="453"/>
      <point x="556" y="288"/>
      <point x="605" y="124" type="curve"/>
      <point x="663" y="249"/>
      <point x="748" y="456"/>
      <point x="781" y="575" type="curve"/>
      <point x="806" y="578"/>
      <point x="844" y="584"/>
      <point x="870" y="595" type="curve"/>
      <point x="834" y="543"/>
      <point x="683" y="206"/>
      <point x="664" y="165" type="curve" smooth="yes"/>
      <point x="628" y="86"/>
      <point x="624" y="77"/>
      <point x="604" y="-2" type="curve"/>
      <point x="595" y="-11"/>
      <point x="580" y="-22"/>
      <point x="563" y="-28" type="curve"/>
      <point x="517" y="166"/>
      <point x="473" y="314"/>
      <point x="430" y="455" type="curve"/>
      <point x="375" y="337"/>
      <point x="296" y="163"/>
      <point x="283" y="136" type="curve" smooth="yes"/>
      <point x="263" y="95"/>
      <point x="243" y="42"/>
      <point x="232" y="-1" type="curve"/>
      <point x="216" y="-15"/>
      <point x="204" y="-20"/>
      <point x="187" y="-27" type="curve"/>
      <point x="141" y="180"/>
      <point x="89" y="401"/>
    </contour>
  </outline>
</glyph>
<glyph name="X" format="1">
  <advance width="604"/>
  <unicode hex="0058"/>
  <outline>
    <contour>
      <point x="206" y="583" type="curve"/>
      <point x="247" y="501"/>
      <point x="286" y="434"/>
      <point x="322" y="375" type="curve"/>
      <point x="383" y="449"/>
      <point x="427" y="514"/>
      <point x="454" y="575" type="curve"/>
      <point x="478" y="576"/>
      <point x="522" y="582"/>
      <point x="561" y="592" type="curve"/>
      <point x="502" y="539"/>
      <point x="392" y="409"/>
      <point x="344" y="345" type="curve"/>
      <point x="413" y="236"/>
      <point x="489" y="109"/>
      <point x="575" y="-1" type="curve"/>
      <point x="549" y="2"/>
      <point x="485" y="2"/>
      <point x="458" y="-1" type="curve"/>
      <point x="417" y="97"/>
      <point x="330" y="242"/>
      <point x="298" y="293" type="curve"/>
      <point x="249" y="232"/>
      <point x="147" y="85"/>
      <point x="111" y="8" type="curve"/>
      <point x="72" y="2"/>
      <point x="35" y="1"/>
      <point x="-15" y="-17" type="curve"/>
      <point x="74" y="70"/>
      <point x="217" y="243"/>
      <point x="277" y="325" type="curve"/>
      <point x="237" y="394"/>
      <point x="105" y="573"/>
      <point x="89" y="583" type="curve"/>
      <point x="113" y="580"/>
      <point x="167" y="577"/>
    </contour>
  </outline>
</glyph>
<glyph name="backslash" format="1">
  <advance width="299"/>
  <unicode hex="005C"/>
  <outline>
    <contour>
      <point x="22" y="600" type="curve"/>
      <point x="27" y="604"/>
      <point x="55" y="606"/>
      <point x="65" y="605" type="curve"/>
      <point x="134" y="391"/>
      <point x="207" y="172"/>
      <point x="278" y="-42" type="curve"/>
      <point x="268" y="-47"/>
      <point x="246" y="-46"/>
      <point x="235" y="-46" type="curve"/>
      <point x="166" y="168"/>
      <point x="94" y="386"/>
    </contour>
  </outline>
</glyph>
<glyph name="bracketright" format="1">
  <advance width="242"/>
  <unicode hex="005D"/>
  <outline>
    <contour>
      <point x="194" y="583" type="curve"/>
      <point x="181" y="459"/>
      <point x="179" y="42"/>
      <point x="188" y="-66" type="curve"/>
      <point x="144" y="-69"/>
      <point x="82" y="-79"/>
      <point x="34" y="-88" type="curve"/>
      <point x="31" y="-81"/>
      <point x="29" y="-65"/>
      <point x="30" y="-55" type="curve"/>
      <point x="62" y="-49"/>
      <point x="82" y="-45"/>
      <point x="112" y="-32" type="curve"/>
      <point x="121" y="127"/>
      <point x="116" y="380"/>
      <point x="116" y="544" type="curve"/>
      <point x="96" y="546"/>
      <point x="62" y="547"/>
      <point x="42" y="547" type="curve"/>
      <point x="40" y="557"/>
      <point x="39" y="572"/>
      <point x="41" y="582" type="curve"/>
      <point x="94" y="579"/>
      <point x="138" y="579"/>
    </contour>
  </outline>
</glyph>
<glyph name="asciicircum" format="1">
  <advance width="375"/>
  <unicode hex="005E"/>
  <outline>
    <contour>
      <point x="204" y="592" type="curve"/>
      <point x="247" y="506"/>
      <point x="305" y="391"/>
      <point x="327" y="356" type="curve"/>
      <point x="320" y="348"/>
      <point x="298" y="344"/>
      <point x="287" y="342" type="curve"/>
      <point x="260" y="402"/>
      <point x="223" y="476"/>
      <point x="195" y="526" type="curve"/>
      <point x="161" y="475"/>
      <point x="114" y="395"/>
      <point x="85" y="342" type="curve"/>
      <point x="73" y="345"/>
      <point x="55" y="352"/>
      <point x="49" y="363" type="curve"/>
      <point x="82" y="410"/>
      <point x="144" y="511"/>
      <point x="188" y="592" type="curve"/>
      <point x="193" y="593"/>
      <point x="200" y="593"/>
    </contour>
  </outline>
</glyph>
<glyph name="underscore" format="1">
  <advance width="529"/>
  <unicode hex="005F"/>
  <outline>
    <contour>
      <point x="5" y="-89" type="curve"/>
      <point x="231" y="-92"/>
      <point x="303" y="-92"/>
      <point x="528" y="-91" type="curve"/>
      <point x="529" y="-102"/>
      <point x="527" y="-120"/>
      <point x="522" y="-130" type="curve"/>
      <point x="296" y="-128"/>
      <point x="226" y="-127"/>
      <point x="2" y="-127" type="curve"/>
      <point x="-2" y="-119"/>
      <point x="2" y="-95"/>
    </contour>
  </outline>
</glyph>
<glyph name="grave" format="1">
  <advance width="416"/>
  <unicode hex="0060"/>
  <outline>
    <contour>
      <point x="134" y="562" type="curve"/>
      <point x="171" y="539"/>
      <point x="250" y="505"/>
      <point x="309" y="478" type="curve"/>
      <point x="307" y="469"/>
      <point x="303" y="462"/>
      <point x="297" y="453" type="curve"/>
      <point x="232" y="473"/>
      <point x="184" y="486"/>
      <point x="115" y="499" type="curve"/>
      <point x="124" y="518"/>
      <point x="132" y="543"/>
    </contour>
  </outline>
</glyph>
<glyph name="b" format="1">
  <advance width="461"/>
  <unicode hex="0062"/>
  <outline>
    <contour>
      <point x="49" y="670" type="curve"/>
      <point x="79" y="677"/>
      <point x="120" y="687"/>
      <point x="142" y="697" type="curve"/>
      <point x="129" y="593"/>
      <point x="128" y="463"/>
      <point x="127" y="348" type="curve"/>
      <point x="174" y="370"/>
      <point x="236" y="391"/>
      <point x="290" y="391" type="curve" smooth="yes"/>
      <point x="374" y="391"/>
      <point x="419" y="344"/>
      <point x="424" y="245" type="curve" smooth="yes"/>
      <point x="429" y="130"/>
      <point x="352" y="-11"/>
      <point x="196" y="-11" type="curve" smooth="yes"/>
      <point x="131" y="-11"/>
      <point x="64" y="17"/>
      <point x="47" y="33" type="curve"/>
      <point x="67" y="233"/>
      <point x="69" y="603"/>
    </contour>
    <contour>
      <point x="127" y="54" type="curve"/>
      <point x="157" y="30"/>
      <point x="179" y="27"/>
      <point x="204" y="27" type="curve" smooth="yes"/>
      <point x="271" y="27"/>
      <point x="359" y="70"/>
      <point x="358" y="227" type="curve" smooth="yes"/>
      <point x="357" y="300"/>
      <point x="315" y="342"/>
      <point x="255" y="342" type="curve" smooth="yes"/>
      <point x="214" y="342"/>
      <point x="159" y="328"/>
      <point x="126" y="310" type="curve"/>
      <point x="123" y="256"/>
      <point x="124" y="91"/>
    </contour>
  </outline>
</glyph>
<glyph name="c" format="1">
  <advance width="377"/>
  <unicode hex="0063"/>
  <outline>
    <contour>
      <point x="325" y="371" type="curve"/>
      <point x="321" y="362"/>
      <point x="316" y="346"/>
      <point x="310" y="339" type="curve"/>
      <point x="299" y="343"/>
      <point x="273" y="350"/>
      <point x="253" y="350" type="curve" smooth="yes"/>
      <point x="146" y="350"/>
      <point x="99" y="270"/>
      <point x="99" y="168" type="curve" smooth="yes"/>
      <point x="99" y="78"/>
      <point x="156" y="35"/>
      <point x="209" y="35" type="curve" smooth="yes"/>
      <point x="256" y="35"/>
      <point x="278" y="40"/>
      <point x="335" y="57" type="curve"/>
      <point x="341" y="49"/>
      <point x="345" y="35"/>
      <point x="346" y="25" type="curve"/>
      <point x="285" y="3"/>
      <point x="248" y="-7"/>
      <point x="185" y="-7" type="curve" smooth="yes"/>
      <point x="94" y="-7"/>
      <point x="35" y="53"/>
      <point x="35" y="166" type="curve" smooth="yes"/>
      <point x="35" y="304"/>
      <point x="132" y="388"/>
      <point x="254" y="388" type="curve" smooth="yes"/>
      <point x="279" y="388"/>
      <point x="304" y="380"/>
    </contour>
  </outline>
</glyph>
<glyph name="d" format="1">
  <advance width="456"/>
  <unicode hex="0064"/>
  <outline>
    <contour>
      <point x="229" y="392" type="curve" smooth="yes"/>
      <point x="269" y="392"/>
      <point x="305" y="381"/>
      <point x="332" y="375" type="curve"/>
      <point x="333" y="454"/>
      <point x="327" y="629"/>
      <point x="317" y="672" type="curve"/>
      <point x="357" y="680"/>
      <point x="375" y="682"/>
      <point x="410" y="698" type="curve"/>
      <point x="395" y="630"/>
      <point x="391" y="175"/>
      <point x="409" y="49" type="curve"/>
      <point x="349" y="25"/>
      <point x="270" y="-12"/>
      <point x="203" y="-12" type="curve" smooth="yes"/>
      <point x="94" y="-12"/>
      <point x="30" y="42"/>
      <point x="37" y="168" type="curve"/>
      <point x="43" y="303"/>
      <point x="123" y="392"/>
    </contour>
    <contour>
      <point x="226" y="351" type="curve" smooth="yes"/>
      <point x="192" y="350"/>
      <point x="104" y="317"/>
      <point x="103" y="166" type="curve" smooth="yes"/>
      <point x="102" y="84"/>
      <point x="150" y="32"/>
      <point x="215" y="32" type="curve" smooth="yes"/>
      <point x="265" y="32"/>
      <point x="304" y="47"/>
      <point x="328" y="58" type="curve"/>
      <point x="332" y="143"/>
      <point x="332" y="274"/>
      <point x="331" y="336" type="curve"/>
      <point x="298" y="346"/>
      <point x="270" y="352"/>
    </contour>
  </outline>
</glyph>
<glyph name="e" format="1">
  <advance width="390"/>
  <unicode hex="0065"/>
  <outline>
    <contour>
      <point x="36" y="169" type="curve" smooth="yes"/>
      <point x="40" y="326"/>
      <point x="144" y="392"/>
      <point x="216" y="392" type="curve" smooth="yes"/>
      <point x="293" y="392"/>
      <point x="319" y="372"/>
      <point x="336" y="343" type="curve" smooth="yes"/>
      <point x="345" y="328"/>
      <point x="347" y="288"/>
      <point x="330" y="265" type="curve" smooth="yes"/>
      <point x="309" y="237"/>
      <point x="264" y="221"/>
      <point x="194" y="221" type="curve" smooth="yes"/>
      <point x="170" y="221"/>
      <point x="126" y="223"/>
      <point x="102" y="227" type="curve"/>
      <point x="86" y="161"/>
      <point x="109" y="34"/>
      <point x="217" y="34" type="curve" smooth="yes"/>
      <point x="272" y="34"/>
      <point x="303" y="42"/>
      <point x="347" y="56" type="curve"/>
      <point x="352" y="49"/>
      <point x="356" y="32"/>
      <point x="358" y="27" type="curve"/>
      <point x="310" y="9"/>
      <point x="253" y="-10"/>
      <point x="191" y="-10" type="curve" smooth="yes"/>
      <point x="84" y="-10"/>
      <point x="33" y="64"/>
    </contour>
    <contour>
      <point x="187" y="256" type="curve" smooth="yes"/>
      <point x="221" y="256"/>
      <point x="253" y="261"/>
      <point x="266" y="283" type="curve" smooth="yes"/>
      <point x="274" y="296"/>
      <point x="275" y="321"/>
      <point x="266" y="335" type="curve" smooth="yes"/>
      <point x="256" y="350"/>
      <point x="241" y="358"/>
      <point x="213" y="358" type="curve" smooth="yes"/>
      <point x="162" y="358"/>
      <point x="122" y="308"/>
      <point x="110" y="263" type="curve"/>
      <point x="125" y="259"/>
      <point x="153" y="256"/>
    </contour>
  </outline>
</glyph>
<glyph name="f" format="1">
  <advance width="242"/>
  <unicode hex="0066"/>
  <outline>
    <contour>
      <point x="39" y="383" type="curve"/>
      <point x="70" y="383" type="line"/>
      <point x="71" y="408"/>
      <point x="71" y="472"/>
      <point x="72" y="517" type="curve" smooth="yes"/>
      <point x="76" y="609"/>
      <point x="161" y="687"/>
      <point x="206" y="691" type="curve" smooth="yes"/>
      <point x="222" y="692"/>
      <point x="246" y="687"/>
      <point x="264" y="679" type="curve"/>
      <point x="261" y="668"/>
      <point x="255" y="658"/>
      <point x="250" y="650" type="curve"/>
      <point x="240" y="654"/>
      <point x="226" y="656"/>
      <point x="213" y="656" type="curve" smooth="yes"/>
      <point x="191" y="656"/>
      <point x="170" y="629"/>
      <point x="156" y="603" type="curve"/>
      <point x="140" y="570"/>
      <point x="132" y="536"/>
      <point x="132" y="383" type="curve"/>
      <point x="176" y="381"/>
      <point x="209" y="383"/>
      <point x="238" y="385" type="curve"/>
      <point x="238" y="373"/>
      <point x="236" y="350"/>
      <point x="232" y="345" type="curve"/>
      <point x="200" y="348"/>
      <point x="178" y="348"/>
      <point x="133" y="348" type="curve"/>
      <point x="132" y="279"/>
      <point x="134" y="90"/>
      <point x="146" y="-2" type="curve"/>
      <point x="122" y="2"/>
      <point x="83" y="1"/>
      <point x="61" y="-2" type="curve"/>
      <point x="72" y="119"/>
      <point x="71" y="231"/>
      <point x="71" y="347" type="curve"/>
      <point x="64" y="347"/>
      <point x="51" y="348"/>
      <point x="37" y="347" type="curve"/>
      <point x="37" y="358"/>
      <point x="37" y="370"/>
    </contour>
  </outline>
</glyph>
<glyph name="h" format="1">
  <advance width="474"/>
  <unicode hex="0068"/>
  <outline>
    <contour>
      <point x="51" y="675" type="curve"/>
      <point x="85" y="680"/>
      <point x="113" y="686"/>
      <point x="148" y="702" type="curve"/>
      <point x="131" y="624"/>
      <point x="126" y="436"/>
      <point x="127" y="361" type="curve"/>
      <point x="167" y="378"/>
      <point x="227" y="395"/>
      <point x="266" y="395" type="curve" smooth="yes"/>
      <point x="360" y="395"/>
      <point x="394" y="365"/>
      <point x="409" y="266" type="curve" smooth="yes"/>
      <point x="415" y="230"/>
      <point x="422" y="34"/>
      <point x="429" y="-1" type="curve"/>
      <point x="394" y="1"/>
      <point x="374" y="4"/>
      <point x="344" y="-2" type="curve"/>
      <point x="353" y="66"/>
      <point x="345" y="207"/>
      <point x="339" y="256" type="curve" smooth="yes"/>
      <point x="335" y="282"/>
      <point x="320" y="348"/>
      <point x="260" y="349" type="curve" smooth="yes"/>
      <point x="216" y="350"/>
      <point x="154" y="332"/>
      <point x="127" y="321" type="curve"/>
      <point x="127" y="231"/>
      <point x="127" y="110"/>
      <point x="133" y="-2" type="curve"/>
      <point x="106" y="2"/>
      <point x="106" y="4"/>
      <point x="47" y="-2" type="curve"/>
      <point x="63" y="102"/>
      <point x="66" y="532"/>
    </contour>
  </outline>
</glyph>
<glyph name="i" format="1">
  <advance width="183"/>
  <unicode hex="0069"/>
  <outline>
    <contour>
      <point x="49" y="0" type="curve"/>
      <point x="60" y="92"/>
      <point x="59" y="298"/>
      <point x="48" y="379" type="curve"/>
      <point x="77" y="380"/>
      <point x="100" y="385"/>
      <point x="127" y="391" type="curve"/>
      <point x="117" y="327"/>
      <point x="121" y="74"/>
      <point x="134" y="-2" type="curve"/>
      <point x="108" y="6"/>
      <point x="62" y="1"/>
    </contour>
    <contour>
      <point x="101" y="589" type="curve" smooth="yes"/>
      <point x="132" y="589"/>
      <point x="139" y="569"/>
      <point x="139" y="559" type="curve" smooth="yes"/>
      <point x="139" y="542"/>
      <point x="115" y="521"/>
      <point x="86" y="521" type="curve" smooth="yes"/>
      <point x="64" y="521"/>
      <point x="48" y="530"/>
      <point x="48" y="552" type="curve" smooth="yes"/>
      <point x="48" y="568"/>
      <point x="67" y="589"/>
    </contour>
  </outline>
</glyph>
<glyph name="j" format="1">
  <advance width="183"/>
  <unicode hex="006A"/>
  <outline>
    <contour>
      <point x="122" y="17" type="curve" smooth="yes"/>
      <point x="122" y="-127"/>
      <point x="92" y="-168"/>
      <point x="30" y="-233" type="curve" smooth="yes"/>
      <point x="-6" y="-271"/>
      <point x="-54" y="-280"/>
      <point x="-82" y="-269" type="curve"/>
      <point x="-82" y="-260"/>
      <point x="-82" y="-246"/>
      <point x="-79" y="-237" type="curve"/>
      <point x="40" y="-235"/>
      <point x="55" y="-102"/>
      <point x="57" y="-22" type="curve"/>
      <point x="61" y="84"/>
      <point x="59" y="310"/>
      <point x="49" y="376" type="curve"/>
      <point x="72" y="379"/>
      <point x="96" y="380"/>
      <point x="127" y="390" type="curve"/>
      <point x="123" y="255"/>
      <point x="122" y="108"/>
    </contour>
    <contour>
      <point x="101" y="589" type="curve" smooth="yes"/>
      <point x="132" y="589"/>
      <point x="139" y="569"/>
      <point x="139" y="559" type="curve" smooth="yes"/>
      <point x="139" y="542"/>
      <point x="115" y="521"/>
      <point x="86" y="521" type="curve" smooth="yes"/>
      <point x="64" y="521"/>
      <point x="48" y="530"/>
      <point x="48" y="552" type="curve" smooth="yes"/>
      <point x="48" y="568"/>
      <point x="67" y="589"/>
    </contour>
  </outline>
</glyph>
<glyph name="k" format="1">
  <advance width="465"/>
  <unicode hex="006B"/>
  <outline>
    <contour>
      <point x="55" y="-3" type="curve"/>
      <point x="67" y="90"/>
      <point x="62" y="605"/>
      <point x="48" y="671" type="curve"/>
      <point x="71" y="674"/>
      <point x="108" y="685"/>
      <point x="137" y="695" type="curve"/>
      <point x="122" y="566"/>
      <point x="125" y="446"/>
      <point x="129" y="275" type="curve"/>
      <point x="222" y="308"/>
      <point x="330" y="355"/>
      <point x="429" y="404" type="curve"/>
      <point x="423" y="384"/>
      <point x="416" y="348"/>
      <point x="412" y="330" type="curve"/>
      <point x="362" y="317"/>
      <point x="315" y="302"/>
      <point x="262" y="283" type="curve"/>
      <point x="292" y="220"/>
      <point x="437" y="24"/>
      <point x="461" y="-1" type="curve"/>
      <point x="429" y="4"/>
      <point x="387" y="2"/>
      <point x="364" y="-4" type="curve"/>
      <point x="338" y="43"/>
      <point x="242" y="195"/>
      <point x="198" y="260" type="curve"/>
      <point x="130" y="236" type="line"/>
      <point x="129" y="167"/>
      <point x="135" y="68"/>
      <point x="141" y="-2" type="curve"/>
      <point x="107" y="2"/>
      <point x="97" y="3"/>
    </contour>
  </outline>
</glyph>
<glyph name="l" format="1">
  <advance width="188"/>
  <unicode hex="006C"/>
  <outline>
    <contour>
      <point x="54" y="-3" type="curve"/>
      <point x="66" y="90"/>
      <point x="62" y="606"/>
      <point x="48" y="672" type="curve"/>
      <point x="71" y="674"/>
      <point x="103" y="686"/>
      <point x="132" y="697" type="curve"/>
      <point x="116" y="522"/>
      <point x="126" y="63"/>
      <point x="140" y="-2" type="curve"/>
      <point x="106" y="2"/>
      <point x="96" y="3"/>
    </contour>
  </outline>
</glyph>
<glyph name="m" format="1">
  <advance width="664"/>
  <unicode hex="006D"/>
  <outline>
    <contour>
      <point x="545" y="-2" type="curve"/>
      <point x="544" y="58"/>
      <point x="539" y="204"/>
      <point x="536" y="230" type="curve" smooth="yes"/>
      <point x="529" y="313"/>
      <point x="506" y="337"/>
      <point x="466" y="337" type="curve" smooth="yes"/>
      <point x="423" y="337"/>
      <point x="392" y="323"/>
      <point x="358" y="310" type="curve"/>
      <point x="365" y="290"/>
      <point x="368" y="238"/>
      <point x="368" y="214" type="curve"/>
      <point x="370" y="177"/>
      <point x="372" y="89"/>
      <point x="380" y="-1" type="curve"/>
      <point x="352" y="2"/>
      <point x="320" y="2"/>
      <point x="300" y="-1" type="curve"/>
      <point x="303" y="95"/>
      <point x="300" y="218"/>
      <point x="297" y="265" type="curve" smooth="yes"/>
      <point x="293" y="329"/>
      <point x="253" y="340"/>
      <point x="225" y="340" type="curve" smooth="yes"/>
      <point x="197" y="340"/>
      <point x="166" y="333"/>
      <point x="127" y="321" type="curve"/>
      <point x="123" y="245"/>
      <point x="123" y="130"/>
      <point x="130" y="-2" type="curve"/>
      <point x="102" y="2"/>
      <point x="79" y="5"/>
      <point x="48" y="-2" type="curve"/>
      <point x="61" y="120"/>
      <point x="60" y="290"/>
      <point x="52" y="381" type="curve"/>
      <point x="76" y="384"/>
      <point x="102" y="388"/>
      <point x="132" y="395" type="curve"/>
      <point x="129" y="379"/>
      <point x="128" y="369"/>
      <point x="127" y="355" type="curve"/>
      <point x="166" y="372"/>
      <point x="209" y="390"/>
      <point x="259" y="390" type="curve" smooth="yes"/>
      <point x="307" y="390"/>
      <point x="333" y="372"/>
      <point x="350" y="343" type="curve"/>
      <point x="400" y="367"/>
      <point x="452" y="391"/>
      <point x="495" y="391" type="curve" smooth="yes"/>
      <point x="563" y="391"/>
      <point x="601" y="358"/>
      <point x="608" y="192" type="curve" smooth="yes"/>
      <point x="611" y="123"/>
      <point x="618" y="27"/>
      <point x="623" y="-1" type="curve"/>
      <point x="594" y="2"/>
      <point x="574" y="4"/>
    </contour>
  </outline>
</glyph>
<glyph name="n" format="1">
  <advance width="469"/>
  <unicode hex="006E"/>
  <outline>
    <contour>
      <point x="50" y="381" type="curve"/>
      <point x="73" y="384"/>
      <point x="100" y="388"/>
      <point x="130" y="395" type="curve"/>
      <point x="127" y="379"/>
      <point x="126" y="367"/>
      <point x="125" y="354" type="curve"/>
      <point x="181" y="379"/>
      <point x="236" y="392"/>
      <point x="262" y="392" type="curve" smooth="yes"/>
      <point x="340" y="392"/>
      <point x="399" y="346"/>
      <point x="406" y="244" type="curve" smooth="yes"/>
      <point x="419" y="56"/>
      <point x="424" y="23"/>
      <point x="427" y="-2" type="curve"/>
      <point x="398" y="2"/>
      <point x="379" y="4"/>
      <point x="346" y="-2" type="curve"/>
      <point x="353" y="47"/>
      <point x="346" y="199"/>
      <point x="342" y="222" type="curve" smooth="yes"/>
      <point x="332" y="285"/>
      <point x="317" y="338"/>
      <point x="241" y="338" type="curve" smooth="yes"/>
      <point x="191" y="338"/>
      <point x="149" y="328"/>
      <point x="125" y="320" type="curve"/>
      <point x="121" y="244"/>
      <point x="123" y="130"/>
      <point x="130" y="-2" type="curve"/>
      <point x="102" y="2"/>
      <point x="79" y="5"/>
      <point x="48" y="-2" type="curve"/>
      <point x="61" y="120"/>
      <point x="57" y="290"/>
    </contour>
  </outline>
</glyph>
<glyph name="p" format="1">
  <advance width="442"/>
  <unicode hex="0070"/>
  <outline>
    <contour>
      <point x="45" y="-277" type="curve"/>
      <point x="61" y="-146"/>
      <point x="64" y="278"/>
      <point x="55" y="370" type="curve"/>
      <point x="76" y="375"/>
      <point x="100" y="382"/>
      <point x="126" y="391" type="curve"/>
      <point x="125" y="380"/>
      <point x="125" y="371"/>
      <point x="125" y="360" type="curve"/>
      <point x="163" y="375"/>
      <point x="195" y="389"/>
      <point x="246" y="389" type="curve" smooth="yes"/>
      <point x="357" y="389"/>
      <point x="412" y="327"/>
      <point x="409" y="223" type="curve" smooth="yes"/>
      <point x="403" y="58"/>
      <point x="294" y="-8"/>
      <point x="193" y="-8" type="curve" smooth="yes"/>
      <point x="168" y="-8"/>
      <point x="143" y="-5"/>
      <point x="122" y="2" type="curve"/>
      <point x="126" y="-133"/>
      <point x="128" y="-217"/>
      <point x="142" y="-266" type="curve"/>
      <point x="113" y="-266"/>
      <point x="65" y="-274"/>
    </contour>
    <contour>
      <point x="123" y="43" type="curve"/>
      <point x="141" y="36"/>
      <point x="163" y="33"/>
      <point x="184" y="33" type="curve" smooth="yes"/>
      <point x="262" y="33"/>
      <point x="341" y="79"/>
      <point x="341" y="221" type="curve" smooth="yes"/>
      <point x="341" y="271"/>
      <point x="320" y="343"/>
      <point x="227" y="343" type="curve" smooth="yes"/>
      <point x="203" y="343"/>
      <point x="152" y="334"/>
      <point x="125" y="323" type="curve"/>
      <point x="121" y="253"/>
      <point x="123" y="84"/>
    </contour>
  </outline>
</glyph>
<glyph name="q" format="1">
  <advance width="442"/>
  <unicode hex="0071"/>
  <outline>
    <contour>
      <point x="304" y="-277" type="curve"/>
      <point x="314" y="-242"/>
      <point x="317" y="10"/>
      <point x="314" y="29" type="curve"/>
      <point x="275" y="7"/>
      <point x="221" y="-6"/>
      <point x="179" y="-6" type="curve" smooth="yes"/>
      <point x="78" y="-6"/>
      <point x="36" y="67"/>
      <point x="35" y="143" type="curve"/>
      <point x="35" y="312"/>
      <point x="151" y="385"/>
      <point x="231" y="385" type="curve" smooth="yes"/>
      <point x="248" y="385"/>
      <point x="292" y="378"/>
      <point x="310" y="370" type="curve"/>
      <point x="311" y="375"/>
      <point x="311" y="379"/>
      <point x="313" y="383" type="curve"/>
      <point x="325" y="385"/>
      <point x="358" y="390"/>
      <point x="378" y="392" type="curve"/>
      <point x="373" y="326"/>
      <point x="373" y="-146"/>
      <point x="400" y="-266" type="curve"/>
      <point x="385" y="-266"/>
      <point x="335" y="-272"/>
    </contour>
    <contour>
      <point x="310" y="333" type="curve"/>
      <point x="280" y="342"/>
      <point x="248" y="346"/>
      <point x="225" y="345" type="curve" smooth="yes"/>
      <point x="166" y="343"/>
      <point x="98" y="288"/>
      <point x="98" y="161" type="curve" smooth="yes"/>
      <point x="98" y="92"/>
      <point x="137" y="45"/>
      <point x="213" y="45" type="curve" smooth="yes"/>
      <point x="239" y="45"/>
      <point x="288" y="54"/>
      <point x="314" y="68" type="curve"/>
      <point x="315" y="134"/>
      <point x="312" y="308"/>
    </contour>
  </outline>
</glyph>
<glyph name="s" format="1">
  <advance width="245"/>
  <unicode hex="0073"/>
  <outline>
    <contour>
      <point x="34" y="-3" type="curve"/>
      <point x="33" y="7"/>
      <point x="35" y="24"/>
      <point x="37" y="31" type="curve"/>
      <point x="98" y="22"/>
      <point x="137" y="48"/>
      <point x="137" y="88" type="curve" smooth="yes"/>
      <point x="137" y="128"/>
      <point x="117" y="154"/>
      <point x="92" y="184" type="curve" smooth="yes"/>
      <point x="68" y="213"/>
      <point x="50" y="241"/>
      <point x="50" y="269" type="curve" smooth="yes"/>
      <point x="50" y="312"/>
      <point x="83" y="356"/>
      <point x="155" y="398" type="curve"/>
      <point x="162" y="393"/>
      <point x="171" y="379"/>
      <point x="173" y="371" type="curve"/>
      <point x="132" y="343"/>
      <point x="113" y="321"/>
      <point x="113" y="288" type="curve" smooth="yes"/>
      <point x="113" y="263"/>
      <point x="131" y="241"/>
      <point x="148" y="222" type="curve" smooth="yes"/>
      <point x="198" y="168"/>
      <point x="205" y="141"/>
      <point x="205" y="109" type="curve" smooth="yes"/>
      <point x="205" y="54"/>
      <point x="174" y="-6"/>
      <point x="82" y="-6" type="curve" smooth="yes"/>
      <point x="73" y="-6"/>
      <point x="43" y="-6"/>
    </contour>
  </outline>
</glyph>
<glyph name="v" format="1">
  <advance width="400"/>
  <unicode hex="0076"/>
  <outline>
    <contour>
      <point x="121" y="385" type="curve"/>
      <point x="122" y="338"/>
      <point x="165" y="203"/>
      <point x="189" y="127" type="curve" smooth="yes"/>
      <point x="192" y="115"/>
      <point x="196" y="102"/>
      <point x="198" y="92" type="curve"/>
      <point x="256" y="206"/>
      <point x="305" y="330"/>
      <point x="313" y="375" type="curve"/>
      <point x="334" y="377"/>
      <point x="371" y="383"/>
      <point x="400" y="395" type="curve"/>
      <point x="333" y="286"/>
      <point x="288" y="199"/>
      <point x="243" y="103" type="curve" smooth="yes"/>
      <point x="229" y="72"/>
      <point x="206" y="24"/>
      <point x="201" y="-2" type="curve"/>
      <point x="188" y="-10"/>
      <point x="178" y="-13"/>
      <point x="163" y="-16" type="curve"/>
      <point x="127" y="127"/>
      <point x="48" y="355"/>
      <point x="23" y="384" type="curve"/>
      <point x="47" y="379"/>
      <point x="102" y="382"/>
    </contour>
  </outline>
</glyph>
<glyph name="w" format="1">
  <advance width="619"/>
  <unicode hex="0077"/>
  <outline>
    <contour>
      <point x="23" y="384" type="curve"/>
      <point x="47" y="379"/>
      <point x="104" y="382"/>
      <point x="124" y="385" type="curve"/>
      <point x="125" y="333"/>
      <point x="158" y="209"/>
      <point x="182" y="124" type="curve" smooth="yes"/>
      <point x="185" y="114"/>
      <point x="187" y="105"/>
      <point x="189" y="95" type="curve"/>
      <point x="248" y="210"/>
      <point x="302" y="338"/>
      <point x="310" y="382" type="curve"/>
      <point x="317" y="385"/>
      <point x="343" y="392"/>
      <point x="352" y="395" type="curve"/>
      <point x="355" y="352"/>
      <point x="396" y="213"/>
      <point x="422" y="125" type="curve"/>
      <point x="431" y="96" type="line"/>
      <point x="489" y="211"/>
      <point x="527" y="330"/>
      <point x="535" y="375" type="curve"/>
      <point x="556" y="377"/>
      <point x="590" y="383"/>
      <point x="619" y="395" type="curve"/>
      <point x="553" y="283"/>
      <point x="518" y="201"/>
      <point x="474" y="106" type="curve" smooth="yes"/>
      <point x="460" y="75"/>
      <point x="441" y="27"/>
      <point x="435" y="1" type="curve"/>
      <point x="424" y="-6"/>
      <point x="410" y="-11"/>
      <point x="395" y="-14" type="curve"/>
      <point x="367" y="101"/>
      <point x="330" y="211"/>
      <point x="311" y="269" type="curve"/>
      <point x="280" y="206"/>
      <point x="266" y="179"/>
      <point x="234" y="105" type="curve" smooth="yes"/>
      <point x="218" y="69"/>
      <point x="200" y="28"/>
      <point x="194" y="1" type="curve"/>
      <point x="183" y="-6"/>
      <point x="169" y="-10"/>
      <point x="154" y="-14" type="curve"/>
      <point x="117" y="129"/>
      <point x="48" y="355"/>
    </contour>
  </outline>
</glyph>
<glyph name="x" format="1">
  <advance width="427"/>
  <unicode hex="0078"/>
  <outline>
    <contour>
      <point x="398" y="390" type="curve"/>
      <point x="399" y="386" type="line"/>
      <point x="344" y="335"/>
      <point x="290" y="271"/>
      <point x="251" y="224" type="curve"/>
      <point x="301" y="136"/>
      <point x="327" y="93"/>
      <point x="410" y="-2" type="curve"/>
      <point x="383" y="2"/>
      <point x="323" y="2"/>
      <point x="302" y="-1" type="curve"/>
      <point x="267" y="72"/>
      <point x="234" y="134"/>
      <point x="205" y="179" type="curve"/>
      <point x="152" y="109"/>
      <point x="128" y="68"/>
      <point x="91" y="2" type="curve"/>
      <point x="62" y="-2"/>
      <point x="31" y="-4"/>
      <point x="2" y="-11" type="curve"/>
      <point x="1" y="-7" type="line"/>
      <point x="58" y="46"/>
      <point x="136" y="142"/>
      <point x="185" y="211" type="curve"/>
      <point x="141" y="286"/>
      <point x="117" y="327"/>
      <point x="64" y="385" type="curve"/>
      <point x="102" y="381"/>
      <point x="142" y="380"/>
      <point x="176" y="385" type="curve"/>
      <point x="185" y="342"/>
      <point x="215" y="285"/>
      <point x="233" y="254" type="curve"/>
      <point x="275" y="303"/>
      <point x="310" y="352"/>
      <point x="320" y="376" type="curve"/>
      <point x="340" y="378"/>
      <point x="377" y="384"/>
    </contour>
  </outline>
</glyph>
<glyph name="bar" format="1">
  <advance width="243"/>
  <unicode hex="007C"/>
  <outline>
    <contour>
      <point x="143" y="602" type="curve"/>
      <point x="140" y="376"/>
      <point x="140" y="140"/>
      <point x="141" y="-85" type="curve"/>
      <point x="130" y="-88"/>
      <point x="112" y="-94"/>
      <point x="100" y="-91" type="curve"/>
      <point x="102" y="134"/>
      <point x="103" y="376"/>
      <point x="102" y="601" type="curve"/>
      <point x="111" y="604"/>
      <point x="137" y="604"/>
    </contour>
  </outline>
</glyph>
<glyph name="braceright" format="1">
  <advance width="261"/>
  <unicode hex="007D"/>
  <outline>
    <contour>
      <point x="37" y="602" type="curve"/>
      <point x="38" y="607"/>
      <point x="48" y="621"/>
      <point x="56" y="623" type="curve"/>
      <point x="112" y="585"/>
      <point x="160" y="540"/>
      <point x="160" y="471" type="curve" smooth="yes"/>
      <point x="160" y="451"/>
      <point x="161" y="427"/>
      <point x="164" y="409" type="curve" smooth="yes"/>
      <point x="172" y="361"/>
      <point x="180" y="332"/>
      <point x="222" y="311" type="curve"/>
      <point x="223" y="307"/>
      <point x="224" y="298"/>
      <point x="222" y="289" type="curve"/>
      <point x="181" y="265"/>
      <point x="166" y="228"/>
      <point x="159" y="167" type="curve"/>
      <point x="155" y="94" type="line" smooth="yes"/>
      <point x="150" y="8"/>
      <point x="102" y="-40"/>
      <point x="47" y="-83" type="curve"/>
      <point x="40" y="-82"/>
      <point x="30" y="-68"/>
      <point x="27" y="-62" type="curve"/>
      <point x="51" y="-40"/>
      <point x="80" y="-10"/>
      <point x="87" y="40" type="curve" smooth="yes"/>
      <point x="90" y="66"/>
      <point x="95" y="133"/>
      <point x="97" y="158" type="curve" smooth="yes"/>
      <point x="102" y="217"/>
      <point x="130" y="254"/>
      <point x="181" y="299" type="curve"/>
      <point x="124" y="344"/>
      <point x="102" y="376"/>
      <point x="97" y="431" type="curve" smooth="yes"/>
      <point x="95" y="450"/>
      <point x="95" y="483"/>
      <point x="93" y="501" type="curve" smooth="yes"/>
      <point x="87" y="563"/>
      <point x="67" y="569"/>
    </contour>
  </outline>
</glyph>
<glyph name="asciitilde" format="1">
  <advance width="416"/>
  <unicode hex="007E"/>
  <outline>
    <contour>
      <point x="270" y="215" type="curve" smooth="yes"/>
      <point x="246" y="215"/>
      <point x="188" y="235"/>
      <point x="160" y="236" type="curve" smooth="yes"/>
      <point x="136" y="236"/>
      <point x="109" y="227"/>
      <point x="81" y="210" type="curve"/>
      <point x="74" y="216"/>
      <point x="69" y="229"/>
      <point x="67" y="235" type="curve"/>
      <point x="100" y="262"/>
      <point x="156" y="293"/>
      <point x="179" y="293" type="curve" smooth="yes"/>
      <point x="214" y="293"/>
      <point x="260" y="276"/>
      <point x="293" y="275" type="curve" smooth="yes"/>
      <point x="315" y="275"/>
      <point x="342" y="283"/>
      <point x="368" y="296" type="curve"/>
      <point x="374" y="290"/>
      <point x="378" y="280"/>
      <point x="381" y="273" type="curve"/>
      <point x="342" y="240"/>
      <point x="295" y="215"/>
    </contour>
  </outline>
</glyph>
<glyph name="exclamdown" format="1">
  <advance width="195"/>
  <unicode hex="00A1"/>
  <outline>
    <contour>
      <point x="77" y="236" type="curve"/>
      <point x="108" y="240" type="line"/>
      <point x="110" y="100"/>
      <point x="122" y="-147"/>
      <point x="128" y="-195" type="curve"/>
      <point x="102" y="-197"/>
      <point x="76" y="-200"/>
      <point x="46" y="-205" type="curve"/>
      <point x="58" y="-122"/>
      <point x="75" y="165"/>
    </contour>
    <contour>
      <point x="91" y="317" type="curve" smooth="yes"/>
      <point x="62" y="317"/>
      <point x="48" y="330"/>
      <point x="48" y="350" type="curve" smooth="yes"/>
      <point x="48" y="375"/>
      <point x="79" y="390"/>
      <point x="107" y="390" type="curve" smooth="yes"/>
      <point x="127" y="390"/>
      <point x="144" y="378"/>
      <point x="144" y="360" type="curve" smooth="yes"/>
      <point x="144" y="338"/>
      <point x="118" y="317"/>
    </contour>
  </outline>
</glyph>
<glyph name="cent" format="1">
  <advance width="377"/>
  <unicode hex="00A2"/>
  <outline>
    <contour>
      <point x="325" y="371" type="curve"/>
      <point x="321" y="362"/>
      <point x="316" y="348"/>
      <point x="310" y="340" type="curve"/>
      <point x="300" y="345"/>
      <point x="275" y="351"/>
      <point x="256" y="351" type="curve" smooth="yes"/>
      <point x="149" y="351"/>
      <point x="99" y="270"/>
      <point x="99" y="168" type="curve" smooth="yes"/>
      <point x="99" y="78"/>
      <point x="156" y="34"/>
      <point x="209" y="34" type="curve" smooth="yes"/>
      <point x="256" y="34"/>
      <point x="278" y="38"/>
      <point x="335" y="56" type="curve"/>
      <point x="341" y="47"/>
      <point x="345" y="35"/>
      <point x="346" y="25" type="curve"/>
      <point x="303" y="10"/>
      <point x="280" y="2"/>
      <point x="243" y="-2" type="curve"/>
      <point x="239" y="-27"/>
      <point x="237" y="-94"/>
      <point x="237" y="-110" type="curve"/>
      <point x="230" y="-113"/>
      <point x="211" y="-114"/>
      <point x="203" y="-112" type="curve"/>
      <point x="199" y="-7" type="line"/>
      <point x="185" y="-7" type="line" smooth="yes"/>
      <point x="94" y="-7"/>
      <point x="35" y="53"/>
      <point x="35" y="166" type="curve" smooth="yes"/>
      <point x="35" y="284"/>
      <point x="105" y="362"/>
      <point x="202" y="382" type="curve"/>
      <point x="204" y="412"/>
      <point x="206" y="469"/>
      <point x="206" y="485" type="curve"/>
      <point x="216" y="489"/>
      <point x="235" y="488"/>
      <point x="241" y="487" type="curve"/>
      <point x="241" y="469"/>
      <point x="243" y="410"/>
      <point x="244" y="388" type="curve"/>
      <point x="275" y="390"/>
      <point x="302" y="381"/>
    </contour>
  </outline>
</glyph>
<glyph name="sterling" format="1">
  <advance width="400"/>
  <unicode hex="00A3"/>
  <outline>
    <contour>
      <point x="319" y="561" type="curve"/>
      <point x="317" y="552"/>
      <point x="311" y="541"/>
      <point x="306" y="536" type="curve"/>
      <point x="297" y="541"/>
      <point x="250" y="548"/>
      <point x="224" y="548" type="curve" smooth="yes"/>
      <point x="165" y="548"/>
      <point x="136" y="499"/>
      <point x="137" y="444" type="curve" smooth="yes"/>
      <point x="138" y="400"/>
      <point x="144" y="375"/>
      <point x="154" y="344" type="curve"/>
      <point x="186" y="344"/>
      <point x="249" y="345"/>
      <point x="291" y="346" type="curve"/>
      <point x="291" y="333"/>
      <point x="289" y="320"/>
      <point x="284" y="308" type="curve"/>
      <point x="251" y="310"/>
      <point x="200" y="310"/>
      <point x="162" y="309" type="curve"/>
      <point x="186" y="241"/>
      <point x="186" y="182"/>
      <point x="132" y="66" type="curve"/>
      <point x="211" y="66"/>
      <point x="292" y="66"/>
      <point x="377" y="76" type="curve"/>
      <point x="366" y="52"/>
      <point x="360" y="34"/>
      <point x="350" y="-2" type="curve"/>
      <point x="319" y="2"/>
      <point x="84" y="4"/>
      <point x="16" y="-5" type="curve"/>
      <point x="27" y="25"/>
      <point x="33" y="51"/>
      <point x="40" y="69" type="curve"/>
      <point x="86" y="68"/>
      <point x="79" y="67"/>
      <point x="99" y="67" type="curve"/>
      <point x="146" y="186"/>
      <point x="131" y="244"/>
      <point x="104" y="309" type="curve"/>
      <point x="86" y="309"/>
      <point x="69" y="308"/>
      <point x="53" y="307" type="curve"/>
      <point x="52" y="319"/>
      <point x="52" y="334"/>
      <point x="55" y="345" type="curve"/>
      <point x="72" y="344"/>
      <point x="82" y="343"/>
      <point x="93" y="344" type="curve"/>
      <point x="77" y="384"/>
      <point x="69" y="416"/>
      <point x="69" y="449" type="curve" smooth="yes"/>
      <point x="69" y="525"/>
      <point x="124" y="592"/>
      <point x="224" y="592" type="curve" smooth="yes"/>
      <point x="245" y="592"/>
      <point x="289" y="581"/>
    </contour>
  </outline>
</glyph>
<glyph name="currency" format="1">
  <advance width="416"/>
  <unicode hex="00A4"/>
  <outline>
    <contour>
      <point x="72" y="477" type="curve" smooth="yes"/>
      <point x="72" y="499"/>
      <point x="80" y="521"/>
      <point x="93" y="540" type="curve"/>
      <point x="81" y="555"/>
      <point x="67" y="566"/>
      <point x="52" y="579" type="curve"/>
      <point x="55" y="589"/>
      <point x="66" y="600"/>
      <point x="76" y="605" type="curve"/>
      <point x="92" y="592"/>
      <point x="105" y="579"/>
      <point x="122" y="568" type="curve"/>
      <point x="140" y="582"/>
      <point x="162" y="590"/>
      <point x="186" y="590" type="curve" smooth="yes"/>
      <point x="212" y="590"/>
      <point x="236" y="583"/>
      <point x="256" y="568" type="curve"/>
      <point x="272" y="579"/>
      <point x="285" y="591"/>
      <point x="300" y="606" type="curve"/>
      <point x="310" y="602"/>
      <point x="320" y="592"/>
      <point x="324" y="582" type="curve"/>
      <point x="310" y="567"/>
      <point x="295" y="553"/>
      <point x="283" y="537" type="curve"/>
      <point x="293" y="521"/>
      <point x="298" y="500"/>
      <point x="298" y="477" type="curve" smooth="yes"/>
      <point x="298" y="453"/>
      <point x="289" y="429"/>
      <point x="275" y="410" type="curve"/>
      <point x="287" y="395"/>
      <point x="300" y="384"/>
      <point x="315" y="370" type="curve"/>
      <point x="312" y="360"/>
      <point x="301" y="350"/>
      <point x="292" y="345" type="curve"/>
      <point x="276" y="357"/>
      <point x="262" y="371"/>
      <point x="245" y="382" type="curve"/>
      <point x="227" y="371"/>
      <point x="206" y="365"/>
      <point x="185" y="365" type="curve" smooth="yes"/>
      <point x="160" y="365"/>
      <point x="137" y="371"/>
      <point x="119" y="383" type="curve"/>
      <point x="104" y="371"/>
      <point x="91" y="358"/>
      <point x="77" y="343" type="curve"/>
      <point x="67" y="347"/>
      <point x="57" y="357"/>
      <point x="52" y="367" type="curve"/>
      <point x="65" y="382"/>
      <point x="79" y="395"/>
      <point x="90" y="411" type="curve"/>
      <point x="79" y="429"/>
      <point x="72" y="451"/>
    </contour>
    <contour>
      <point x="111" y="476" type="curve" smooth="yes"/>
      <point x="111" y="434"/>
      <point x="140" y="401"/>
      <point x="185" y="401" type="curve" smooth="yes"/>
      <point x="226" y="401"/>
      <point x="259" y="434"/>
      <point x="259" y="476" type="curve" smooth="yes"/>
      <point x="259" y="520"/>
      <point x="226" y="551"/>
      <point x="185" y="551" type="curve" smooth="yes"/>
      <point x="143" y="551"/>
      <point x="111" y="517"/>
    </contour>
  </outline>
</glyph>
<glyph name="yen" format="1">
  <advance width="459"/>
  <unicode hex="00A5"/>
  <outline>
    <contour>
      <point x="88" y="219" type="curve"/>
      <point x="121" y="218"/>
      <point x="158" y="217"/>
      <point x="189" y="217" type="curve"/>
      <point x="189" y="236"/>
      <point x="189" y="254"/>
      <point x="188" y="271" type="curve"/>
      <point x="160" y="271"/>
      <point x="125" y="270"/>
      <point x="84" y="270" type="curve"/>
      <point x="81" y="279"/>
      <point x="85" y="301"/>
      <point x="88" y="307" type="curve"/>
      <point x="120" y="306"/>
      <point x="156" y="305"/>
      <point x="185" y="305" type="curve"/>
      <point x="144" y="385"/>
      <point x="48" y="533"/>
      <point x="5" y="583" type="curve"/>
      <point x="54" y="579"/>
      <point x="74" y="580"/>
      <point x="115" y="583" type="curve"/>
      <point x="145" y="502"/>
      <point x="190" y="422"/>
      <point x="242" y="350" type="curve"/>
      <point x="303" y="430"/>
      <point x="352" y="502"/>
      <point x="387" y="577" type="curve"/>
      <point x="414" y="578"/>
      <point x="444" y="580"/>
      <point x="479" y="588" type="curve"/>
      <point x="384" y="481"/>
      <point x="343" y="427"/>
      <point x="258" y="305" type="curve"/>
      <point x="366" y="305" type="line"/>
      <point x="367" y="294"/>
      <point x="365" y="278"/>
      <point x="360" y="268" type="curve"/>
      <point x="322" y="269"/>
      <point x="284" y="270"/>
      <point x="255" y="270" type="curve"/>
      <point x="254" y="251"/>
      <point x="254" y="233"/>
      <point x="254" y="217" type="curve"/>
      <point x="366" y="217" type="line"/>
      <point x="367" y="206"/>
      <point x="365" y="191"/>
      <point x="360" y="181" type="curve"/>
      <point x="322" y="181"/>
      <point x="283" y="182"/>
      <point x="254" y="183" type="curve"/>
      <point x="254" y="107"/>
      <point x="257" y="49"/>
      <point x="265" y="-1" type="curve"/>
      <point x="228" y="2"/>
      <point x="210" y="3"/>
      <point x="180" y="-1" type="curve"/>
      <point x="184" y="38"/>
      <point x="187" y="112"/>
      <point x="188" y="184" type="curve"/>
      <point x="161" y="184"/>
      <point x="125" y="183"/>
      <point x="84" y="183" type="curve"/>
      <point x="81" y="191"/>
      <point x="85" y="213"/>
    </contour>
  </outline>
</glyph>
<glyph name="brokenbar" format="1">
  <advance width="243"/>
  <unicode hex="00A6"/>
  <outline>
    <contour>
      <point x="143" y="603" type="curve"/>
      <point x="140" y="494"/>
      <point x="141" y="404"/>
      <point x="142" y="295" type="curve"/>
      <point x="131" y="293"/>
      <point x="112" y="294"/>
      <point x="101" y="295" type="curve"/>
      <point x="102" y="404"/>
      <point x="103" y="494"/>
      <point x="102" y="603" type="curve"/>
      <point x="111" y="604"/>
      <point x="137" y="603"/>
    </contour>
    <contour>
      <point x="142" y="229" type="curve"/>
      <point x="139" y="120"/>
      <point x="140" y="24"/>
      <point x="141" y="-85" type="curve"/>
      <point x="130" y="-87"/>
      <point x="112" y="-91"/>
      <point x="100" y="-90" type="curve"/>
      <point x="102" y="19"/>
      <point x="102" y="120"/>
      <point x="102" y="228" type="curve"/>
      <point x="110" y="230"/>
      <point x="136" y="230"/>
    </contour>
  </outline>
</glyph>
<glyph name="section" format="1">
  <advance width="409"/>
  <unicode hex="00A7"/>
  <outline>
    <contour>
      <point x="61" y="-267" type="curve"/>
      <point x="58" y="-257"/>
      <point x="58" y="-238"/>
      <point x="63" y="-226" type="curve"/>
      <point x="72" y="-229"/>
      <point x="89" y="-230"/>
      <point x="103" y="-230" type="curve" smooth="yes"/>
      <point x="176" y="-230"/>
      <point x="227" y="-166"/>
      <point x="227" y="-101" type="curve" smooth="yes"/>
      <point x="227" y="-40"/>
      <point x="170" y="30"/>
      <point x="117" y="90" type="curve" smooth="yes"/>
      <point x="14" y="206"/>
      <point x="17" y="253"/>
      <point x="79" y="363" type="curve" smooth="yes"/>
      <point x="122" y="439"/>
      <point x="175" y="517"/>
      <point x="244" y="601" type="curve"/>
      <point x="256" y="594"/>
      <point x="267" y="585"/>
      <point x="272" y="576" type="curve"/>
      <point x="222" y="518"/>
      <point x="181" y="454"/>
      <point x="181" y="423" type="curve" smooth="yes"/>
      <point x="182" y="376"/>
      <point x="233" y="322"/>
      <point x="263" y="290" type="curve" smooth="yes"/>
      <point x="306" y="246"/>
      <point x="364" y="183"/>
      <point x="364" y="112" type="curve" smooth="yes"/>
      <point x="364" y="68"/>
      <point x="359" y="1"/>
      <point x="303" y="-100" type="curve" smooth="yes"/>
      <point x="218" y="-254"/>
      <point x="154" y="-271"/>
      <point x="99" y="-271" type="curve" smooth="yes"/>
      <point x="89" y="-271"/>
      <point x="72" y="-270"/>
    </contour>
    <contour>
      <point x="308" y="63" type="curve" smooth="yes"/>
      <point x="308" y="136"/>
      <point x="241" y="211"/>
      <point x="193" y="261" type="curve" smooth="yes"/>
      <point x="162" y="293"/>
      <point x="134" y="325"/>
      <point x="131" y="368" type="curve"/>
      <point x="107" y="330"/>
      <point x="94" y="304"/>
      <point x="94" y="270" type="curve" smooth="yes"/>
      <point x="94" y="227"/>
      <point x="139" y="175"/>
      <point x="179" y="131" type="curve" smooth="yes"/>
      <point x="234" y="71"/>
      <point x="268" y="20"/>
      <point x="288" y="-25" type="curve"/>
      <point x="306" y="9"/>
      <point x="308" y="25"/>
    </contour>
  </outline>
</glyph>
<glyph name="dieresis" format="1">
  <advance width="416"/>
  <unicode hex="00A8"/>
  <outline>
    <contour>
      <point x="139" y="515" type="curve" smooth="yes"/>
      <point x="163" y="515"/>
      <point x="176" y="503"/>
      <point x="176" y="487" type="curve" smooth="yes"/>
      <point x="176" y="467"/>
      <point x="148" y="454"/>
      <point x="125" y="454" type="curve" smooth="yes"/>
      <point x="108" y="454"/>
      <point x="93" y="465"/>
      <point x="93" y="479" type="curve" smooth="yes"/>
      <point x="93" y="498"/>
      <point x="117" y="515"/>
    </contour>
    <contour>
      <point x="280" y="515" type="curve" smooth="yes"/>
      <point x="305" y="515"/>
      <point x="318" y="503"/>
      <point x="318" y="487" type="curve" smooth="yes"/>
      <point x="318" y="467"/>
      <point x="290" y="454"/>
      <point x="267" y="454" type="curve" smooth="yes"/>
      <point x="250" y="454"/>
      <point x="235" y="465"/>
      <point x="235" y="479" type="curve" smooth="yes"/>
      <point x="235" y="498"/>
      <point x="258" y="515"/>
    </contour>
  </outline>
</glyph>
<glyph name="copyright" format="1">
  <advance width="712"/>
  <unicode hex="00A9"/>
  <outline>
    <contour>
      <point x="24" y="269" type="curve" smooth="yes"/>
      <point x="24" y="453"/>
      <point x="173" y="602"/>
      <point x="357" y="602" type="curve" smooth="yes"/>
      <point x="541" y="602"/>
      <point x="690" y="453"/>
      <point x="690" y="269" type="curve" smooth="yes"/>
      <point x="690" y="85"/>
      <point x="541" y="-64"/>
      <point x="357" y="-64" type="curve" smooth="yes"/>
      <point x="173" y="-64"/>
      <point x="24" y="85"/>
    </contour>
    <contour>
      <point x="62" y="268" type="curve" smooth="yes"/>
      <point x="62" y="107"/>
      <point x="196" y="-28"/>
      <point x="356" y="-28" type="curve" smooth="yes"/>
      <point x="519" y="-28"/>
      <point x="653" y="107"/>
      <point x="653" y="268" type="curve" smooth="yes"/>
      <point x="653" y="431"/>
      <point x="519" y="567"/>
      <point x="356" y="567" type="curve" smooth="yes"/>
      <point x="196" y="567"/>
      <point x="62" y="431"/>
    </contour>
    <contour>
      <point x="348" y="37" type="curve"/>
      <point x="205" y="40"/>
      <point x="149" y="143"/>
      <point x="149" y="236" type="curve" smooth="yes"/>
      <point x="149" y="363"/>
      <point x="239" y="504"/>
      <point x="407" y="504" type="curve" smooth="yes"/>
      <point x="429" y="504"/>
      <point x="470" y="492"/>
      <point x="494" y="475" type="curve" smooth="yes"/>
      <point x="494" y="474"/>
      <point x="486" y="445"/>
      <point x="482" y="444" type="curve"/>
      <point x="462" y="455"/>
      <point x="428" y="462"/>
      <point x="402" y="462" type="curve" smooth="yes"/>
      <point x="289" y="462"/>
      <point x="210" y="377"/>
      <point x="210" y="239" type="curve" smooth="yes"/>
      <point x="210" y="167"/>
      <point x="258" y="85"/>
      <point x="369" y="84" type="curve" smooth="yes"/>
      <point x="409" y="84"/>
      <point x="454" y="99"/>
      <point x="500" y="122" type="curve"/>
      <point x="505" y="118"/>
      <point x="509" y="101"/>
      <point x="511" y="90" type="curve"/>
      <point x="469" y="67"/>
      <point x="400" y="37"/>
    </contour>
  </outline>
</glyph>
<glyph name="ordfeminine" format="1">
  <advance width="360"/>
  <unicode hex="00AA"/>
  <outline>
    <contour>
      <point x="74" y="566" type="curve"/>
      <point x="117" y="583"/>
      <point x="170" y="592"/>
      <point x="210" y="592" type="curve" smooth="yes"/>
      <point x="243" y="592"/>
      <point x="271" y="583"/>
      <point x="289" y="568" type="curve"/>
      <point x="295" y="561"/>
      <point x="306" y="546"/>
      <point x="305" y="523" type="curve"/>
      <point x="305" y="475"/>
      <point x="305" y="347"/>
      <point x="306" y="296" type="curve" smooth="yes"/>
      <point x="307" y="282"/>
      <point x="307" y="259"/>
      <point x="312" y="236" type="curve"/>
      <point x="280" y="240"/>
      <point x="274" y="240"/>
      <point x="241" y="236" type="curve"/>
      <point x="240" y="246"/>
      <point x="240" y="260"/>
      <point x="240" y="268" type="curve"/>
      <point x="192" y="251"/>
      <point x="130" y="230"/>
      <point x="107" y="230" type="curve" smooth="yes"/>
      <point x="76" y="230"/>
      <point x="62" y="234"/>
      <point x="46" y="269" type="curve" smooth="yes"/>
      <point x="40" y="280"/>
      <point x="33" y="316"/>
      <point x="36" y="334" type="curve" smooth="yes"/>
      <point x="42" y="384"/>
      <point x="80" y="404"/>
      <point x="119" y="414" type="curve" smooth="yes"/>
      <point x="155" y="423"/>
      <point x="201" y="430"/>
      <point x="239" y="436" type="curve"/>
      <point x="241" y="457"/>
      <point x="241" y="496"/>
      <point x="240" y="513" type="curve" smooth="yes"/>
      <point x="237" y="544"/>
      <point x="195" y="546"/>
      <point x="159" y="546" type="curve" smooth="yes"/>
      <point x="125" y="546"/>
      <point x="83" y="537"/>
      <point x="80" y="534" type="curve"/>
      <point x="76" y="539"/>
      <point x="74" y="554"/>
    </contour>
    <contour>
      <point x="147" y="283" type="curve" smooth="yes"/>
      <point x="164" y="283"/>
      <point x="216" y="296"/>
      <point x="239" y="303" type="curve"/>
      <point x="239" y="337"/>
      <point x="239" y="373"/>
      <point x="240" y="403" type="curve"/>
      <point x="206" y="398"/>
      <point x="176" y="395"/>
      <point x="140" y="381" type="curve" smooth="yes"/>
      <point x="117" y="372"/>
      <point x="100" y="357"/>
      <point x="103" y="322" type="curve" smooth="yes"/>
      <point x="106" y="285"/>
      <point x="127" y="283"/>
    </contour>
  </outline>
</glyph>
<glyph name="guillemotleft" format="1">
  <advance width="328"/>
  <unicode hex="00AB"/>
  <outline>
    <contour>
      <point x="154" y="58" type="curve"/>
      <point x="151" y="53"/>
      <point x="133" y="45"/>
      <point x="124" y="44" type="curve"/>
      <point x="102" y="86"/>
      <point x="70" y="134"/>
      <point x="33" y="188" type="curve"/>
      <point x="62" y="229"/>
      <point x="104" y="291"/>
      <point x="128" y="334" type="curve"/>
      <point x="136" y="331"/>
      <point x="152" y="328"/>
      <point x="158" y="321" type="curve"/>
      <point x="136" y="272"/>
      <point x="116" y="231"/>
      <point x="106" y="189" type="curve"/>
      <point x="116" y="148"/>
      <point x="131" y="110"/>
    </contour>
    <contour>
      <point x="285" y="58" type="curve"/>
      <point x="281" y="53"/>
      <point x="263" y="45"/>
      <point x="254" y="44" type="curve"/>
      <point x="233" y="86"/>
      <point x="201" y="134"/>
      <point x="164" y="188" type="curve"/>
      <point x="192" y="229"/>
      <point x="234" y="291"/>
      <point x="258" y="334" type="curve"/>
      <point x="266" y="331"/>
      <point x="283" y="328"/>
      <point x="288" y="321" type="curve"/>
      <point x="267" y="272"/>
      <point x="246" y="231"/>
      <point x="236" y="189" type="curve"/>
      <point x="246" y="148"/>
      <point x="261" y="110"/>
    </contour>
  </outline>
</glyph>
<glyph name="logicalnot" format="1">
  <advance width="416"/>
  <unicode hex="00AC"/>
  <outline>
    <contour>
      <point x="38" y="276" type="curve"/>
      <point x="139" y="273"/>
      <point x="280" y="274"/>
      <point x="355" y="275" type="curve"/>
      <point x="353" y="223"/>
      <point x="353" y="174"/>
      <point x="354" y="124" type="curve"/>
      <point x="343" y="120"/>
      <point x="328" y="120"/>
      <point x="317" y="120" type="curve"/>
      <point x="318" y="160"/>
      <point x="318" y="199"/>
      <point x="318" y="237" type="curve"/>
      <point x="231" y="239"/>
      <point x="149" y="240"/>
      <point x="35" y="239" type="curve"/>
      <point x="32" y="247"/>
      <point x="36" y="270"/>
    </contour>
  </outline>
</glyph>
<glyph name="uni00AD" format="1">
  <advance width="0"/>
  <unicode hex="00AD"/>
  <outline>
    <contour>
      <point x="-85" y="271" type="curve"/>
      <point x="-55" y="274"/>
      <point x="63" y="293"/>
      <point x="84" y="298" type="curve"/>
      <point x="87" y="286"/>
      <point x="90" y="266"/>
      <point x="84" y="247" type="curve"/>
      <point x="60" y="246"/>
      <point x="-55" y="229"/>
      <point x="-83" y="223" type="curve"/>
      <point x="-86" y="233"/>
      <point x="-86" y="260"/>
    </contour>
  </outline>
</glyph>
<glyph name="registered" format="1">
  <advance width="712"/>
  <unicode hex="00AE"/>
  <outline>
    <contour>
      <point x="24" y="269" type="curve" smooth="yes"/>
      <point x="24" y="453"/>
      <point x="173" y="602"/>
      <point x="357" y="602" type="curve" smooth="yes"/>
      <point x="541" y="602"/>
      <point x="690" y="453"/>
      <point x="690" y="269" type="curve" smooth="yes"/>
      <point x="690" y="85"/>
      <point x="541" y="-64"/>
      <point x="357" y="-64" type="curve" smooth="yes"/>
      <point x="173" y="-64"/>
      <point x="24" y="85"/>
    </contour>
    <contour>
      <point x="62" y="268" type="curve" smooth="yes"/>
      <point x="62" y="107"/>
      <point x="196" y="-28"/>
      <point x="356" y="-28" type="curve" smooth="yes"/>
      <point x="431" y="-28"/>
      <point x="500" y="0"/>
      <point x="553" y="47" type="curve"/>
      <point x="533" y="48"/>
      <point x="496" y="51"/>
      <point x="477" y="44" type="curve"/>
      <point x="444" y="98"/>
      <point x="357" y="246"/>
      <point x="311" y="305" type="curve"/>
      <point x="315" y="310"/>
      <point x="320" y="317"/>
      <point x="323" y="318" type="curve" smooth="yes"/>
      <point x="377" y="327"/>
      <point x="419" y="364"/>
      <point x="419" y="404" type="curve" smooth="yes"/>
      <point x="419" y="462"/>
      <point x="335" y="461"/>
      <point x="273" y="459" type="curve"/>
      <point x="267" y="384"/>
      <point x="270" y="191"/>
      <point x="275" y="48" type="curve"/>
      <point x="252" y="51"/>
      <point x="231" y="52"/>
      <point x="207" y="42" type="curve"/>
      <point x="219" y="128"/>
      <point x="214" y="436"/>
      <point x="210" y="492" type="curve"/>
      <point x="230" y="489"/>
      <point x="273" y="491"/>
      <point x="299" y="491" type="curve" smooth="yes"/>
      <point x="359" y="491"/>
      <point x="486" y="500"/>
      <point x="485" y="419" type="curve" smooth="yes"/>
      <point x="485" y="383"/>
      <point x="447" y="333"/>
      <point x="385" y="307" type="curve"/>
      <point x="428" y="230"/>
      <point x="505" y="110"/>
      <point x="559" y="53" type="curve"/>
      <point x="616" y="107"/>
      <point x="653" y="184"/>
      <point x="653" y="268" type="curve" smooth="yes"/>
      <point x="653" y="431"/>
      <point x="519" y="567"/>
      <point x="356" y="567" type="curve" smooth="yes"/>
      <point x="196" y="567"/>
      <point x="62" y="431"/>
    </contour>
  </outline>
</glyph>
<glyph name="macron" format="1">
  <advance width="416"/>
  <unicode hex="00AF"/>
  <outline>
    <contour>
      <point x="92" y="503" type="curve"/>
      <point x="193" y="500"/>
      <point x="250" y="500"/>
      <point x="325" y="501" type="curve"/>
      <point x="325" y="490"/>
      <point x="324" y="474"/>
      <point x="319" y="464" type="curve"/>
      <point x="222" y="467"/>
      <point x="214" y="467"/>
      <point x="89" y="467" type="curve"/>
      <point x="86" y="475"/>
      <point x="90" y="497"/>
    </contour>
  </outline>
</glyph>
<glyph name="degree" format="1">
  <advance width="416"/>
  <unicode hex="00B0"/>
  <outline>
    <contour>
      <point x="66" y="477" type="curve" smooth="yes"/>
      <point x="66" y="540"/>
      <point x="124" y="597"/>
      <point x="186" y="597" type="curve" smooth="yes"/>
      <point x="252" y="597"/>
      <point x="305" y="553"/>
      <point x="305" y="477" type="curve" smooth="yes"/>
      <point x="305" y="414"/>
      <point x="248" y="358"/>
      <point x="185" y="358" type="curve" smooth="yes"/>
      <point x="119" y="358"/>
      <point x="66" y="403"/>
    </contour>
    <contour>
      <point x="107" y="478" type="curve" smooth="yes"/>
      <point x="107" y="433"/>
      <point x="137" y="397"/>
      <point x="186" y="397" type="curve" smooth="yes"/>
      <point x="230" y="397"/>
      <point x="265" y="433"/>
      <point x="265" y="478" type="curve" smooth="yes"/>
      <point x="265" y="525"/>
      <point x="230" y="558"/>
      <point x="186" y="558" type="curve" smooth="yes"/>
      <point x="141" y="558"/>
      <point x="107" y="523"/>
    </contour>
  </outline>
</glyph>
<glyph name="plusminus" format="1">
  <advance width="416"/>
  <unicode hex="00B1"/>
  <outline>
    <contour>
      <point x="38" y="67" type="curve"/>
      <point x="82" y="65"/>
      <point x="127" y="65"/>
      <point x="177" y="65" type="curve"/>
      <point x="178" y="107"/>
      <point x="179" y="148"/>
      <point x="179" y="191" type="curve"/>
      <point x="133" y="192"/>
      <point x="90" y="192"/>
      <point x="35" y="191" type="curve"/>
      <point x="32" y="200"/>
      <point x="36" y="222"/>
      <point x="38" y="228" type="curve"/>
      <point x="82" y="226"/>
      <point x="129" y="226"/>
      <point x="179" y="226" type="curve"/>
      <point x="180" y="275"/>
      <point x="180" y="317"/>
      <point x="179" y="365" type="curve"/>
      <point x="187" y="367"/>
      <point x="213" y="367"/>
      <point x="218" y="366" type="curve"/>
      <point x="217" y="317"/>
      <point x="217" y="275"/>
      <point x="217" y="226" type="curve"/>
      <point x="269" y="225"/>
      <point x="319" y="225"/>
      <point x="354" y="226" type="curve"/>
      <point x="355" y="216"/>
      <point x="353" y="199"/>
      <point x="348" y="189" type="curve"/>
      <point x="303" y="191"/>
      <point x="263" y="191"/>
      <point x="217" y="191" type="curve"/>
      <point x="217" y="65" type="line"/>
      <point x="354" y="65" type="line"/>
      <point x="355" y="55"/>
      <point x="353" y="37"/>
      <point x="348" y="27" type="curve"/>
      <point x="251" y="29"/>
      <point x="160" y="30"/>
      <point x="35" y="29" type="curve"/>
      <point x="32" y="37"/>
      <point x="36" y="61"/>
    </contour>
  </outline>
</glyph>
<glyph name="twosuperior" format="1">
  <advance width="285"/>
  <unicode hex="00B2"/>
  <outline>
    <contour>
      <point x="48" y="552" type="curve"/>
      <point x="79" y="569"/>
      <point x="123" y="591"/>
      <point x="167" y="591" type="curve" smooth="yes"/>
      <point x="216" y="591"/>
      <point x="231" y="553"/>
      <point x="231" y="518" type="curve" smooth="yes"/>
      <point x="231" y="473"/>
      <point x="197" y="418"/>
      <point x="174" y="385" type="curve"/>
      <point x="169" y="380"/>
      <point x="132" y="330"/>
      <point x="106" y="298" type="curve"/>
      <point x="138" y="292"/>
      <point x="245" y="301"/>
      <point x="254" y="303" type="curve"/>
      <point x="245" y="283"/>
      <point x="234" y="247"/>
      <point x="231" y="229" type="curve"/>
      <point x="191" y="244"/>
      <point x="99" y="242"/>
      <point x="33" y="237" type="curve"/>
      <point x="30" y="242"/>
      <point x="29" y="247"/>
      <point x="28" y="253" type="curve"/>
      <point x="86" y="314"/>
      <point x="169" y="420"/>
      <point x="169" y="500" type="curve" smooth="yes"/>
      <point x="169" y="535"/>
      <point x="154" y="543"/>
      <point x="132" y="543" type="curve" smooth="yes"/>
      <point x="107" y="543"/>
      <point x="79" y="534"/>
      <point x="58" y="526" type="curve"/>
      <point x="52" y="531"/>
      <point x="50" y="545"/>
    </contour>
  </outline>
</glyph>
<glyph name="threesuperior" format="1">
  <advance width="251"/>
  <unicode hex="00B3"/>
  <outline>
    <contour>
      <point x="45" y="569" type="curve"/>
      <point x="58" y="576"/>
      <point x="105" y="593"/>
      <point x="132" y="593" type="curve" smooth="yes"/>
      <point x="170" y="593"/>
      <point x="197" y="564"/>
      <point x="197" y="531" type="curve" smooth="yes"/>
      <point x="197" y="505"/>
      <point x="171" y="472"/>
      <point x="139" y="452" type="curve"/>
      <point x="189" y="453"/>
      <point x="226" y="419"/>
      <point x="226" y="367" type="curve" smooth="yes"/>
      <point x="226" y="263"/>
      <point x="102" y="217"/>
      <point x="29" y="224" type="curve"/>
      <point x="29" y="229"/>
      <point x="29" y="249"/>
      <point x="31" y="255" type="curve"/>
      <point x="97" y="250"/>
      <point x="166" y="286"/>
      <point x="166" y="365" type="curve" smooth="yes"/>
      <point x="166" y="404"/>
      <point x="146" y="422"/>
      <point x="116" y="422" type="curve" smooth="yes"/>
      <point x="107" y="422"/>
      <point x="92" y="419"/>
      <point x="84" y="417" type="curve"/>
      <point x="79" y="422"/>
      <point x="77" y="439"/>
      <point x="76" y="445" type="curve"/>
      <point x="113" y="457"/>
      <point x="136" y="481"/>
      <point x="136" y="519" type="curve" smooth="yes"/>
      <point x="136" y="544"/>
      <point x="121" y="553"/>
      <point x="105" y="553" type="curve" smooth="yes"/>
      <point x="83" y="553"/>
      <point x="66" y="548"/>
      <point x="52" y="544" type="curve"/>
      <point x="50" y="547"/>
      <point x="46" y="563"/>
    </contour>
  </outline>
</glyph>
<glyph name="mu" format="1">
  <advance width="458"/>
  <unicode hex="00B5"/>
  <unicode hex="03bc"/>
  <outline>
    <contour>
      <point x="130" y="390" type="curve"/>
      <point x="122" y="320"/>
      <point x="117" y="266"/>
      <point x="117" y="196" type="curve"/>
      <point x="118" y="140"/>
      <point x="112" y="50"/>
      <point x="187" y="50" type="curve" smooth="yes"/>
      <point x="227" y="50"/>
      <point x="290" y="62"/>
      <point x="331" y="74" type="curve"/>
      <point x="335" y="112"/>
      <point x="335" y="308"/>
      <point x="326" y="377" type="curve"/>
      <point x="344" y="378"/>
      <point x="380" y="382"/>
      <point x="406" y="388" type="curve"/>
      <point x="395" y="299"/>
      <point x="397" y="43"/>
      <point x="410" y="5" type="curve"/>
      <point x="381" y="2"/>
      <point x="366" y="1"/>
      <point x="335" y="-5" type="curve"/>
      <point x="332" y="11"/>
      <point x="333" y="22"/>
      <point x="332" y="36" type="curve"/>
      <point x="285" y="21"/>
      <point x="206" y="-5"/>
      <point x="142" y="-5" type="curve" smooth="yes"/>
      <point x="124" y="-5"/>
      <point x="103" y="2"/>
      <point x="91" y="9" type="curve"/>
      <point x="95" y="-112"/>
      <point x="109" y="-233"/>
      <point x="114" y="-254" type="curve"/>
      <point x="87" y="-258"/>
      <point x="63" y="-261"/>
      <point x="31" y="-277" type="curve"/>
      <point x="44" y="-197"/>
      <point x="52" y="3"/>
      <point x="52" y="154" type="curve" smooth="yes"/>
      <point x="52" y="256"/>
      <point x="52" y="347"/>
      <point x="48" y="380" type="curve"/>
      <point x="79" y="381"/>
      <point x="106" y="384"/>
    </contour>
  </outline>
</glyph>
<glyph name="paragraph" format="1">
  <advance width="492"/>
  <unicode hex="00B6"/>
  <outline>
    <contour>
      <point x="222" y="328" type="curve"/>
      <point x="226" y="322"/>
      <point x="227" y="310"/>
      <point x="228" y="300" type="curve"/>
      <point x="192" y="289"/>
      <point x="165" y="285"/>
      <point x="146" y="285" type="curve" smooth="yes"/>
      <point x="55" y="285"/>
      <point x="25" y="330"/>
      <point x="25" y="395" type="curve" smooth="yes"/>
      <point x="25" y="465"/>
      <point x="136" y="585"/>
      <point x="290" y="584" type="curve" smooth="yes"/>
      <point x="324" y="584"/>
      <point x="376" y="584"/>
      <point x="444" y="578" type="curve"/>
      <point x="427" y="509"/>
      <point x="429" y="146"/>
      <point x="433" y="-2" type="curve"/>
      <point x="407" y="1"/>
      <point x="382" y="3"/>
      <point x="358" y="0" type="curve"/>
      <point x="365" y="123"/>
      <point x="367" y="380"/>
      <point x="364" y="543" type="curve"/>
      <point x="348" y="546"/>
      <point x="336" y="546"/>
      <point x="320" y="546" type="curve"/>
      <point x="315" y="346"/>
      <point x="313" y="103"/>
      <point x="315" y="-2" type="curve"/>
      <point x="289" y="2"/>
      <point x="297" y="2"/>
      <point x="271" y="-1" type="curve"/>
      <point x="280" y="205"/>
      <point x="283" y="358"/>
      <point x="277" y="546" type="curve"/>
      <point x="165" y="542"/>
      <point x="95" y="465"/>
      <point x="95" y="397" type="curve" smooth="yes"/>
      <point x="95" y="343"/>
      <point x="133" y="323"/>
      <point x="173" y="323" type="curve" smooth="yes"/>
      <point x="184" y="323"/>
      <point x="207" y="324"/>
    </contour>
  </outline>
</glyph>
<glyph name="periodcentered" format="1">
  <advance width="144"/>
  <unicode hex="00B7"/>
  <outline>
    <contour>
      <point x="77" y="325" type="curve" smooth="yes"/>
      <point x="104" y="325"/>
      <point x="118" y="313"/>
      <point x="118" y="294" type="curve" smooth="yes"/>
      <point x="118" y="270"/>
      <point x="88" y="256"/>
      <point x="62" y="256" type="curve" smooth="yes"/>
      <point x="42" y="256"/>
      <point x="26" y="266"/>
      <point x="26" y="284" type="curve" smooth="yes"/>
      <point x="26" y="305"/>
      <point x="51" y="325"/>
    </contour>
  </outline>
</glyph>
<glyph name="cedilla" format="1">
  <advance width="416"/>
  <unicode hex="00B8"/>
  <outline>
    <contour>
      <point x="136" y="-105" type="curve"/>
      <point x="154" y="-77"/>
      <point x="175" y="-29"/>
      <point x="188" y="4" type="curve"/>
      <point x="220" y="-6" type="line"/>
      <point x="209" y="-27"/>
      <point x="200" y="-48"/>
      <point x="193" y="-71" type="curve"/>
      <point x="213" y="-86"/>
      <point x="239" y="-112"/>
      <point x="239" y="-141" type="curve" smooth="yes"/>
      <point x="239" y="-161"/>
      <point x="216" y="-216"/>
      <point x="173" y="-266" type="curve"/>
      <point x="168" y="-263"/>
      <point x="155" y="-256"/>
      <point x="150" y="-251" type="curve"/>
      <point x="167" y="-226"/>
      <point x="186" y="-192"/>
      <point x="186" y="-160" type="curve" smooth="yes"/>
      <point x="186" y="-143"/>
      <point x="160" y="-119"/>
    </contour>
  </outline>
</glyph>
<glyph name="ordmasculine" format="1">
  <advance width="419"/>
  <unicode hex="00BA"/>
  <outline>
    <contour>
      <point x="225" y="593" type="curve" smooth="yes"/>
      <point x="338" y="593"/>
      <point x="384" y="517"/>
      <point x="384" y="421" type="curve" smooth="yes"/>
      <point x="384" y="372"/>
      <point x="359" y="307"/>
      <point x="315" y="272" type="curve" smooth="yes"/>
      <point x="282" y="246"/>
      <point x="230" y="230"/>
      <point x="189" y="230" type="curve" smooth="yes"/>
      <point x="75" y="230"/>
      <point x="34" y="330"/>
      <point x="36" y="400" type="curve"/>
      <point x="36" y="463"/>
      <point x="67" y="524"/>
      <point x="112" y="553" type="curve" smooth="yes"/>
      <point x="142" y="573"/>
      <point x="195" y="593"/>
    </contour>
    <contour>
      <point x="213" y="551" type="curve" smooth="yes"/>
      <point x="134" y="551"/>
      <point x="102" y="485"/>
      <point x="102" y="400" type="curve" smooth="yes"/>
      <point x="102" y="346"/>
      <point x="129" y="271"/>
      <point x="199" y="271" type="curve" smooth="yes"/>
      <point x="282" y="271"/>
      <point x="321" y="339"/>
      <point x="319" y="419" type="curve" smooth="yes"/>
      <point x="316" y="499"/>
      <point x="272" y="551"/>
    </contour>
  </outline>
</glyph>
<glyph name="guillemotright" format="1">
  <advance width="328"/>
  <unicode hex="00BB"/>
  <outline>
    <contour>
      <point x="174" y="320" type="curve"/>
      <point x="177" y="325"/>
      <point x="195" y="333"/>
      <point x="204" y="334" type="curve"/>
      <point x="226" y="292"/>
      <point x="258" y="244"/>
      <point x="295" y="190" type="curve"/>
      <point x="267" y="149"/>
      <point x="224" y="87"/>
      <point x="200" y="44" type="curve"/>
      <point x="193" y="47"/>
      <point x="176" y="50"/>
      <point x="170" y="57" type="curve"/>
      <point x="192" y="106"/>
      <point x="212" y="147"/>
      <point x="222" y="189" type="curve"/>
      <point x="212" y="230"/>
      <point x="198" y="268"/>
    </contour>
    <contour>
      <point x="44" y="320" type="curve"/>
      <point x="47" y="325"/>
      <point x="65" y="333"/>
      <point x="74" y="334" type="curve"/>
      <point x="96" y="292"/>
      <point x="128" y="244"/>
      <point x="165" y="190" type="curve"/>
      <point x="136" y="149"/>
      <point x="94" y="87"/>
      <point x="70" y="44" type="curve"/>
      <point x="62" y="47"/>
      <point x="46" y="50"/>
      <point x="40" y="57" type="curve"/>
      <point x="62" y="106"/>
      <point x="82" y="147"/>
      <point x="92" y="189" type="curve"/>
      <point x="82" y="230"/>
      <point x="67" y="268"/>
    </contour>
  </outline>
</glyph>
<glyph name="onequarter" format="1">
  <advance width="602"/>
  <unicode hex="00BC"/>
  <outline>
    <contour>
      <point x="469" y="-1" type="curve"/>
      <point x="475" y="27"/>
      <point x="477" y="51"/>
      <point x="476" y="93" type="curve"/>
      <point x="474" y="93"/>
      <point x="371" y="95"/>
      <point x="337" y="93" type="curve"/>
      <point x="333" y="96"/>
      <point x="324" y="116"/>
      <point x="323" y="125" type="curve"/>
      <point x="370" y="188"/>
      <point x="452" y="314"/>
      <point x="486" y="364" type="curve"/>
      <point x="489" y="362"/>
      <point x="513" y="354"/>
      <point x="516" y="350" type="curve"/>
      <point x="474" y="288"/>
      <point x="413" y="191"/>
      <point x="374" y="127" type="curve"/>
      <point x="413" y="125"/>
      <point x="445" y="127"/>
      <point x="476" y="126" type="curve"/>
      <point x="477" y="143"/>
      <point x="477" y="196"/>
      <point x="475" y="246" type="curve"/>
      <point x="492" y="249"/>
      <point x="529" y="254"/>
      <point x="545" y="261" type="curve"/>
      <point x="540" y="221"/>
      <point x="538" y="186"/>
      <point x="538" y="127" type="curve"/>
      <point x="563" y="127" type="line"/>
      <point x="565" y="118"/>
      <point x="565" y="101"/>
      <point x="563" y="92" type="curve"/>
      <point x="548" y="92"/>
      <point x="543" y="93"/>
      <point x="538" y="92" type="curve"/>
      <point x="538" y="72"/>
      <point x="539" y="31"/>
      <point x="544" y="1" type="curve"/>
      <point x="529" y="2"/>
      <point x="488" y="2"/>
    </contour>
    <contour>
      <point x="528" y="581" type="curve"/>
      <point x="382" y="385"/>
      <point x="236" y="184"/>
      <point x="93" y="-13" type="curve"/>
      <point x="82" y="-10"/>
      <point x="64" y="-4"/>
      <point x="54" y="5" type="curve"/>
      <point x="199" y="202"/>
      <point x="347" y="403"/>
      <point x="489" y="600" type="curve"/>
      <point x="499" y="598"/>
      <point x="524" y="587"/>
    </contour>
    <contour>
      <point x="158" y="591" type="curve"/>
      <point x="163" y="589"/>
      <point x="170" y="588"/>
      <point x="173" y="586" type="curve"/>
      <point x="166" y="539"/>
      <point x="170" y="307"/>
      <point x="174" y="244" type="curve"/>
      <point x="157" y="247"/>
      <point x="117" y="247"/>
      <point x="98" y="245" type="curve"/>
      <point x="108" y="301"/>
      <point x="111" y="477"/>
      <point x="105" y="527" type="curve"/>
      <point x="77" y="526"/>
      <point x="57" y="524"/>
      <point x="30" y="521" type="curve"/>
      <point x="28" y="524"/>
      <point x="27" y="541"/>
      <point x="27" y="545" type="curve"/>
      <point x="72" y="558"/>
      <point x="123" y="577"/>
    </contour>
  </outline>
</glyph>
<glyph name="onehalf" format="1">
  <advance width="585"/>
  <unicode hex="00BD"/>
  <outline>
    <contour>
      <point x="469" y="-1" type="curve"/>
      <point x="475" y="27"/>
      <point x="477" y="51"/>
      <point x="476" y="93" type="curve"/>
      <point x="474" y="93"/>
      <point x="371" y="95"/>
      <point x="337" y="93" type="curve"/>
      <point x="333" y="96"/>
      <point x="324" y="116"/>
      <point x="323" y="125" type="curve"/>
      <point x="370" y="188"/>
      <point x="452" y="314"/>
      <point x="486" y="364" type="curve"/>
      <point x="489" y="362"/>
      <point x="513" y="354"/>
      <point x="516" y="350" type="curve"/>
      <point x="474" y="288"/>
      <point x="413" y="191"/>
      <point x="374" y="127" type="curve"/>
      <point x="413" y="125"/>
      <point x="445" y="127"/>
      <point x="476" y="126" type="curve"/>
      <point x="477" y="143"/>
      <point x="477" y="196"/>
      <point x="475" y="246" type="curve"/>
      <point x="492" y="249"/>
      <point x="529" y="254"/>
      <point x="545" y="261" type="curve"/>
      <point x="540" y="221"/>
      <point x="538" y="186"/>
      <point x="538" y="127" type="curve"/>
      <point x="563" y="127" type="line"/>
      <point x="565" y="118"/>
      <point x="565" y="101"/>
      <point x="563" y="92" type="curve"/>
      <point x="548" y="92"/>
      <point x="543" y="93"/>
      <point x="538" y="92" type="curve"/>
      <point x="538" y="72"/>
      <point x="539" y="31"/>
      <point x="544" y="1" type="curve"/>
      <point x="529" y="2"/>
      <point x="488" y="2"/>
    </contour>
    <contour>
      <point x="527" y="581" type="curve"/>
      <point x="381" y="385"/>
      <point x="235" y="184"/>
      <point x="92" y="-13" type="curve"/>
      <point x="81" y="-10"/>
      <point x="63" y="-4"/>
      <point x="53" y="5" type="curve"/>
      <point x="198" y="202"/>
      <point x="346" y="403"/>
      <point x="488" y="600" type="curve"/>
      <point x="498" y="598"/>
      <point x="523" y="587"/>
    </contour>
    <contour>
      <point x="44" y="568" type="curve"/>
      <point x="57" y="577"/>
      <point x="102" y="593"/>
      <point x="130" y="593" type="curve" smooth="yes"/>
      <point x="166" y="593"/>
      <point x="193" y="565"/>
      <point x="193" y="533" type="curve" smooth="yes"/>
      <point x="193" y="508"/>
      <point x="167" y="474"/>
      <point x="136" y="455" type="curve"/>
      <point x="185" y="456"/>
      <point x="222" y="424"/>
      <point x="222" y="373" type="curve" smooth="yes"/>
      <point x="222" y="271"/>
      <point x="99" y="226"/>
      <point x="29" y="233" type="curve"/>
      <point x="29" y="238"/>
      <point x="29" y="256"/>
      <point x="31" y="262" type="curve"/>
      <point x="96" y="262"/>
      <point x="161" y="294"/>
      <point x="161" y="371" type="curve" smooth="yes"/>
      <point x="161" y="407"/>
      <point x="143" y="426"/>
      <point x="113" y="427" type="curve" smooth="yes"/>
      <point x="105" y="427"/>
      <point x="90" y="425"/>
      <point x="82" y="423" type="curve"/>
      <point x="77" y="428"/>
      <point x="75" y="444"/>
      <point x="74" y="449" type="curve"/>
      <point x="111" y="461"/>
      <point x="132" y="484"/>
      <point x="132" y="522" type="curve" smooth="yes"/>
      <point x="132" y="546"/>
      <point x="116" y="553"/>
      <point x="102" y="553" type="curve" smooth="yes"/>
      <point x="82" y="553"/>
      <point x="62" y="549"/>
      <point x="52" y="545" type="curve"/>
      <point x="49" y="548"/>
      <point x="45" y="563"/>
    </contour>
  </outline>
</glyph>
<glyph name="threequarters" format="1">
  <advance width="606"/>
  <unicode hex="00BE"/>
  <outline>
    <contour>
      <point x="385" y="300" type="curve"/>
      <point x="415" y="318"/>
      <point x="459" y="343"/>
      <point x="502" y="343" type="curve" smooth="yes"/>
      <point x="548" y="343"/>
      <point x="564" y="305"/>
      <point x="564" y="271" type="curve" smooth="yes"/>
      <point x="564" y="228"/>
      <point x="528" y="175"/>
      <point x="506" y="142" type="curve" smooth="yes"/>
      <point x="502" y="136"/>
      <point x="469" y="91"/>
      <point x="443" y="60" type="curve"/>
      <point x="475" y="54"/>
      <point x="580" y="63"/>
      <point x="589" y="65" type="curve"/>
      <point x="580" y="45"/>
      <point x="567" y="8"/>
      <point x="563" y="-10" type="curve"/>
      <point x="524" y="5"/>
      <point x="435" y="3"/>
      <point x="371" y="-2" type="curve"/>
      <point x="368" y="3"/>
      <point x="367" y="8"/>
      <point x="366" y="13" type="curve"/>
      <point x="422" y="72"/>
      <point x="501" y="176"/>
      <point x="501" y="255" type="curve" smooth="yes"/>
      <point x="501" y="289"/>
      <point x="489" y="296"/>
      <point x="468" y="296" type="curve" smooth="yes"/>
      <point x="444" y="296"/>
      <point x="415" y="288"/>
      <point x="395" y="281" type="curve"/>
      <point x="390" y="286"/>
      <point x="387" y="295"/>
    </contour>
    <contour>
      <point x="158" y="591" type="curve"/>
      <point x="163" y="589"/>
      <point x="170" y="588"/>
      <point x="173" y="586" type="curve"/>
      <point x="166" y="539"/>
      <point x="170" y="307"/>
      <point x="174" y="244" type="curve"/>
      <point x="157" y="247"/>
      <point x="117" y="247"/>
      <point x="98" y="245" type="curve"/>
      <point x="108" y="301"/>
      <point x="111" y="477"/>
      <point x="105" y="527" type="curve"/>
      <point x="77" y="526"/>
      <point x="57" y="524"/>
      <point x="30" y="521" type="curve"/>
      <point x="28" y="524"/>
      <point x="27" y="541"/>
      <point x="27" y="545" type="curve"/>
      <point x="72" y="558"/>
      <point x="123" y="577"/>
    </contour>
    <contour>
      <point x="528" y="581" type="curve"/>
      <point x="382" y="385"/>
      <point x="236" y="184"/>
      <point x="93" y="-13" type="curve"/>
      <point x="82" y="-10"/>
      <point x="64" y="-4"/>
      <point x="54" y="5" type="curve"/>
      <point x="199" y="202"/>
      <point x="347" y="403"/>
      <point x="489" y="600" type="curve"/>
      <point x="499" y="598"/>
      <point x="524" y="587"/>
    </contour>
  </outline>
</glyph>
<glyph name="questiondown" format="1">
  <advance width="262"/>
  <unicode hex="00BF"/>
  <outline>
    <contour>
      <point x="164" y="231" type="curve"/>
      <point x="178" y="188"/>
      <point x="185" y="154"/>
      <point x="185" y="117" type="curve"/>
      <point x="183" y="48"/>
      <point x="106" y="8"/>
      <point x="106" y="-63" type="curve" smooth="yes"/>
      <point x="106" y="-113"/>
      <point x="153" y="-157"/>
      <point x="196" y="-192" type="curve"/>
      <point x="190" y="-201"/>
      <point x="184" y="-211"/>
      <point x="175" y="-219" type="curve"/>
      <point x="101" y="-163"/>
      <point x="46" y="-95"/>
      <point x="46" y="-47" type="curve" smooth="yes"/>
      <point x="46" y="38"/>
      <point x="137" y="87"/>
      <point x="140" y="164" type="curve" smooth="yes"/>
      <point x="141" y="177"/>
      <point x="138" y="203"/>
      <point x="130" y="223" type="curve"/>
      <point x="140" y="227"/>
      <point x="153" y="229"/>
    </contour>
    <contour>
      <point x="140" y="315" type="curve" smooth="yes"/>
      <point x="111" y="315"/>
      <point x="96" y="329"/>
      <point x="96" y="349" type="curve" smooth="yes"/>
      <point x="96" y="374"/>
      <point x="127" y="389"/>
      <point x="155" y="389" type="curve" smooth="yes"/>
      <point x="176" y="389"/>
      <point x="193" y="377"/>
      <point x="193" y="359" type="curve" smooth="yes"/>
      <point x="193" y="337"/>
      <point x="166" y="315"/>
    </contour>
  </outline>
</glyph>
<glyph name="Aacute" format="1">
  <advance width="514"/>
  <unicode hex="00C1"/>
  <outline>
    <contour>
      <point x="340" y="228" type="curve"/>
      <point x="287" y="225"/>
      <point x="200" y="218"/>
      <point x="154" y="214" type="curve"/>
      <point x="114" y="119"/>
      <point x="96" y="66"/>
      <point x="82" y="4" type="curve"/>
      <point x="62" y="5"/>
      <point x="17" y="-1"/>
      <point x="-8" y="-7" type="curve"/>
      <point x="77" y="137"/>
      <point x="142" y="281"/>
      <point x="210" y="441" type="curve"/>
      <point x="243" y="513"/>
      <point x="251" y="543"/>
      <point x="262" y="588" type="curve"/>
      <point x="273" y="593"/>
      <point x="280" y="596"/>
      <point x="292" y="598" type="curve"/>
      <point x="360" y="365"/>
      <point x="426" y="172"/>
      <point x="497" y="-2" type="curve"/>
      <point x="455" y="3"/>
      <point x="425" y="1"/>
      <point x="402" y="-2" type="curve"/>
      <point x="390" y="59"/>
      <point x="367" y="139"/>
    </contour>
    <contour>
      <point x="261" y="475" type="curve"/>
      <point x="237" y="419"/>
      <point x="190" y="303"/>
      <point x="169" y="254" type="curve"/>
      <point x="222" y="253"/>
      <point x="283" y="256"/>
      <point x="330" y="260" type="curve"/>
      <point x="308" y="342"/>
      <point x="285" y="400"/>
    </contour>
    <contour>
      <point x="381" y="740" type="curve"/>
      <point x="383" y="721"/>
      <point x="391" y="696"/>
      <point x="400" y="677" type="curve"/>
      <point x="331" y="664"/>
      <point x="283" y="652"/>
      <point x="218" y="632" type="curve"/>
      <point x="214" y="640"/>
      <point x="212" y="648"/>
      <point x="211" y="655" type="curve"/>
      <point x="270" y="682"/>
      <point x="343" y="717"/>
    </contour>
  </outline>
</glyph>
<glyph name="Atilde" format="1">
  <advance width="514"/>
  <unicode hex="00C3"/>
  <outline>
    <contour>
      <point x="340" y="228" type="curve"/>
      <point x="287" y="225"/>
      <point x="200" y="218"/>
      <point x="154" y="214" type="curve"/>
      <point x="114" y="119"/>
      <point x="96" y="66"/>
      <point x="82" y="4" type="curve"/>
      <point x="62" y="5"/>
      <point x="17" y="-1"/>
      <point x="-8" y="-7" type="curve"/>
      <point x="77" y="137"/>
      <point x="142" y="281"/>
      <point x="210" y="441" type="curve"/>
      <point x="243" y="513"/>
      <point x="251" y="543"/>
      <point x="262" y="588" type="curve"/>
      <point x="273" y="593"/>
      <point x="280" y="596"/>
      <point x="292" y="598" type="curve"/>
      <point x="360" y="365"/>
      <point x="426" y="172"/>
      <point x="497" y="-2" type="curve"/>
      <point x="455" y="3"/>
      <point x="425" y="1"/>
      <point x="402" y="-2" type="curve"/>
      <point x="390" y="59"/>
      <point x="367" y="139"/>
    </contour>
    <contour>
      <point x="261" y="475" type="curve"/>
      <point x="237" y="419"/>
      <point x="190" y="303"/>
      <point x="169" y="254" type="curve"/>
      <point x="222" y="253"/>
      <point x="283" y="256"/>
      <point x="330" y="260" type="curve"/>
      <point x="308" y="342"/>
      <point x="285" y="400"/>
    </contour>
    <contour>
      <point x="311" y="640" type="curve" smooth="yes"/>
      <point x="294" y="640"/>
      <point x="257" y="658"/>
      <point x="240" y="658" type="curve" smooth="yes"/>
      <point x="216" y="658"/>
      <point x="199" y="648"/>
      <point x="176" y="633" type="curve"/>
      <point x="170" y="641"/>
      <point x="166" y="651"/>
      <point x="165" y="658" type="curve"/>
      <point x="191" y="683"/>
      <point x="237" y="708"/>
      <point x="258" y="708" type="curve" smooth="yes"/>
      <point x="277" y="708"/>
      <point x="310" y="692"/>
      <point x="330" y="692" type="curve" smooth="yes"/>
      <point x="353" y="692"/>
      <point x="371" y="702"/>
      <point x="392" y="714" type="curve"/>
      <point x="399" y="707"/>
      <point x="403" y="697"/>
      <point x="404" y="690" type="curve"/>
      <point x="373" y="660"/>
      <point x="332" y="640"/>
    </contour>
  </outline>
</glyph>
<glyph name="Adieresis" format="1">
  <advance width="514"/>
  <unicode hex="00C4"/>
  <outline>
    <contour>
      <point x="340" y="228" type="curve"/>
      <point x="287" y="225"/>
      <point x="200" y="218"/>
      <point x="154" y="214" type="curve"/>
      <point x="114" y="119"/>
      <point x="96" y="66"/>
      <point x="82" y="4" type="curve"/>
      <point x="62" y="5"/>
      <point x="17" y="-1"/>
      <point x="-8" y="-7" type="curve"/>
      <point x="77" y="137"/>
      <point x="142" y="281"/>
      <point x="210" y="441" type="curve"/>
      <point x="243" y="513"/>
      <point x="251" y="543"/>
      <point x="262" y="588" type="curve"/>
      <point x="273" y="593"/>
      <point x="280" y="596"/>
      <point x="292" y="598" type="curve"/>
      <point x="360" y="365"/>
      <point x="426" y="172"/>
      <point x="497" y="-2" type="curve"/>
      <point x="455" y="3"/>
      <point x="425" y="1"/>
      <point x="402" y="-2" type="curve"/>
      <point x="390" y="59"/>
      <point x="367" y="139"/>
    </contour>
    <contour>
      <point x="261" y="475" type="curve"/>
      <point x="237" y="419"/>
      <point x="190" y="303"/>
      <point x="169" y="254" type="curve"/>
      <point x="222" y="253"/>
      <point x="283" y="256"/>
      <point x="330" y="260" type="curve"/>
      <point x="308" y="342"/>
      <point x="285" y="400"/>
    </contour>
    <contour>
      <point x="218" y="706" type="curve" smooth="yes"/>
      <point x="242" y="706"/>
      <point x="255" y="694"/>
      <point x="255" y="678" type="curve" smooth="yes"/>
      <point x="255" y="658"/>
      <point x="227" y="645"/>
      <point x="204" y="645" type="curve" smooth="yes"/>
      <point x="187" y="645"/>
      <point x="172" y="656"/>
      <point x="172" y="670" type="curve" smooth="yes"/>
      <point x="172" y="689"/>
      <point x="196" y="706"/>
    </contour>
    <contour>
      <point x="359" y="706" type="curve" smooth="yes"/>
      <point x="384" y="706"/>
      <point x="397" y="694"/>
      <point x="397" y="678" type="curve" smooth="yes"/>
      <point x="397" y="658"/>
      <point x="369" y="645"/>
      <point x="346" y="645" type="curve" smooth="yes"/>
      <point x="329" y="645"/>
      <point x="314" y="656"/>
      <point x="314" y="670" type="curve" smooth="yes"/>
      <point x="314" y="689"/>
      <point x="337" y="706"/>
    </contour>
  </outline>
</glyph>
<glyph name="AE" format="1">
  <advance width="775"/>
  <unicode hex="00C6"/>
  <outline>
    <contour>
      <point x="484" y="544" type="curve"/>
      <point x="480" y="505"/>
      <point x="479" y="377"/>
      <point x="479" y="354" type="curve"/>
      <point x="557" y="352"/>
      <point x="625" y="352"/>
      <point x="702" y="355" type="curve"/>
      <point x="703" y="322" type="line"/>
      <point x="640" y="320"/>
      <point x="545" y="315"/>
      <point x="479" y="309" type="curve"/>
      <point x="478" y="250"/>
      <point x="479" y="116"/>
      <point x="482" y="52" type="curve"/>
      <point x="557" y="42"/>
      <point x="641" y="40"/>
      <point x="758" y="37" type="curve"/>
      <point x="761" y="2" type="line"/>
      <point x="526" y="6"/>
      <point x="511" y="6"/>
      <point x="397" y="2" type="curve"/>
      <point x="402" y="38"/>
      <point x="406" y="137"/>
      <point x="407" y="244" type="curve"/>
      <point x="347" y="241"/>
      <point x="255" y="233"/>
      <point x="216" y="230" type="curve"/>
      <point x="159" y="135"/>
      <point x="124" y="67"/>
      <point x="96" y="4" type="curve"/>
      <point x="76" y="5"/>
      <point x="22" y="-1"/>
      <point x="-4" y="-7" type="curve"/>
      <point x="135" y="172"/>
      <point x="305" y="424"/>
      <point x="398" y="586" type="curve"/>
      <point x="483" y="583"/>
      <point x="626" y="584"/>
      <point x="741" y="587" type="curve"/>
      <point x="738" y="555" type="line"/>
      <point x="638" y="552"/>
      <point x="577" y="551"/>
    </contour>
    <contour>
      <point x="244" y="273" type="curve"/>
      <point x="287" y="272"/>
      <point x="355" y="276"/>
      <point x="407" y="280" type="curve"/>
      <point x="408" y="378"/>
      <point x="408" y="469"/>
      <point x="406" y="531" type="curve"/>
      <point x="357" y="458"/>
      <point x="310" y="382"/>
    </contour>
  </outline>
</glyph>
<glyph name="Ccedilla" format="1">
  <advance width="538"/>
  <unicode hex="00C7"/>
  <outline>
    <contour>
      <point x="232" y="-105" type="curve"/>
      <point x="246" y="-81"/>
      <point x="263" y="-44"/>
      <point x="276" y="-13" type="curve"/>
      <point x="102" y="-2"/>
      <point x="33" y="128"/>
      <point x="33" y="245" type="curve" smooth="yes"/>
      <point x="33" y="373"/>
      <point x="121" y="595"/>
      <point x="372" y="595" type="curve" smooth="yes"/>
      <point x="402" y="595"/>
      <point x="456" y="580"/>
      <point x="486" y="559" type="curve"/>
      <point x="485" y="551"/>
      <point x="476" y="535"/>
      <point x="470" y="531" type="curve"/>
      <point x="439" y="546"/>
      <point x="398" y="554"/>
      <point x="368" y="554" type="curve" smooth="yes"/>
      <point x="218" y="554"/>
      <point x="107" y="433"/>
      <point x="107" y="251" type="curve" smooth="yes"/>
      <point x="107" y="130"/>
      <point x="196" y="40"/>
      <point x="320" y="38" type="curve" smooth="yes"/>
      <point x="370" y="37"/>
      <point x="431" y="53"/>
      <point x="491" y="85" type="curve"/>
      <point x="499" y="77"/>
      <point x="506" y="64"/>
      <point x="507" y="55" type="curve"/>
      <point x="457" y="26"/>
      <point x="377" y="-7"/>
      <point x="312" y="-13" type="curve"/>
      <point x="303" y="-32"/>
      <point x="295" y="-50"/>
      <point x="288" y="-71" type="curve"/>
      <point x="309" y="-86"/>
      <point x="335" y="-112"/>
      <point x="335" y="-141" type="curve" smooth="yes"/>
      <point x="335" y="-161"/>
      <point x="311" y="-216"/>
      <point x="268" y="-266" type="curve"/>
      <point x="263" y="-263"/>
      <point x="251" y="-256"/>
      <point x="246" y="-251" type="curve"/>
      <point x="262" y="-226"/>
      <point x="281" y="-192"/>
      <point x="281" y="-160" type="curve" smooth="yes"/>
      <point x="281" y="-143"/>
      <point x="255" y="-119"/>
    </contour>
  </outline>
</glyph>
<glyph name="Edieresis" format="1">
  <advance width="426"/>
  <unicode hex="00CB"/>
  <outline>
    <contour>
      <point x="55" y="583" type="curve"/>
      <point x="140" y="580"/>
      <point x="277" y="581"/>
      <point x="392" y="583" type="curve"/>
      <point x="390" y="551" type="line"/>
      <point x="289" y="549"/>
      <point x="228" y="546"/>
      <point x="136" y="539" type="curve"/>
      <point x="132" y="500"/>
      <point x="131" y="372"/>
      <point x="131" y="349" type="curve"/>
      <point x="208" y="347"/>
      <point x="276" y="347"/>
      <point x="353" y="350" type="curve"/>
      <point x="355" y="317" type="line"/>
      <point x="291" y="315"/>
      <point x="196" y="310"/>
      <point x="130" y="304" type="curve"/>
      <point x="129" y="245"/>
      <point x="131" y="111"/>
      <point x="133" y="47" type="curve"/>
      <point x="208" y="37"/>
      <point x="292" y="35"/>
      <point x="409" y="32" type="curve"/>
      <point x="412" y="-2" type="line"/>
      <point x="178" y="1"/>
      <point x="162" y="1"/>
      <point x="48" y="-2" type="curve"/>
      <point x="61" y="83"/>
      <point x="64" y="531"/>
    </contour>
    <contour>
      <point x="174" y="706" type="curve" smooth="yes"/>
      <point x="198" y="706"/>
      <point x="211" y="694"/>
      <point x="211" y="678" type="curve" smooth="yes"/>
      <point x="211" y="658"/>
      <point x="183" y="645"/>
      <point x="160" y="645" type="curve" smooth="yes"/>
      <point x="143" y="645"/>
      <point x="128" y="656"/>
      <point x="128" y="670" type="curve" smooth="yes"/>
      <point x="128" y="689"/>
      <point x="152" y="706"/>
    </contour>
    <contour>
      <point x="315" y="706" type="curve" smooth="yes"/>
      <point x="340" y="706"/>
      <point x="353" y="694"/>
      <point x="353" y="678" type="curve" smooth="yes"/>
      <point x="353" y="658"/>
      <point x="325" y="645"/>
      <point x="302" y="645" type="curve" smooth="yes"/>
      <point x="285" y="645"/>
      <point x="270" y="656"/>
      <point x="270" y="670" type="curve" smooth="yes"/>
      <point x="270" y="689"/>
      <point x="293" y="706"/>
    </contour>
  </outline>
</glyph>
<glyph name="Igrave" format="1">
  <advance width="184"/>
  <unicode hex="00CC"/>
  <outline>
    <contour>
      <point x="55" y="583" type="curve"/>
      <point x="72" y="579"/>
      <point x="114" y="581"/>
      <point x="136" y="583" type="curve"/>
      <point x="121" y="387"/>
      <point x="122" y="146"/>
      <point x="130" y="-2" type="curve"/>
      <point x="104" y="1"/>
      <point x="72" y="3"/>
      <point x="48" y="0" type="curve"/>
      <point x="61" y="133"/>
      <point x="62" y="424"/>
    </contour>
    <contour>
      <point x="3" y="740" type="curve"/>
      <point x="40" y="717"/>
      <point x="119" y="683"/>
      <point x="178" y="656" type="curve"/>
      <point x="176" y="647"/>
      <point x="172" y="640"/>
      <point x="166" y="631" type="curve"/>
      <point x="101" y="651"/>
      <point x="53" y="664"/>
      <point x="-16" y="677" type="curve"/>
      <point x="-7" y="696"/>
      <point x="1" y="721"/>
    </contour>
  </outline>
</glyph>
<glyph name="Iacute" format="1">
  <advance width="184"/>
  <unicode hex="00CD"/>
  <outline>
    <contour>
      <point x="55" y="583" type="curve"/>
      <point x="72" y="579"/>
      <point x="114" y="581"/>
      <point x="136" y="583" type="curve"/>
      <point x="121" y="387"/>
      <point x="122" y="146"/>
      <point x="130" y="-2" type="curve"/>
      <point x="104" y="1"/>
      <point x="72" y="3"/>
      <point x="48" y="0" type="curve"/>
      <point x="61" y="133"/>
      <point x="62" y="424"/>
    </contour>
    <contour>
      <point x="187" y="739" type="curve"/>
      <point x="189" y="720"/>
      <point x="197" y="695"/>
      <point x="206" y="676" type="curve"/>
      <point x="137" y="663"/>
      <point x="89" y="651"/>
      <point x="24" y="631" type="curve"/>
      <point x="20" y="639"/>
      <point x="18" y="647"/>
      <point x="17" y="654" type="curve"/>
      <point x="76" y="681"/>
      <point x="149" y="716"/>
    </contour>
  </outline>
</glyph>
<glyph name="Icircumflex" format="1">
  <advance width="184"/>
  <unicode hex="00CE"/>
  <outline>
    <contour>
      <point x="55" y="583" type="curve"/>
      <point x="72" y="579"/>
      <point x="114" y="581"/>
      <point x="136" y="583" type="curve"/>
      <point x="121" y="387"/>
      <point x="122" y="146"/>
      <point x="130" y="-2" type="curve"/>
      <point x="104" y="1"/>
      <point x="72" y="3"/>
      <point x="48" y="0" type="curve"/>
      <point x="61" y="133"/>
      <point x="62" y="424"/>
    </contour>
    <contour>
      <point x="-1" y="631" type="curve"/>
      <point x="-5" y="636"/>
      <point x="-11" y="646"/>
      <point x="-12" y="655" type="curve"/>
      <point x="21" y="675"/>
      <point x="50" y="695"/>
      <point x="99" y="730" type="curve"/>
      <point x="133" y="702"/>
      <point x="163" y="679"/>
      <point x="197" y="657" type="curve"/>
      <point x="195" y="650"/>
      <point x="190" y="639"/>
      <point x="185" y="633" type="curve"/>
      <point x="145" y="653"/>
      <point x="129" y="660"/>
      <point x="97" y="670" type="curve"/>
      <point x="63" y="661"/>
      <point x="28" y="645"/>
    </contour>
  </outline>
</glyph>
<glyph name="Idieresis" format="1">
  <advance width="184"/>
  <unicode hex="00CF"/>
  <outline>
    <contour>
      <point x="35" y="705" type="curve" smooth="yes"/>
      <point x="60" y="705"/>
      <point x="73" y="694"/>
      <point x="73" y="678" type="curve" smooth="yes"/>
      <point x="73" y="658"/>
      <point x="45" y="645"/>
      <point x="22" y="645" type="curve" smooth="yes"/>
      <point x="5" y="645"/>
      <point x="-10" y="655"/>
      <point x="-10" y="669" type="curve" smooth="yes"/>
      <point x="-10" y="688"/>
      <point x="14" y="705"/>
    </contour>
    <contour>
      <point x="170" y="705" type="curve" smooth="yes"/>
      <point x="195" y="705"/>
      <point x="208" y="694"/>
      <point x="208" y="678" type="curve" smooth="yes"/>
      <point x="208" y="658"/>
      <point x="180" y="645"/>
      <point x="157" y="645" type="curve" smooth="yes"/>
      <point x="140" y="645"/>
      <point x="125" y="655"/>
      <point x="125" y="669" type="curve" smooth="yes"/>
      <point x="125" y="688"/>
      <point x="149" y="705"/>
    </contour>
    <contour>
      <point x="55" y="583" type="curve"/>
      <point x="72" y="579"/>
      <point x="114" y="581"/>
      <point x="136" y="583" type="curve"/>
      <point x="121" y="387"/>
      <point x="122" y="146"/>
      <point x="130" y="-2" type="curve"/>
      <point x="104" y="1"/>
      <point x="72" y="3"/>
      <point x="48" y="0" type="curve"/>
      <point x="61" y="133"/>
      <point x="62" y="424"/>
    </contour>
  </outline>
</glyph>
<glyph name="Ntilde" format="1">
  <advance width="608"/>
  <unicode hex="00D1"/>
  <outline>
    <contour>
      <point x="548" y="3" type="curve"/>
      <point x="524" y="-7" type="line"/>
      <point x="390" y="157"/>
      <point x="180" y="376"/>
      <point x="104" y="459" type="curve"/>
      <point x="102" y="325"/>
      <point x="123" y="42"/>
      <point x="129" y="9" type="curve"/>
      <point x="103" y="5"/>
      <point x="79" y="2"/>
      <point x="47" y="-14" type="curve"/>
      <point x="63" y="98"/>
      <point x="67" y="400"/>
      <point x="65" y="582" type="curve"/>
      <point x="88" y="593" type="line"/>
      <point x="197" y="451"/>
      <point x="372" y="278"/>
      <point x="501" y="144" type="curve"/>
      <point x="501" y="316"/>
      <point x="494" y="475"/>
      <point x="482" y="575" type="curve"/>
      <point x="503" y="579"/>
      <point x="539" y="587"/>
      <point x="560" y="596" type="curve"/>
      <point x="546" y="558"/>
      <point x="538" y="313"/>
      <point x="540" y="103" type="curve" smooth="yes"/>
      <point x="540" y="76"/>
      <point x="543" y="36"/>
    </contour>
    <contour>
      <point x="346" y="641" type="curve" smooth="yes"/>
      <point x="329" y="641"/>
      <point x="292" y="659"/>
      <point x="275" y="659" type="curve" smooth="yes"/>
      <point x="251" y="659"/>
      <point x="234" y="649"/>
      <point x="211" y="634" type="curve"/>
      <point x="205" y="642"/>
      <point x="201" y="652"/>
      <point x="200" y="659" type="curve"/>
      <point x="226" y="684"/>
      <point x="272" y="709"/>
      <point x="293" y="709" type="curve" smooth="yes"/>
      <point x="312" y="709"/>
      <point x="345" y="693"/>
      <point x="365" y="693" type="curve" smooth="yes"/>
      <point x="388" y="693"/>
      <point x="406" y="703"/>
      <point x="427" y="715" type="curve"/>
      <point x="434" y="708"/>
      <point x="438" y="698"/>
      <point x="439" y="691" type="curve"/>
      <point x="408" y="661"/>
      <point x="367" y="641"/>
    </contour>
  </outline>
</glyph>
<glyph name="Ocircumflex" format="1">
  <advance width="662"/>
  <unicode hex="00D4"/>
  <outline>
    <contour>
      <point x="357" y="594" type="curve" smooth="yes"/>
      <point x="511" y="594"/>
      <point x="625" y="482"/>
      <point x="626" y="315" type="curve" smooth="yes"/>
      <point x="626" y="211"/>
      <point x="573" y="108"/>
      <point x="489" y="43" type="curve" smooth="yes"/>
      <point x="449" y="12"/>
      <point x="360" y="-17"/>
      <point x="297" y="-17" type="curve" smooth="yes"/>
      <point x="96" y="-17"/>
      <point x="35" y="160"/>
      <point x="35" y="276" type="curve"/>
      <point x="37" y="359"/>
      <point x="79" y="478"/>
      <point x="181" y="542" type="curve" smooth="yes"/>
      <point x="221" y="568"/>
      <point x="300" y="594"/>
    </contour>
    <contour>
      <point x="343" y="549" type="curve" smooth="yes"/>
      <point x="224" y="549"/>
      <point x="112" y="462"/>
      <point x="112" y="278" type="curve" smooth="yes"/>
      <point x="112" y="139"/>
      <point x="206" y="30"/>
      <point x="320" y="30" type="curve" smooth="yes"/>
      <point x="443" y="30"/>
      <point x="551" y="136"/>
      <point x="551" y="311" type="curve" smooth="yes"/>
      <point x="551" y="499"/>
      <point x="414" y="549"/>
    </contour>
    <contour>
      <point x="250" y="631" type="curve"/>
      <point x="246" y="636"/>
      <point x="240" y="646"/>
      <point x="239" y="655" type="curve"/>
      <point x="272" y="675"/>
      <point x="301" y="695"/>
      <point x="350" y="730" type="curve"/>
      <point x="384" y="702"/>
      <point x="414" y="679"/>
      <point x="448" y="657" type="curve"/>
      <point x="446" y="650"/>
      <point x="441" y="639"/>
      <point x="436" y="633" type="curve"/>
      <point x="396" y="653"/>
      <point x="380" y="660"/>
      <point x="348" y="670" type="curve"/>
      <point x="314" y="661"/>
      <point x="279" y="645"/>
    </contour>
  </outline>
</glyph>
<glyph name="Otilde" format="1">
  <advance width="662"/>
  <unicode hex="00D5"/>
  <outline>
    <contour>
      <point x="357" y="594" type="curve" smooth="yes"/>
      <point x="511" y="594"/>
      <point x="625" y="482"/>
      <point x="626" y="315" type="curve" smooth="yes"/>
      <point x="626" y="211"/>
      <point x="573" y="108"/>
      <point x="489" y="43" type="curve" smooth="yes"/>
      <point x="449" y="12"/>
      <point x="360" y="-17"/>
      <point x="297" y="-17" type="curve" smooth="yes"/>
      <point x="96" y="-17"/>
      <point x="35" y="160"/>
      <point x="35" y="276" type="curve"/>
      <point x="37" y="359"/>
      <point x="79" y="478"/>
      <point x="181" y="542" type="curve" smooth="yes"/>
      <point x="221" y="568"/>
      <point x="300" y="594"/>
    </contour>
    <contour>
      <point x="343" y="549" type="curve" smooth="yes"/>
      <point x="224" y="549"/>
      <point x="112" y="462"/>
      <point x="112" y="278" type="curve" smooth="yes"/>
      <point x="112" y="139"/>
      <point x="206" y="30"/>
      <point x="320" y="30" type="curve" smooth="yes"/>
      <point x="443" y="30"/>
      <point x="551" y="136"/>
      <point x="551" y="311" type="curve" smooth="yes"/>
      <point x="551" y="499"/>
      <point x="414" y="549"/>
    </contour>
    <contour>
      <point x="377" y="640" type="curve" smooth="yes"/>
      <point x="360" y="640"/>
      <point x="323" y="658"/>
      <point x="306" y="658" type="curve" smooth="yes"/>
      <point x="282" y="658"/>
      <point x="265" y="648"/>
      <point x="242" y="633" type="curve"/>
      <point x="236" y="641"/>
      <point x="232" y="651"/>
      <point x="231" y="658" type="curve"/>
      <point x="257" y="683"/>
      <point x="303" y="708"/>
      <point x="324" y="708" type="curve" smooth="yes"/>
      <point x="343" y="708"/>
      <point x="376" y="692"/>
      <point x="396" y="692" type="curve" smooth="yes"/>
      <point x="419" y="692"/>
      <point x="437" y="702"/>
      <point x="458" y="714" type="curve"/>
      <point x="465" y="707"/>
      <point x="469" y="697"/>
      <point x="470" y="690" type="curve"/>
      <point x="439" y="660"/>
      <point x="398" y="640"/>
    </contour>
  </outline>
</glyph>
<glyph name="Odieresis" format="1">
  <advance width="662"/>
  <unicode hex="00D6"/>
  <outline>
    <contour>
      <point x="270" y="705" type="curve" smooth="yes"/>
      <point x="295" y="705"/>
      <point x="308" y="694"/>
      <point x="308" y="678" type="curve" smooth="yes"/>
      <point x="308" y="658"/>
      <point x="280" y="645"/>
      <point x="257" y="645" type="curve" smooth="yes"/>
      <point x="240" y="645"/>
      <point x="225" y="655"/>
      <point x="225" y="669" type="curve" smooth="yes"/>
      <point x="225" y="688"/>
      <point x="248" y="705"/>
    </contour>
    <contour>
      <point x="417" y="705" type="curve" smooth="yes"/>
      <point x="442" y="705"/>
      <point x="455" y="694"/>
      <point x="455" y="678" type="curve" smooth="yes"/>
      <point x="455" y="658"/>
      <point x="427" y="645"/>
      <point x="404" y="645" type="curve" smooth="yes"/>
      <point x="387" y="645"/>
      <point x="372" y="655"/>
      <point x="372" y="669" type="curve" smooth="yes"/>
      <point x="372" y="688"/>
      <point x="396" y="705"/>
    </contour>
    <contour>
      <point x="357" y="594" type="curve" smooth="yes"/>
      <point x="511" y="594"/>
      <point x="625" y="482"/>
      <point x="626" y="315" type="curve" smooth="yes"/>
      <point x="626" y="211"/>
      <point x="573" y="108"/>
      <point x="489" y="43" type="curve" smooth="yes"/>
      <point x="449" y="12"/>
      <point x="360" y="-17"/>
      <point x="297" y="-17" type="curve" smooth="yes"/>
      <point x="96" y="-17"/>
      <point x="35" y="160"/>
      <point x="35" y="276" type="curve"/>
      <point x="37" y="359"/>
      <point x="79" y="478"/>
      <point x="181" y="542" type="curve" smooth="yes"/>
      <point x="221" y="568"/>
      <point x="300" y="594"/>
    </contour>
    <contour>
      <point x="343" y="549" type="curve" smooth="yes"/>
      <point x="224" y="549"/>
      <point x="112" y="462"/>
      <point x="112" y="278" type="curve" smooth="yes"/>
      <point x="112" y="139"/>
      <point x="206" y="30"/>
      <point x="320" y="30" type="curve" smooth="yes"/>
      <point x="443" y="30"/>
      <point x="551" y="136"/>
      <point x="551" y="311" type="curve" smooth="yes"/>
      <point x="551" y="499"/>
      <point x="414" y="549"/>
    </contour>
  </outline>
</glyph>
<glyph name="Oslash" format="1">
  <advance width="662"/>
  <unicode hex="00D8"/>
  <outline>
    <contour>
      <point x="357" y="594" type="curve" smooth="yes"/>
      <point x="386" y="594"/>
      <point x="414" y="590"/>
      <point x="439" y="582" type="curve"/>
      <point x="464" y="634" type="line"/>
      <point x="473" y="633"/>
      <point x="493" y="630"/>
      <point x="502" y="624" type="curve"/>
      <point x="475" y="569" type="line"/>
      <point x="566" y="527"/>
      <point x="625" y="435"/>
      <point x="626" y="315" type="curve" smooth="yes"/>
      <point x="626" y="211"/>
      <point x="573" y="108"/>
      <point x="489" y="43" type="curve" smooth="yes"/>
      <point x="449" y="12"/>
      <point x="360" y="-17"/>
      <point x="297" y="-17" type="curve" smooth="yes"/>
      <point x="263" y="-17"/>
      <point x="232" y="-12"/>
      <point x="205" y="-3" type="curve"/>
      <point x="196" y="-23"/>
      <point x="186" y="-44"/>
      <point x="178" y="-63" type="curve"/>
      <point x="168" y="-61"/>
      <point x="150" y="-57"/>
      <point x="139" y="-49" type="curve"/>
      <point x="169" y="13" type="line"/>
      <point x="69" y="69"/>
      <point x="35" y="189"/>
      <point x="35" y="276" type="curve"/>
      <point x="37" y="359"/>
      <point x="79" y="478"/>
      <point x="181" y="542" type="curve" smooth="yes"/>
      <point x="221" y="568"/>
      <point x="300" y="594"/>
    </contour>
    <contour>
      <point x="231" y="53" type="curve"/>
      <point x="258" y="38"/>
      <point x="288" y="30"/>
      <point x="320" y="30" type="curve" smooth="yes"/>
      <point x="443" y="30"/>
      <point x="551" y="136"/>
      <point x="551" y="311" type="curve" smooth="yes"/>
      <point x="551" y="422"/>
      <point x="504" y="484"/>
      <point x="450" y="517" type="curve"/>
      <point x="379" y="371"/>
      <point x="300" y="201"/>
    </contour>
    <contour>
      <point x="343" y="549" type="curve" smooth="yes"/>
      <point x="224" y="549"/>
      <point x="112" y="462"/>
      <point x="112" y="278" type="curve" smooth="yes"/>
      <point x="112" y="193"/>
      <point x="146" y="120"/>
      <point x="200" y="75" type="curve"/>
      <point x="271" y="222"/>
      <point x="350" y="389"/>
      <point x="417" y="534" type="curve"/>
      <point x="390" y="544"/>
      <point x="364" y="549"/>
    </contour>
  </outline>
</glyph>
<glyph name="Ugrave" format="1">
  <advance width="579"/>
  <unicode hex="00D9"/>
  <outline>
    <contour>
      <point x="35" y="582" type="curve"/>
      <point x="72" y="580"/>
      <point x="95" y="580"/>
      <point x="124" y="584" type="curve"/>
      <point x="119" y="454"/>
      <point x="131" y="305"/>
      <point x="149" y="182" type="curve" smooth="yes"/>
      <point x="161" y="102"/>
      <point x="209" y="33"/>
      <point x="293" y="33" type="curve" smooth="yes"/>
      <point x="388" y="33"/>
      <point x="440" y="98"/>
      <point x="457" y="192" type="curve" smooth="yes"/>
      <point x="476" y="303"/>
      <point x="480" y="494"/>
      <point x="472" y="573" type="curve"/>
      <point x="499" y="578"/>
      <point x="529" y="588"/>
      <point x="554" y="601" type="curve"/>
      <point x="538" y="487"/>
      <point x="522" y="328"/>
      <point x="504" y="215" type="curve" smooth="yes"/>
      <point x="484" y="86"/>
      <point x="422" y="-14"/>
      <point x="284" y="-14" type="curve" smooth="yes"/>
      <point x="154" y="-14"/>
      <point x="94" y="48"/>
      <point x="72" y="204" type="curve"/>
      <point x="55" y="337"/>
      <point x="52" y="468"/>
    </contour>
    <contour>
      <point x="218" y="740" type="curve"/>
      <point x="255" y="717"/>
      <point x="334" y="683"/>
      <point x="393" y="656" type="curve"/>
      <point x="391" y="647"/>
      <point x="387" y="640"/>
      <point x="381" y="631" type="curve"/>
      <point x="316" y="651"/>
      <point x="268" y="664"/>
      <point x="199" y="677" type="curve"/>
      <point x="208" y="696"/>
      <point x="216" y="721"/>
    </contour>
  </outline>
</glyph>
<glyph name="Ucircumflex" format="1">
  <advance width="579"/>
  <unicode hex="00DB"/>
  <outline>
    <contour>
      <point x="35" y="582" type="curve"/>
      <point x="72" y="580"/>
      <point x="95" y="580"/>
      <point x="124" y="584" type="curve"/>
      <point x="119" y="454"/>
      <point x="131" y="305"/>
      <point x="149" y="182" type="curve" smooth="yes"/>
      <point x="161" y="102"/>
      <point x="209" y="33"/>
      <point x="293" y="33" type="curve" smooth="yes"/>
      <point x="388" y="33"/>
      <point x="440" y="98"/>
      <point x="457" y="192" type="curve" smooth="yes"/>
      <point x="476" y="303"/>
      <point x="480" y="494"/>
      <point x="472" y="573" type="curve"/>
      <point x="499" y="578"/>
      <point x="529" y="588"/>
      <point x="554" y="601" type="curve"/>
      <point x="538" y="487"/>
      <point x="522" y="328"/>
      <point x="504" y="215" type="curve" smooth="yes"/>
      <point x="484" y="86"/>
      <point x="422" y="-14"/>
      <point x="284" y="-14" type="curve" smooth="yes"/>
      <point x="154" y="-14"/>
      <point x="94" y="48"/>
      <point x="72" y="204" type="curve"/>
      <point x="55" y="337"/>
      <point x="52" y="468"/>
    </contour>
    <contour>
      <point x="216" y="631" type="curve"/>
      <point x="212" y="636"/>
      <point x="206" y="646"/>
      <point x="205" y="655" type="curve"/>
      <point x="238" y="675"/>
      <point x="267" y="695"/>
      <point x="316" y="730" type="curve"/>
      <point x="350" y="702"/>
      <point x="380" y="679"/>
      <point x="414" y="657" type="curve"/>
      <point x="412" y="650"/>
      <point x="407" y="639"/>
      <point x="402" y="633" type="curve"/>
      <point x="362" y="653"/>
      <point x="346" y="660"/>
      <point x="314" y="670" type="curve"/>
      <point x="280" y="661"/>
      <point x="245" y="645"/>
    </contour>
  </outline>
</glyph>
<glyph name="Yacute" format="1">
  <advance width="459"/>
  <unicode hex="00DD"/>
  <outline>
    <contour>
      <point x="5" y="583" type="curve"/>
      <point x="54" y="579"/>
      <point x="74" y="580"/>
      <point x="115" y="583" type="curve"/>
      <point x="145" y="502"/>
      <point x="190" y="422"/>
      <point x="242" y="350" type="curve"/>
      <point x="303" y="430"/>
      <point x="352" y="502"/>
      <point x="387" y="577" type="curve"/>
      <point x="414" y="578"/>
      <point x="444" y="580"/>
      <point x="479" y="588" type="curve"/>
      <point x="383" y="480"/>
      <point x="343" y="427"/>
      <point x="256" y="302" type="curve"/>
      <point x="252" y="162"/>
      <point x="254" y="72"/>
      <point x="265" y="-1" type="curve"/>
      <point x="228" y="2"/>
      <point x="210" y="3"/>
      <point x="180" y="-1" type="curve"/>
      <point x="186" y="62"/>
      <point x="191" y="218"/>
      <point x="186" y="303" type="curve"/>
      <point x="146" y="382"/>
      <point x="48" y="533"/>
    </contour>
    <contour>
      <point x="350" y="740" type="curve"/>
      <point x="352" y="721"/>
      <point x="360" y="696"/>
      <point x="369" y="677" type="curve"/>
      <point x="300" y="664"/>
      <point x="252" y="652"/>
      <point x="187" y="632" type="curve"/>
      <point x="183" y="640"/>
      <point x="181" y="648"/>
      <point x="180" y="655" type="curve"/>
      <point x="239" y="682"/>
      <point x="312" y="717"/>
    </contour>
  </outline>
</glyph>
<glyph name="Thorn" format="1">
  <advance width="451"/>
  <unicode hex="00DE"/>
  <outline>
    <contour>
      <point x="55" y="583" type="curve"/>
      <point x="72" y="579"/>
      <point x="114" y="581"/>
      <point x="136" y="583" type="curve"/>
      <point x="132" y="542"/>
      <point x="130" y="498"/>
      <point x="128" y="454" type="curve"/>
      <point x="150" y="454"/>
      <point x="176" y="455"/>
      <point x="218" y="455" type="curve" smooth="yes"/>
      <point x="341" y="455"/>
      <point x="426" y="444"/>
      <point x="426" y="330" type="curve" smooth="yes"/>
      <point x="426" y="264"/>
      <point x="333" y="185"/>
      <point x="194" y="150" type="curve" smooth="yes"/>
      <point x="191" y="150"/>
      <point x="185" y="177"/>
      <point x="185" y="181" type="curve"/>
      <point x="282" y="215"/>
      <point x="353" y="245"/>
      <point x="353" y="327" type="curve" smooth="yes"/>
      <point x="353" y="392"/>
      <point x="292" y="413"/>
      <point x="224" y="416" type="curve"/>
      <point x="176" y="417"/>
      <point x="145" y="416"/>
      <point x="127" y="413" type="curve"/>
      <point x="122" y="259"/>
      <point x="124" y="106"/>
      <point x="130" y="-2" type="curve"/>
      <point x="104" y="1"/>
      <point x="72" y="3"/>
      <point x="48" y="0" type="curve"/>
      <point x="61" y="133"/>
      <point x="62" y="424"/>
    </contour>
  </outline>
</glyph>
<glyph name="germandbls" format="1">
  <advance width="416"/>
  <unicode hex="00DF"/>
  <outline>
    <contour>
      <point x="207" y="-2" type="curve"/>
      <point x="206" y="3"/>
      <point x="209" y="25"/>
      <point x="211" y="32" type="curve"/>
      <point x="255" y="26"/>
      <point x="308" y="38"/>
      <point x="308" y="91" type="curve" smooth="yes"/>
      <point x="308" y="147"/>
      <point x="275" y="186"/>
      <point x="257" y="213" type="curve" smooth="yes"/>
      <point x="236" y="245"/>
      <point x="205" y="283"/>
      <point x="205" y="316" type="curve" smooth="yes"/>
      <point x="205" y="361"/>
      <point x="236" y="405"/>
      <point x="259" y="441" type="curve" smooth="yes"/>
      <point x="283" y="478"/>
      <point x="293" y="507"/>
      <point x="293" y="540" type="curve" smooth="yes"/>
      <point x="293" y="596"/>
      <point x="260" y="641"/>
      <point x="201" y="641" type="curve" smooth="yes"/>
      <point x="186" y="641"/>
      <point x="164" y="630"/>
      <point x="153" y="605" type="curve" smooth="yes"/>
      <point x="136" y="566"/>
      <point x="132" y="536"/>
      <point x="132" y="383" type="curve" smooth="yes"/>
      <point x="132" y="280"/>
      <point x="134" y="90"/>
      <point x="146" y="-2" type="curve"/>
      <point x="122" y="2"/>
      <point x="83" y="1"/>
      <point x="61" y="-2" type="curve"/>
      <point x="72" y="119"/>
      <point x="71" y="229"/>
      <point x="71" y="345" type="curve"/>
      <point x="64" y="345"/>
      <point x="51" y="346"/>
      <point x="37" y="345" type="curve"/>
      <point x="37" y="356"/>
      <point x="37" y="370"/>
      <point x="39" y="383" type="curve"/>
      <point x="70" y="383" type="line"/>
      <point x="71" y="408"/>
      <point x="71" y="473"/>
      <point x="72" y="518" type="curve" smooth="yes"/>
      <point x="76" y="610"/>
      <point x="170" y="692"/>
      <point x="214" y="692" type="curve" smooth="yes"/>
      <point x="315" y="692"/>
      <point x="350" y="628"/>
      <point x="350" y="563" type="curve" smooth="yes"/>
      <point x="350" y="528"/>
      <point x="330" y="481"/>
      <point x="303" y="442" type="curve"/>
      <point x="280" y="407"/>
      <point x="263" y="375"/>
      <point x="263" y="342" type="curve" smooth="yes"/>
      <point x="263" y="304"/>
      <point x="295" y="266"/>
      <point x="313" y="244" type="curve" smooth="yes"/>
      <point x="345" y="206"/>
      <point x="372" y="163"/>
      <point x="372" y="109" type="curve" smooth="yes"/>
      <point x="372" y="70"/>
      <point x="333" y="31"/>
      <point x="317" y="18" type="curve" smooth="yes"/>
      <point x="288" y="-5"/>
      <point x="251" y="-9"/>
    </contour>
  </outline>
</glyph>
<glyph name="agrave" format="1">
  <advance width="375"/>
  <unicode hex="00E0"/>
  <outline>
    <contour>
      <point x="112" y="562" type="curve"/>
      <point x="149" y="539"/>
      <point x="228" y="505"/>
      <point x="287" y="478" type="curve"/>
      <point x="285" y="469"/>
      <point x="281" y="462"/>
      <point x="275" y="453" type="curve"/>
      <point x="210" y="473"/>
      <point x="162" y="486"/>
      <point x="93" y="499" type="curve"/>
      <point x="102" y="518"/>
      <point x="110" y="543"/>
    </contour>
    <contour>
      <point x="73" y="359" type="curve"/>
      <point x="119" y="378"/>
      <point x="177" y="387"/>
      <point x="221" y="387" type="curve" smooth="yes"/>
      <point x="258" y="387"/>
      <point x="282" y="377"/>
      <point x="301" y="360" type="curve" smooth="yes"/>
      <point x="309" y="353"/>
      <point x="320" y="337"/>
      <point x="320" y="311" type="curve" smooth="yes"/>
      <point x="319" y="260"/>
      <point x="319" y="119"/>
      <point x="320" y="64" type="curve" smooth="yes"/>
      <point x="321" y="48"/>
      <point x="321" y="22"/>
      <point x="326" y="-2" type="curve"/>
      <point x="291" y="2"/>
      <point x="291" y="2"/>
      <point x="256" y="-2" type="curve"/>
      <point x="254" y="9"/>
      <point x="254" y="28"/>
      <point x="254" y="36" type="curve"/>
      <point x="202" y="15"/>
      <point x="139" y="-9"/>
      <point x="111" y="-9" type="curve" smooth="yes"/>
      <point x="76" y="-9"/>
      <point x="60" y="-3"/>
      <point x="41" y="33" type="curve" smooth="yes"/>
      <point x="34" y="46"/>
      <point x="28" y="86"/>
      <point x="31" y="105" type="curve" smooth="yes"/>
      <point x="38" y="159"/>
      <point x="81" y="184"/>
      <point x="122" y="194" type="curve" smooth="yes"/>
      <point x="162" y="204"/>
      <point x="212" y="212"/>
      <point x="254" y="218" type="curve"/>
      <point x="256" y="241"/>
      <point x="256" y="284"/>
      <point x="253" y="303" type="curve" smooth="yes"/>
      <point x="249" y="337"/>
      <point x="205" y="340"/>
      <point x="166" y="340" type="curve" smooth="yes"/>
      <point x="128" y="340"/>
      <point x="93" y="331"/>
      <point x="79" y="327" type="curve"/>
      <point x="75" y="332"/>
      <point x="73" y="346"/>
    </contour>
    <contour>
      <point x="153" y="45" type="curve" smooth="yes"/>
      <point x="172" y="46"/>
      <point x="228" y="60"/>
      <point x="253" y="69" type="curve"/>
      <point x="253" y="107"/>
      <point x="253" y="150"/>
      <point x="254" y="182" type="curve"/>
      <point x="217" y="176"/>
      <point x="184" y="174"/>
      <point x="145" y="161" type="curve"/>
      <point x="107" y="147"/>
      <point x="95" y="123"/>
      <point x="97" y="92" type="curve"/>
      <point x="101" y="54"/>
      <point x="121" y="44"/>
    </contour>
  </outline>
</glyph>
<glyph name="aring" format="1">
  <advance width="375"/>
  <unicode hex="00E5"/>
  <outline>
    <contour>
      <point x="73" y="359" type="curve"/>
      <point x="119" y="378"/>
      <point x="177" y="387"/>
      <point x="221" y="387" type="curve" smooth="yes"/>
      <point x="258" y="387"/>
      <point x="282" y="377"/>
      <point x="301" y="360" type="curve" smooth="yes"/>
      <point x="309" y="353"/>
      <point x="320" y="337"/>
      <point x="320" y="311" type="curve" smooth="yes"/>
      <point x="319" y="260"/>
      <point x="319" y="119"/>
      <point x="320" y="64" type="curve" smooth="yes"/>
      <point x="321" y="48"/>
      <point x="321" y="22"/>
      <point x="326" y="-2" type="curve"/>
      <point x="291" y="2"/>
      <point x="291" y="2"/>
      <point x="256" y="-2" type="curve"/>
      <point x="254" y="9"/>
      <point x="254" y="28"/>
      <point x="254" y="36" type="curve"/>
      <point x="202" y="15"/>
      <point x="139" y="-9"/>
      <point x="111" y="-9" type="curve" smooth="yes"/>
      <point x="76" y="-9"/>
      <point x="60" y="-3"/>
      <point x="41" y="33" type="curve" smooth="yes"/>
      <point x="34" y="46"/>
      <point x="28" y="86"/>
      <point x="31" y="105" type="curve" smooth="yes"/>
      <point x="38" y="159"/>
      <point x="81" y="184"/>
      <point x="122" y="194" type="curve" smooth="yes"/>
      <point x="162" y="204"/>
      <point x="212" y="212"/>
      <point x="254" y="218" type="curve"/>
      <point x="256" y="241"/>
      <point x="256" y="284"/>
      <point x="253" y="303" type="curve" smooth="yes"/>
      <point x="249" y="337"/>
      <point x="205" y="340"/>
      <point x="166" y="340" type="curve" smooth="yes"/>
      <point x="128" y="340"/>
      <point x="93" y="331"/>
      <point x="79" y="327" type="curve"/>
      <point x="75" y="332"/>
      <point x="73" y="346"/>
    </contour>
    <contour>
      <point x="153" y="45" type="curve" smooth="yes"/>
      <point x="172" y="46"/>
      <point x="228" y="60"/>
      <point x="253" y="69" type="curve"/>
      <point x="253" y="107"/>
      <point x="253" y="150"/>
      <point x="254" y="182" type="curve"/>
      <point x="217" y="176"/>
      <point x="184" y="174"/>
      <point x="145" y="161" type="curve"/>
      <point x="107" y="147"/>
      <point x="95" y="123"/>
      <point x="97" y="92" type="curve"/>
      <point x="101" y="54"/>
      <point x="121" y="44"/>
    </contour>
    <contour>
      <point x="205" y="561" type="curve" smooth="yes"/>
      <point x="250" y="561"/>
      <point x="290" y="545"/>
      <point x="290" y="511" type="curve" smooth="yes"/>
      <point x="290" y="464"/>
      <point x="226" y="443"/>
      <point x="180" y="444" type="curve" smooth="yes"/>
      <point x="136" y="445"/>
      <point x="105" y="462"/>
      <point x="105" y="496" type="curve" smooth="yes"/>
      <point x="105" y="533"/>
      <point x="152" y="561"/>
    </contour>
    <contour>
      <point x="200" y="533" type="curve" smooth="yes"/>
      <point x="174" y="533"/>
      <point x="155" y="520"/>
      <point x="155" y="500" type="curve" smooth="yes"/>
      <point x="155" y="482"/>
      <point x="168" y="472"/>
      <point x="192" y="472" type="curve" smooth="yes"/>
      <point x="221" y="472"/>
      <point x="239" y="484"/>
      <point x="239" y="508" type="curve" smooth="yes"/>
      <point x="239" y="524"/>
      <point x="221" y="533"/>
    </contour>
  </outline>
</glyph>
<glyph name="ae" format="1">
  <advance width="607"/>
  <unicode hex="00E6"/>
  <outline>
    <contour>
      <point x="316" y="217" type="curve" smooth="yes"/>
      <point x="307" y="149"/>
      <point x="331" y="34"/>
      <point x="434" y="34" type="curve" smooth="yes"/>
      <point x="489" y="34"/>
      <point x="519" y="42"/>
      <point x="563" y="56" type="curve"/>
      <point x="568" y="49"/>
      <point x="573" y="32"/>
      <point x="574" y="27" type="curve"/>
      <point x="526" y="9"/>
      <point x="470" y="-10"/>
      <point x="407" y="-10" type="curve" smooth="yes"/>
      <point x="350" y="-10"/>
      <point x="308" y="11"/>
      <point x="283" y="48" type="curve"/>
      <point x="231" y="26"/>
      <point x="139" y="-9"/>
      <point x="111" y="-9" type="curve" smooth="yes"/>
      <point x="76" y="-9"/>
      <point x="60" y="-3"/>
      <point x="41" y="33" type="curve" smooth="yes"/>
      <point x="34" y="46"/>
      <point x="28" y="86"/>
      <point x="31" y="105" type="curve" smooth="yes"/>
      <point x="38" y="159"/>
      <point x="81" y="184"/>
      <point x="122" y="194" type="curve" smooth="yes"/>
      <point x="162" y="204"/>
      <point x="212" y="212"/>
      <point x="254" y="218" type="curve"/>
      <point x="256" y="241"/>
      <point x="256" y="284"/>
      <point x="253" y="303" type="curve" smooth="yes"/>
      <point x="249" y="337"/>
      <point x="205" y="340"/>
      <point x="166" y="340" type="curve" smooth="yes"/>
      <point x="128" y="340"/>
      <point x="93" y="331"/>
      <point x="79" y="327" type="curve"/>
      <point x="75" y="332"/>
      <point x="73" y="346"/>
      <point x="73" y="359" type="curve"/>
      <point x="119" y="378"/>
      <point x="177" y="387"/>
      <point x="221" y="387" type="curve" smooth="yes"/>
      <point x="258" y="387"/>
      <point x="282" y="377"/>
      <point x="301" y="360" type="curve" smooth="yes"/>
      <point x="305" y="356"/>
      <point x="311" y="349"/>
      <point x="315" y="338" type="curve"/>
      <point x="351" y="375"/>
      <point x="396" y="392"/>
      <point x="432" y="392" type="curve" smooth="yes"/>
      <point x="509" y="392"/>
      <point x="535" y="372"/>
      <point x="552" y="343" type="curve" smooth="yes"/>
      <point x="561" y="328"/>
      <point x="563" y="288"/>
      <point x="546" y="265" type="curve" smooth="yes"/>
      <point x="525" y="237"/>
      <point x="480" y="221"/>
      <point x="410" y="221" type="curve" smooth="yes"/>
      <point x="386" y="221"/>
      <point x="342" y="223"/>
      <point x="318" y="227" type="curve"/>
      <point x="317" y="223"/>
      <point x="316" y="220"/>
    </contour>
    <contour>
      <point x="267" y="79" type="curve"/>
      <point x="257" y="106"/>
      <point x="251" y="141"/>
      <point x="253" y="182" type="curve"/>
      <point x="216" y="176"/>
      <point x="184" y="174"/>
      <point x="145" y="161" type="curve"/>
      <point x="107" y="147"/>
      <point x="95" y="123"/>
      <point x="97" y="92" type="curve"/>
      <point x="101" y="54"/>
      <point x="121" y="44"/>
      <point x="153" y="45" type="curve" smooth="yes"/>
      <point x="176" y="46"/>
      <point x="235" y="64"/>
    </contour>
    <contour>
      <point x="403" y="256" type="curve" smooth="yes"/>
      <point x="437" y="256"/>
      <point x="469" y="261"/>
      <point x="482" y="283" type="curve" smooth="yes"/>
      <point x="490" y="296"/>
      <point x="491" y="321"/>
      <point x="482" y="335" type="curve" smooth="yes"/>
      <point x="472" y="350"/>
      <point x="457" y="358"/>
      <point x="429" y="358" type="curve" smooth="yes"/>
      <point x="378" y="358"/>
      <point x="338" y="308"/>
      <point x="326" y="263" type="curve"/>
      <point x="341" y="259"/>
      <point x="369" y="256"/>
    </contour>
  </outline>
</glyph>
<glyph name="ccedilla" format="1">
  <advance width="377"/>
  <unicode hex="00E7"/>
  <outline>
    <contour>
      <point x="133" y="-105" type="curve"/>
      <point x="149" y="-79"/>
      <point x="167" y="-39"/>
      <point x="180" y="-7" type="curve"/>
      <point x="92" y="-5"/>
      <point x="35" y="55"/>
      <point x="35" y="166" type="curve" smooth="yes"/>
      <point x="35" y="304"/>
      <point x="132" y="388"/>
      <point x="254" y="388" type="curve" smooth="yes"/>
      <point x="279" y="388"/>
      <point x="304" y="380"/>
      <point x="325" y="371" type="curve"/>
      <point x="321" y="362"/>
      <point x="316" y="346"/>
      <point x="310" y="339" type="curve"/>
      <point x="299" y="343"/>
      <point x="273" y="350"/>
      <point x="253" y="350" type="curve" smooth="yes"/>
      <point x="146" y="350"/>
      <point x="99" y="270"/>
      <point x="99" y="168" type="curve" smooth="yes"/>
      <point x="99" y="78"/>
      <point x="156" y="35"/>
      <point x="209" y="35" type="curve" smooth="yes"/>
      <point x="256" y="35"/>
      <point x="278" y="40"/>
      <point x="335" y="57" type="curve"/>
      <point x="341" y="49"/>
      <point x="345" y="35"/>
      <point x="346" y="25" type="curve"/>
      <point x="296" y="7"/>
      <point x="262" y="-3"/>
      <point x="216" y="-6" type="curve"/>
      <point x="206" y="-27"/>
      <point x="197" y="-48"/>
      <point x="189" y="-71" type="curve"/>
      <point x="210" y="-86"/>
      <point x="236" y="-112"/>
      <point x="236" y="-141" type="curve" smooth="yes"/>
      <point x="236" y="-161"/>
      <point x="213" y="-216"/>
      <point x="170" y="-266" type="curve"/>
      <point x="165" y="-263"/>
      <point x="152" y="-256"/>
      <point x="147" y="-251" type="curve"/>
      <point x="164" y="-226"/>
      <point x="182" y="-192"/>
      <point x="182" y="-160" type="curve" smooth="yes"/>
      <point x="182" y="-143"/>
      <point x="156" y="-119"/>
    </contour>
  </outline>
</glyph>
<glyph name="eacute" format="1">
  <advance width="390"/>
  <unicode hex="00E9"/>
  <outline>
    <contour>
      <point x="36" y="169" type="curve" smooth="yes"/>
      <point x="40" y="326"/>
      <point x="144" y="392"/>
      <point x="216" y="392" type="curve" smooth="yes"/>
      <point x="293" y="392"/>
      <point x="319" y="372"/>
      <point x="336" y="343" type="curve" smooth="yes"/>
      <point x="345" y="328"/>
      <point x="347" y="288"/>
      <point x="330" y="265" type="curve" smooth="yes"/>
      <point x="309" y="237"/>
      <point x="264" y="221"/>
      <point x="194" y="221" type="curve" smooth="yes"/>
      <point x="170" y="221"/>
      <point x="126" y="223"/>
      <point x="102" y="227" type="curve"/>
      <point x="86" y="161"/>
      <point x="109" y="34"/>
      <point x="217" y="34" type="curve" smooth="yes"/>
      <point x="272" y="34"/>
      <point x="303" y="42"/>
      <point x="347" y="56" type="curve"/>
      <point x="352" y="49"/>
      <point x="356" y="32"/>
      <point x="358" y="27" type="curve"/>
      <point x="310" y="9"/>
      <point x="253" y="-10"/>
      <point x="191" y="-10" type="curve" smooth="yes"/>
      <point x="84" y="-10"/>
      <point x="33" y="64"/>
    </contour>
    <contour>
      <point x="187" y="256" type="curve" smooth="yes"/>
      <point x="221" y="256"/>
      <point x="253" y="261"/>
      <point x="266" y="283" type="curve" smooth="yes"/>
      <point x="274" y="296"/>
      <point x="275" y="321"/>
      <point x="266" y="335" type="curve" smooth="yes"/>
      <point x="256" y="350"/>
      <point x="241" y="358"/>
      <point x="213" y="358" type="curve" smooth="yes"/>
      <point x="162" y="358"/>
      <point x="122" y="308"/>
      <point x="110" y="263" type="curve"/>
      <point x="125" y="259"/>
      <point x="153" y="256"/>
    </contour>
    <contour>
      <point x="297" y="562" type="curve"/>
      <point x="299" y="543"/>
      <point x="307" y="518"/>
      <point x="316" y="499" type="curve"/>
      <point x="247" y="486"/>
      <point x="199" y="474"/>
      <point x="134" y="454" type="curve"/>
      <point x="130" y="462"/>
      <point x="128" y="470"/>
      <point x="127" y="477" type="curve"/>
      <point x="186" y="504"/>
      <point x="259" y="539"/>
    </contour>
  </outline>
</glyph>
